<svg version="1.1" viewBox="0.0 0.0 682.0 421.0" fill="none" stroke="none" stroke-linecap="square" stroke-miterlimit="10" width="682" height="421" xmlns:xlink="http://www.w3.org/1999/xlink" xmlns="http://www.w3.org/2000/svg"><path fill="#ffffff" d="M0 0L682.0 0L682.0 421.0L0 421.0L0 0Z" fill-rule="nonzero"/><path stroke="#333333" stroke-width="1.0" stroke-linecap="butt" d="M80.5 379.5L660.5 379.5" fill-rule="nonzero"/><path stroke="#cccccc" stroke-width="1.0" stroke-linecap="butt" d="M80.5 308.5L660.5 308.5" fill-rule="nonzero"/><path stroke="#cccccc" stroke-width="1.0" stroke-linecap="butt" d="M80.5 237.5L660.5 237.5" fill-rule="nonzero"/><path stroke="#cccccc" stroke-width="1.0" stroke-linecap="butt" d="M80.5 165.5L660.5 165.5" fill-rule="nonzero"/><path stroke="#cccccc" stroke-width="1.0" stroke-linecap="butt" d="M80.5 94.5L660.5 94.5" fill-rule="nonzero"/><clipPath id="id_0"><path d="M80.05 94.11667L660.95 94.11667L660.95 379.95L80.05 379.95L80.05 94.11667Z" clip-rule="nonzero"/></clipPath><path stroke="#000000" stroke-width="2.0" stroke-linecap="butt" stroke-opacity="0.0" clip-path="url(#id_0)" d="M177.0 380.0L141.0 380.0L141.0 300.0C141.0 298.89542 141.89543 298.0 143.0 298.0L175.0 298.0C176.10457 298.0 177.0 298.89542 177.0 300.0Z" fill-rule="nonzero"/><path fill="#4285f4" clip-path="url(#id_0)" d="M177.0 380.0L141.0 380.0L141.0 300.0C141.0 298.89542 141.89543 298.0 143.0 298.0L175.0 298.0C176.10457 298.0 177.0 298.89542 177.0 300.0Z" fill-rule="nonzero"/><path stroke="#000000" stroke-width="2.0" stroke-linecap="butt" stroke-opacity="0.0" clip-path="url(#id_0)" d="M351.0 380.0L315.0 380.0L315.0 272.0C315.0 270.89542 315.89542 270.0 317.0 270.0L349.0 270.0C350.10458 270.0 351.0 270.89542 351.0 272.0Z" fill-rule="nonzero"/><path fill="#4285f4" clip-path="url(#id_0)" d="M351.0 380.0L315.0 380.0L315.0 272.0C315.0 270.89542 315.89542 270.0 317.0 270.0L349.0 270.0C350.10458 270.0 351.0 270.89542 351.0 272.0Z" fill-rule="nonzero"/><path stroke="#000000" stroke-width="2.0" stroke-linecap="butt" stroke-opacity="0.0" clip-path="url(#id_0)" d="M524.0 380.0L488.0 380.0L488.0 208.0C488.0 206.89543 488.89542 206.0 490.0 206.0L522.0 206.0C523.10455 206.0 524.0 206.89543 524.0 208.0Z" fill-rule="nonzero"/><path fill="#4285f4" clip-path="url(#id_0)" d="M524.0 380.0L488.0 380.0L488.0 208.0C488.0 206.89543 488.89542 206.0 490.0 206.0L522.0 206.0C523.10455 206.0 524.0 206.89543 524.0 208.0Z" fill-rule="nonzero"/><path stroke="#000000" stroke-width="2.0" stroke-linecap="butt" stroke-opacity="0.0" clip-path="url(#id_0)" d="M215.0 380.0L179.0 380.0L179.0 295.0C179.0 293.89542 179.89543 293.0 181.0 293.0L213.0 293.0C214.10457 293.0 215.0 293.89542 215.0 295.0Z" fill-rule="nonzero"/><path fill="#ea4335" clip-path="url(#id_0)" d="M215.0 380.0L179.0 380.0L179.0 295.0C179.0 293.89542 179.89543 293.0 181.0 293.0L213.0 293.0C214.10457 293.0 215.0 293.89542 215.0 295.0Z" fill-rule="nonzero"/><path stroke="#000000" stroke-width="2.0" stroke-linecap="butt" stroke-opacity="0.0" clip-path="url(#id_0)" d="M562.0 380.0L526.0 380.0L526.0 163.0C526.0 161.89543 526.89545 161.0 528.0 161.0L560.0 161.0C561.10455 161.0 562.0 161.89543 562.0 163.0Z" fill-rule="nonzero"/><path fill="#ea4335" clip-path="url(#id_0)" d="M562.0 380.0L526.0 380.0L526.0 163.0C526.0 161.89543 526.89545 161.0 528.0 161.0L560.0 161.0C561.10455 161.0 562.0 161.89543 562.0 163.0Z" fill-rule="nonzero"/><path stroke="#000000" stroke-width="2.0" stroke-linecap="butt" stroke-opacity="0.0" clip-path="url(#id_0)" d="M253.0 380.0L217.0 380.0L217.0 299.0C217.0 297.89542 217.89543 297.0 219.0 297.0L251.0 297.0C252.10457 297.0 253.0 297.89542 253.0 299.0Z" fill-rule="nonzero"/><path fill="#fbbc04" clip-path="url(#id_0)" d="M253.0 380.0L217.0 380.0L217.0 299.0C217.0 297.89542 217.89543 297.0 219.0 297.0L251.0 297.0C252.10457 297.0 253.0 297.89542 253.0 299.0Z" fill-rule="nonzero"/><path stroke="#000000" stroke-width="2.0" stroke-linecap="butt" stroke-opacity="0.0" clip-path="url(#id_0)" d="M600.0 380.0L564.0 380.0L564.0 172.0C564.0 170.89543 564.89545 170.0 566.0 170.0L598.0 170.0C599.10455 170.0 600.0 170.89543 600.0 172.0Z" fill-rule="nonzero"/><path fill="#fbbc04" clip-path="url(#id_0)" d="M600.0 380.0L564.0 380.0L564.0 172.0C564.0 170.89543 564.89545 170.0 566.0 170.0L598.0 170.0C599.10455 170.0 600.0 170.89543 600.0 172.0Z" fill-rule="nonzero"/><path fill="#000000" d="M32.05001 339.54895L23.456263 336.25208L23.456263 335.03333L32.05001 331.5177L32.05001 332.79895L29.440638 333.81458L29.440638 337.3927L32.05001 338.34583L32.05001 339.54895ZM28.518763 337.06458L28.518763 334.15833L26.143763 335.04895Q25.065638 335.47083 24.362513 335.65833Q25.190638 335.8302 26.003138 336.12708L28.518763 337.06458ZM32.05001 329.0177L25.831263 331.37708L25.831263 330.2677L29.550013 328.92395Q30.159388 328.72083 30.800013 328.53333Q30.315638 328.3927 29.628138 328.1427L25.831263 326.75208L25.831263 325.67395L32.05001 328.03333L32.05001 329.0177ZM30.050013 320.48645L30.175013 319.3927Q31.128138 319.6427 31.659388 320.34583Q32.190636 321.04895 32.190636 322.12708Q32.190636 323.48645 31.346888 324.29895Q30.503138 325.09583 28.987513 325.09583Q27.425013 325.09583 26.565638 324.28333Q25.690638 323.47083 25.690638 322.18958Q25.690638 320.93958 26.534388 320.15833Q27.378138 319.36145 28.925013 319.36145Q29.018763 319.36145 29.206263 319.36145L29.206263 324.00208Q30.237513 323.93958 30.784388 323.42395Q31.315638 322.90833 31.315638 322.12708Q31.315638 321.54895 31.018763 321.1427Q30.706263 320.72083 30.050013 320.48645ZM28.346888 323.93958L28.346888 320.47083Q27.550013 320.53333 27.159388 320.86145Q26.550013 321.37708 26.550013 322.17395Q26.550013 322.90833 27.034388 323.40833Q27.518763 323.8927 28.346888 323.93958ZM32.05001 317.75208L25.831263 317.75208L25.831263 316.79895L26.768763 316.79895Q26.112513 316.43958 25.909388 316.1427Q25.690638 315.8302 25.690638 315.4552Q25.690638 314.92395 26.018763 314.37708L27.003138 314.73645Q26.768763 315.12708 26.768763 315.50208Q26.768763 315.86145 26.987513 316.1427Q27.190638 316.40833 27.565638 316.5177Q28.128138 316.7052 28.784388 316.7052L32.05001 316.7052L32.05001 317.75208ZM31.284388 309.67395Q31.784388 310.2677 31.987513 310.81458Q32.190636 311.34583 32.190636 311.97083Q32.190636 313.00208 31.690638 313.54895Q31.190638 314.09583 30.409388 314.09583Q29.956263 314.09583 29.581263 313.8927Q29.190638 313.68958 28.971888 313.34583Q28.737513 313.00208 28.628138 312.5802Q28.534388 312.28333 28.456263 311.6427Q28.315638 310.37708 28.096888 309.7677Q27.878138 309.7677 27.831263 309.7677Q27.175013 309.7677 26.909388 310.06458Q26.565638 310.47083 26.565638 311.2677Q26.565638 312.00208 26.831263 312.36145Q27.081263 312.72083 27.737513 312.8927L27.596888 313.92395Q26.940638 313.78333 26.534388 313.4552Q26.128138 313.12708 25.909388 312.5177Q25.690638 311.90833 25.690638 311.11145Q25.690638 310.31458 25.878138 309.81458Q26.065638 309.31458 26.346888 309.0802Q26.628138 308.84583 27.065638 308.75208Q27.331263 308.7052 28.034388 308.7052L29.440638 308.7052Q30.909388 308.7052 31.300013 308.6427Q31.690638 308.56458 32.05001 308.36145L32.05001 309.47083Q31.721888 309.62708 31.284388 309.67395ZM28.925013 309.7677Q29.159388 310.34583 29.331263 311.48645Q29.425013 312.1427 29.550013 312.40833Q29.659388 312.67395 29.878138 312.8302Q30.096888 312.97083 30.378138 312.97083Q30.800013 312.97083 31.081263 312.65833Q31.362513 312.3302 31.362513 311.72083Q31.362513 311.11145 31.096888 310.6427Q30.831263 310.15833 30.362513 309.93958Q30.003138 309.7677 29.315638 309.7677L28.925013 309.7677ZM32.565636 306.93958L32.721886 305.90833Q33.190636 305.84583 33.409386 305.54895Q33.70626 305.15833 33.70626 304.48645Q33.70626 303.75208 33.409386 303.36145Q33.11251 302.9552 32.596886 302.81458Q32.26876 302.72083 31.237513 302.73645Q32.05001 303.42395 32.05001 304.4552Q32.05001 305.73645 31.128138 306.43958Q30.190638 307.1427 28.909388 307.1427Q28.018763 307.1427 27.268763 306.8302Q26.503138 306.50208 26.096888 305.8927Q25.690638 305.28333 25.690638 304.4552Q25.690638 303.34583 26.581263 302.62708L25.831263 302.62708L25.831263 301.65833L31.206263 301.65833Q32.659386 301.65833 33.26876 301.9552Q33.878136 302.25208 34.221886 302.8927Q34.58126 303.53333 34.58126 304.47083Q34.58126 305.5802 34.08126 306.2677Q33.58126 306.9552 32.565636 306.93958ZM28.831263 306.06458Q30.050013 306.06458 30.612513 305.5802Q31.175013 305.09583 31.175013 304.36145Q31.175013 303.62708 30.612513 303.1427Q30.050013 302.6427 28.862513 302.6427Q27.721888 302.6427 27.143763 303.15833Q26.565638 303.65833 26.565638 304.37708Q26.565638 305.0802 27.143763 305.5802Q27.706263 306.06458 28.831263 306.06458ZM30.050013 295.48645L30.175013 294.3927Q31.128138 294.6427 31.659388 295.34583Q32.190636 296.04895 32.190636 297.12708Q32.190636 298.48645 31.346888 299.29895Q30.503138 300.09583 28.987513 300.09583Q27.425013 300.09583 26.565638 299.28333Q25.690638 298.47083 25.690638 297.18958Q25.690638 295.93958 26.534388 295.15833Q27.378138 294.36145 28.925013 294.36145Q29.018763 294.36145 29.206263 294.36145L29.206263 299.00208Q30.237513 298.93958 30.784388 298.42395Q31.315638 297.90833 31.315638 297.12708Q31.315638 296.54895 31.018763 296.1427Q30.706263 295.72083 30.050013 295.48645ZM28.346888 298.93958L28.346888 295.47083Q27.550013 295.53333 27.159388 295.86145Q26.550013 296.37708 26.550013 297.17395Q26.550013 297.90833 27.034388 298.40833Q27.518763 298.8927 28.346888 298.93958ZM31.112513 287.43958L32.034386 287.28333Q32.128136 287.73645 32.128136 288.0802Q32.128136 288.65833 31.956263 288.97083Q31.768763 289.28333 31.471888 289.42395Q31.175013 289.54895 30.221888 289.54895L26.643763 289.54895L26.643763 290.31458L25.831263 290.31458L25.831263 289.54895L24.284388 289.54895L23.659388 288.50208L25.831263 288.50208L25.831263 287.43958L26.643763 287.43958L26.643763 288.50208L30.284388 288.50208Q30.737513 288.50208 30.862513 288.4552Q30.987513 288.3927 31.065638 288.2677Q31.143763 288.1427 31.143763 287.90833Q31.143763 287.72083 31.112513 287.43958ZM24.675013 286.73645L23.456263 286.73645L23.456263 285.67395L24.675013 285.67395L24.675013 286.73645ZM32.05001 286.73645L25.831263 286.73645L25.831263 285.67395L32.05001 285.67395L32.05001 286.73645ZM32.05001 283.73645L25.831263 283.73645L25.831263 282.79895L26.706263 282.79895Q26.237513 282.50208 25.971888 282.0177Q25.690638 281.53333 25.690638 280.90833Q25.690638 280.22083 25.971888 279.78333Q26.253138 279.3302 26.768763 279.15833Q25.690638 278.40833 25.690638 277.23645Q25.690638 276.29895 26.206263 275.81458Q26.706263 275.31458 27.784388 275.31458L32.05001 275.31458L32.05001 276.36145L28.128138 276.36145Q27.503138 276.36145 27.221888 276.47083Q26.940638 276.56458 26.768763 276.8302Q26.596888 277.09583 26.596888 277.47083Q26.596888 278.12708 27.034388 278.56458Q27.471888 278.98645 28.440638 278.98645L32.05001 278.98645L32.05001 280.04895L28.003138 280.04895Q27.300013 280.04895 26.956263 280.31458Q26.596888 280.56458 26.596888 281.1427Q26.596888 281.59583 26.831263 281.97083Q27.065638 282.34583 27.518763 282.5177Q27.971888 282.68958 28.815638 282.68958L32.05001 282.68958L32.05001 283.73645ZM30.050013 269.48645L30.175013 268.3927Q31.128138 268.6427 31.659388 269.34583Q32.190636 270.04895 32.190636 271.12708Q32.190636 272.48645 31.346888 273.29895Q30.503138 274.09583 28.987513 274.09583Q27.425013 274.09583 26.565638 273.28333Q25.690638 272.47083 25.690638 271.18958Q25.690638 269.93958 26.534388 269.15833Q27.378138 268.36145 28.925013 268.36145Q29.018763 268.36145 29.206263 268.36145L29.206263 273.00208Q30.237513 272.93958 30.784388 272.42395Q31.315638 271.90833 31.315638 271.12708Q31.315638 270.54895 31.018763 270.1427Q30.706263 269.72083 30.050013 269.48645ZM28.346888 272.93958L28.346888 269.47083Q27.550013 269.53333 27.159388 269.86145Q26.550013 270.37708 26.550013 271.17395Q26.550013 271.90833 27.034388 272.40833Q27.518763 272.8927 28.346888 272.93958ZM24.675013 263.73645L23.456263 263.73645L23.456263 262.67395L24.675013 262.67395L24.675013 263.73645ZM32.05001 263.73645L25.831263 263.73645L25.831263 262.67395L32.05001 262.67395L32.05001 263.73645ZM32.05001 260.73645L25.831263 260.73645L25.831263 259.79895L26.706263 259.79895Q25.690638 259.11145 25.690638 257.81458Q25.690638 257.25208 25.893763 256.78333Q26.096888 256.29895 26.425013 256.06458Q26.753138 255.8302 27.190638 255.73645Q27.487513 255.68958 28.221888 255.68958L32.05001 255.68958L32.05001 256.73645L28.268763 256.73645Q27.612513 256.73645 27.300013 256.86145Q26.987513 256.98645 26.800013 257.29895Q26.596888 257.61145 26.596888 258.03333Q26.596888 258.7052 27.034388 259.2052Q27.456263 259.68958 28.643763 259.68958L32.05001 259.68958L32.05001 260.73645ZM30.190638 251.15833L30.034388 250.12708Q30.659388 250.03333 30.987513 249.6427Q31.315638 249.23645 31.315638 248.50208Q31.315638 247.78333 31.034388 247.43958Q30.737513 247.0802 30.331263 247.0802Q29.971888 247.0802 29.768763 247.3927Q29.628138 247.61145 29.409388 248.47083Q29.112513 249.62708 28.909388 250.0802Q28.690638 250.5177 28.315638 250.75208Q27.940638 250.98645 27.471888 250.98645Q27.065638 250.98645 26.706263 250.79895Q26.346888 250.61145 26.112513 250.28333Q25.940638 250.03333 25.815638 249.61145Q25.690638 249.18958 25.690638 248.68958Q25.690638 247.97083 25.909388 247.42395Q26.112513 246.86145 26.471888 246.59583Q26.831263 246.3302 27.425013 246.23645L27.565638 247.2677Q27.096888 247.3302 26.831263 247.67395Q26.550013 248.00208 26.550013 248.62708Q26.550013 249.34583 26.800013 249.65833Q27.034388 249.97083 27.362513 249.97083Q27.565638 249.97083 27.721888 249.84583Q27.893763 249.7052 28.003138 249.43958Q28.065638 249.28333 28.268763 248.50208Q28.581263 247.37708 28.768763 246.93958Q28.956263 246.50208 29.315638 246.25208Q29.675013 246.00208 30.221888 246.00208Q30.753138 246.00208 31.221888 246.31458Q31.675013 246.61145 31.940638 247.18958Q32.190636 247.7677 32.190636 248.50208Q32.190636 249.72083 31.690638 250.36145Q31.175013 250.98645 30.190638 251.15833ZM30.050013 240.48645L30.175013 239.3927Q31.128138 239.6427 31.659388 240.34583Q32.190636 241.04895 32.190636 242.12708Q32.190636 243.48645 31.346888 244.29895Q30.503138 245.09583 28.987513 245.09583Q27.425013 245.09583 26.565638 244.28333Q25.690638 243.47083 25.690638 242.18958Q25.690638 240.93958 26.534388 240.15833Q27.378138 239.36145 28.925013 239.36145Q29.018763 239.36145 29.206263 239.36145L29.206263 244.00208Q30.237513 243.93958 30.784388 243.42395Q31.315638 242.90833 31.315638 242.12708Q31.315638 241.54895 31.018763 241.1427Q30.706263 240.72083 30.050013 240.48645ZM28.346888 243.93958L28.346888 240.47083Q27.550013 240.53333 27.159388 240.86145Q26.550013 241.37708 26.550013 242.17395Q26.550013 242.90833 27.034388 243.40833Q27.518763 243.8927 28.346888 243.93958ZM29.768763 233.67395L29.909388 232.6427Q30.971888 232.81458 31.581263 233.5177Q32.190636 234.22083 32.190636 235.23645Q32.190636 236.5177 31.362513 237.29895Q30.518763 238.06458 28.956263 238.06458Q27.956263 238.06458 27.206263 237.73645Q26.440638 237.3927 26.065638 236.72083Q25.690638 236.03333 25.690638 235.22083Q25.690638 234.22083 26.206263 233.5802Q26.706263 232.92395 27.659388 232.73645L27.815638 233.7677Q27.190638 233.90833 26.878138 234.28333Q26.550013 234.65833 26.550013 235.18958Q26.550013 235.98645 27.128138 236.48645Q27.690638 236.98645 28.925013 236.98645Q30.190638 236.98645 30.753138 236.50208Q31.315638 236.0177 31.315638 235.25208Q31.315638 234.62708 30.940638 234.22083Q30.565638 233.79895 29.768763 233.67395ZM28.940638 232.12708Q27.206263 232.12708 26.378138 231.17395Q25.690638 230.37708 25.690638 229.22083Q25.690638 227.93958 26.534388 227.12708Q27.362513 226.29895 28.846888 226.29895Q30.050013 226.29895 30.737513 226.65833Q31.425013 227.0177 31.815638 227.72083Q32.190636 228.40833 32.190636 229.22083Q32.190636 230.5177 31.362513 231.3302Q30.518763 232.12708 28.940638 232.12708ZM28.940638 231.04895Q30.128138 231.04895 30.721888 230.53333Q31.315638 230.00208 31.315638 229.22083Q31.315638 228.42395 30.721888 227.90833Q30.128138 227.3927 28.909388 227.3927Q27.753138 227.3927 27.159388 227.92395Q26.565638 228.43958 26.565638 229.22083Q26.565638 230.00208 27.159388 230.53333Q27.737513 231.04895 28.940638 231.04895ZM32.05001 224.73645L25.831263 224.73645L25.831263 223.79895L26.706263 223.79895Q25.690638 223.11145 25.690638 221.81458Q25.690638 221.25208 25.893763 220.78333Q26.096888 220.29895 26.425013 220.06458Q26.753138 219.8302 27.190638 219.73645Q27.487513 219.68958 28.221888 219.68958L32.05001 219.68958L32.05001 220.73645L28.268763 220.73645Q27.612513 220.73645 27.300013 220.86145Q26.987513 220.98645 26.800013 221.29895Q26.596888 221.61145 26.596888 222.03333Q26.596888 222.7052 27.034388 223.2052Q27.456263 223.68958 28.643763 223.68958L32.05001 223.68958L32.05001 224.73645ZM32.05001 213.7052L31.268763 213.7052Q32.190636 214.29895 32.190636 215.43958Q32.190636 216.18958 31.784388 216.81458Q31.362513 217.43958 30.628138 217.78333Q29.893763 218.12708 28.940638 218.12708Q28.018763 218.12708 27.253138 217.81458Q26.487513 217.50208 26.096888 216.87708Q25.690638 216.25208 25.690638 215.48645Q25.690638 214.92395 25.925013 214.48645Q26.159388 214.04895 26.534388 213.7677L23.456263 213.7677L23.456263 212.72083L32.05001 212.72083L32.05001 213.7052ZM28.940638 217.03333Q30.143763 217.03333 30.737513 216.53333Q31.315638 216.03333 31.315638 215.34583Q31.315638 214.65833 30.753138 214.17395Q30.190638 213.68958 29.034388 213.68958Q27.753138 213.68958 27.159388 214.18958Q26.565638 214.67395 26.565638 215.3927Q26.565638 216.09583 27.143763 216.56458Q27.706263 217.03333 28.940638 217.03333ZM30.190638 211.15833L30.034388 210.12708Q30.659388 210.03333 30.987513 209.6427Q31.315638 209.23645 31.315638 208.50208Q31.315638 207.78333 31.034388 207.43958Q30.737513 207.0802 30.331263 207.0802Q29.971888 207.0802 29.768763 207.3927Q29.628138 207.61145 29.409388 208.47083Q29.112513 209.62708 28.909388 210.0802Q28.690638 210.5177 28.315638 210.75208Q27.940638 210.98645 27.471888 210.98645Q27.065638 210.98645 26.706263 210.79895Q26.346888 210.61145 26.112513 210.28333Q25.940638 210.03333 25.815638 209.61145Q25.690638 209.18958 25.690638 208.68958Q25.690638 207.97083 25.909388 207.42395Q26.112513 206.86145 26.471888 206.59583Q26.831263 206.3302 27.425013 206.23645L27.565638 207.2677Q27.096888 207.3302 26.831263 207.67395Q26.550013 208.00208 26.550013 208.62708Q26.550013 209.34583 26.800013 209.65833Q27.034388 209.97083 27.362513 209.97083Q27.565638 209.97083 27.721888 209.84583Q27.893763 209.7052 28.003138 209.43958Q28.065638 209.28333 28.268763 208.50208Q28.581263 207.37708 28.768763 206.93958Q28.956263 206.50208 29.315638 206.25208Q29.675013 206.00208 30.221888 206.00208Q30.753138 206.00208 31.221888 206.31458Q31.675013 206.61145 31.940638 207.18958Q32.190636 207.7677 32.190636 208.50208Q32.190636 209.72083 31.690638 210.36145Q31.175013 210.98645 30.190638 211.15833ZM34.440636 201.73645L25.831263 201.73645L25.831263 200.78333L26.628138 200.78333Q26.159388 200.43958 25.925013 200.0177Q25.690638 199.5802 25.690638 198.97083Q25.690638 198.17395 26.096888 197.56458Q26.503138 196.9552 27.253138 196.65833Q28.003138 196.34583 28.893763 196.34583Q29.846888 196.34583 30.612513 196.68958Q31.378138 197.0177 31.784388 197.67395Q32.190636 198.3302 32.190636 199.04895Q32.190636 199.5802 31.971888 200.00208Q31.737513 200.42395 31.409388 200.68958L34.440636 200.68958L34.440636 201.73645ZM28.971888 200.78333Q30.175013 200.78333 30.753138 200.29895Q31.315638 199.81458 31.315638 199.12708Q31.315638 198.42395 30.721888 197.92395Q30.128138 197.42395 28.878138 197.42395Q27.690638 197.42395 27.112513 197.90833Q26.518763 198.3927 26.518763 199.0802Q26.518763 199.75208 27.143763 200.2677Q27.768763 200.78333 28.971888 200.78333ZM30.050013 190.48645L30.175013 189.3927Q31.128138 189.6427 31.659388 190.34583Q32.190636 191.04895 32.190636 192.12708Q32.190636 193.48645 31.346888 194.29895Q30.503138 195.09583 28.987513 195.09583Q27.425013 195.09583 26.565638 194.28333Q25.690638 193.47083 25.690638 192.18958Q25.690638 190.93958 26.534388 190.15833Q27.378138 189.36145 28.925013 189.36145Q29.018763 189.36145 29.206263 189.36145L29.206263 194.00208Q30.237513 193.93958 30.784388 193.42395Q31.315638 192.90833 31.315638 192.12708Q31.315638 191.54895 31.018763 191.1427Q30.706263 190.72083 30.050013 190.48645ZM28.346888 193.93958L28.346888 190.47083Q27.550013 190.53333 27.159388 190.86145Q26.550013 191.37708 26.550013 192.17395Q26.550013 192.90833 27.034388 193.40833Q27.518763 193.8927 28.346888 193.93958ZM32.05001 187.75208L25.831263 187.75208L25.831263 186.79895L26.768763 186.79895Q26.112513 186.43958 25.909388 186.1427Q25.690638 185.8302 25.690638 185.4552Q25.690638 184.92395 26.018763 184.37708L27.003138 184.73645Q26.768763 185.12708 26.768763 185.50208Q26.768763 185.86145 26.987513 186.1427Q27.190638 186.40833 27.565638 186.5177Q28.128138 186.7052 28.784388 186.7052L32.05001 186.7052L32.05001 187.75208ZM30.050013 176.48645L30.175013 175.3927Q31.128138 175.6427 31.659388 176.34583Q32.190636 177.04895 32.190636 178.12708Q32.190636 179.48645 31.346888 180.29895Q30.503138 181.09583 28.987513 181.09583Q27.425013 181.09583 26.565638 180.28333Q25.690638 179.47083 25.690638 178.18958Q25.690638 176.93958 26.534388 176.15833Q27.378138 175.36145 28.925013 175.36145Q29.018763 175.36145 29.206263 175.36145L29.206263 180.00208Q30.237513 179.93958 30.784388 179.42395Q31.315638 178.90833 31.315638 178.12708Q31.315638 177.54895 31.018763 177.1427Q30.706263 176.72083 30.050013 176.48645ZM28.346888 179.93958L28.346888 176.47083Q27.550013 176.53333 27.159388 176.86145Q26.550013 177.37708 26.550013 178.17395Q26.550013 178.90833 27.034388 179.40833Q27.518763 179.8927 28.346888 179.93958ZM34.440636 173.73645L25.831263 173.73645L25.831263 172.78333L26.628138 172.78333Q26.159388 172.43958 25.925013 172.0177Q25.690638 171.5802 25.690638 170.97083Q25.690638 170.17395 26.096888 169.56458Q26.503138 168.9552 27.253138 168.65833Q28.003138 168.34583 28.893763 168.34583Q29.846888 168.34583 30.612513 168.68958Q31.378138 169.0177 31.784388 169.67395Q32.190636 170.3302 32.190636 171.04895Q32.190636 171.5802 31.971888 172.00208Q31.737513 172.42395 31.409388 172.68958L34.440636 172.68958L34.440636 173.73645ZM28.971888 172.78333Q30.175013 172.78333 30.753138 172.29895Q31.315638 171.81458 31.315638 171.12708Q31.315638 170.42395 30.721888 169.92395Q30.128138 169.42395 28.878138 169.42395Q27.690638 169.42395 27.112513 169.90833Q26.518763 170.3927 26.518763 171.0802Q26.518763 171.75208 27.143763 172.2677Q27.768763 172.78333 28.971888 172.78333ZM28.940638 167.12708Q27.206263 167.12708 26.378138 166.17395Q25.690638 165.37708 25.690638 164.22083Q25.690638 162.93958 26.534388 162.12708Q27.362513 161.29895 28.846888 161.29895Q30.050013 161.29895 30.737513 161.65833Q31.425013 162.0177 31.815638 162.72083Q32.190636 163.40833 32.190636 164.22083Q32.190636 165.5177 31.362513 166.3302Q30.518763 167.12708 28.940638 167.12708ZM28.940638 166.04895Q30.128138 166.04895 30.721888 165.53333Q31.315638 165.00208 31.315638 164.22083Q31.315638 163.42395 30.721888 162.90833Q30.128138 162.3927 28.909388 162.3927Q27.753138 162.3927 27.159388 162.92395Q26.565638 163.43958 26.565638 164.22083Q26.565638 165.00208 27.159388 165.53333Q27.737513 166.04895 28.940638 166.04895ZM29.768763 155.67395L29.909388 154.6427Q30.971888 154.81458 31.581263 155.5177Q32.190636 156.22083 32.190636 157.23645Q32.190636 158.5177 31.362513 159.29895Q30.518763 160.06458 28.956263 160.06458Q27.956263 160.06458 27.206263 159.73645Q26.440638 159.3927 26.065638 158.72083Q25.690638 158.03333 25.690638 157.22083Q25.690638 156.22083 26.206263 155.5802Q26.706263 154.92395 27.659388 154.73645L27.815638 155.7677Q27.190638 155.90833 26.878138 156.28333Q26.550013 156.65833 26.550013 157.18958Q26.550013 157.98645 27.128138 158.48645Q27.690638 158.98645 28.925013 158.98645Q30.190638 158.98645 30.753138 158.50208Q31.315638 158.0177 31.315638 157.25208Q31.315638 156.62708 30.940638 156.22083Q30.565638 155.79895 29.768763 155.67395ZM32.05001 153.73645L23.456263 153.73645L23.456263 152.68958L26.534388 152.68958Q25.690638 151.9552 25.690638 150.8302Q25.690638 150.12708 25.971888 149.62708Q26.237513 149.11145 26.721888 148.8927Q27.190638 148.67395 28.112513 148.67395L32.05001 148.67395L32.05001 149.72083L28.112513 149.72083Q27.315638 149.72083 26.956263 150.06458Q26.596888 150.40833 26.596888 151.03333Q26.596888 151.50208 26.846888 151.92395Q27.081263 152.3302 27.503138 152.5177Q27.909388 152.68958 28.643763 152.68958L32.05001 152.68958L32.05001 153.73645Z" fill-rule="nonzero"/><path fill="#000000" d="M67.55 379.71564Q67.55 378.1844 67.8625 377.2625Q68.175 376.325 68.78438 375.825Q69.40938 375.325 70.34688 375.325Q71.03438 375.325 71.55 375.60626Q72.08125 375.8875 72.425 376.41876Q72.76875 376.9344 72.95625 377.6844Q73.14375 378.4344 73.14375 379.71564Q73.14375 381.23126 72.83125 382.15314Q72.53438 383.075 71.90938 383.59064Q71.3 384.09064 70.34688 384.09064Q69.1125 384.09064 68.39375 383.2Q67.55 382.1375 67.55 379.71564ZM68.62813 379.71564Q68.62813 381.825 69.12813 382.52814Q69.62813 383.23126 70.34688 383.23126Q71.08125 383.23126 71.56563 382.52814Q72.06563 381.825 72.06563 379.71564Q72.06563 377.59064 71.56563 376.90314Q71.08125 376.2 70.33125 376.2Q69.6125 376.2 69.175 376.8094Q68.62813 377.59064 68.62813 379.71564Z" fill-rule="nonzero"/><path fill="#000000" d="M57.51875 312.49167L56.471874 312.49167L56.471874 305.77292Q56.08125 306.1323 55.45625 306.5073Q54.846874 306.86667 54.3625 307.03854L54.3625 306.02292Q55.2375 305.60104 55.89375 305.02292Q56.565624 304.42917 56.846874 303.86667L57.51875 303.86667L57.51875 312.49167ZM60.55 308.2573Q60.55 306.72604 60.8625 305.80417Q61.175 304.86667 61.784374 304.36667Q62.409374 303.86667 63.346874 303.86667Q64.03438 303.86667 64.55 304.14792Q65.08125 304.42917 65.425 304.96042Q65.76875 305.47604 65.95625 306.22604Q66.14375 306.97604 66.14375 308.2573Q66.14375 309.77292 65.83125 310.6948Q65.53438 311.61667 64.90938 312.1323Q64.3 312.6323 63.346874 312.6323Q62.1125 312.6323 61.39375 311.74167Q60.55 310.67917 60.55 308.2573ZM61.628124 308.2573Q61.628124 310.36667 62.128124 311.0698Q62.628124 311.77292 63.346874 311.77292Q64.08125 311.77292 64.56563 311.0698Q65.06563 310.36667 65.06563 308.2573Q65.06563 306.1323 64.56563 305.4448Q64.08125 304.74167 63.33125 304.74167Q62.6125 304.74167 62.175 305.35104Q61.628124 306.1323 61.628124 308.2573ZM67.55 308.2573Q67.55 306.72604 67.8625 305.80417Q68.175 304.86667 68.78438 304.36667Q69.40938 303.86667 70.34688 303.86667Q71.03438 303.86667 71.55 304.14792Q72.08125 304.42917 72.425 304.96042Q72.76875 305.47604 72.95625 306.22604Q73.14375 306.97604 73.14375 308.2573Q73.14375 309.77292 72.83125 310.6948Q72.53438 311.61667 71.90938 312.1323Q71.3 312.6323 70.34688 312.6323Q69.1125 312.6323 68.39375 311.74167Q67.55 310.67917 67.55 308.2573ZM68.62813 308.2573Q68.62813 310.36667 69.12813 311.0698Q69.62813 311.77292 70.34688 311.77292Q71.08125 311.77292 71.56563 311.0698Q72.06563 310.36667 72.06563 308.2573Q72.06563 306.1323 71.56563 305.4448Q71.08125 304.74167 70.33125 304.74167Q69.6125 304.74167 69.175 305.35104Q68.62813 306.1323 68.62813 308.2573Z" fill-rule="nonzero"/><path fill="#000000" d="M59.096874 240.01772L59.096874 241.03334L53.409374 241.03334Q53.409374 240.65834 53.534374 240.29897Q53.753124 239.72084 54.221874 239.15834Q54.70625 238.59584 55.6125 237.86147Q57.01875 236.70522 57.503124 236.03334Q58.003124 235.36147 58.003124 234.76772Q58.003124 234.14272 57.55 233.72084Q57.096874 233.28334 56.378124 233.28334Q55.6125 233.28334 55.159374 233.73647Q54.70625 234.18959 54.690624 235.00209L53.6125 234.89272Q53.721874 233.67397 54.440624 233.04897Q55.175 232.40834 56.409374 232.40834Q57.64375 232.40834 58.3625 233.09584Q59.08125 233.78334 59.08125 234.79897Q59.08125 235.31459 58.8625 235.81459Q58.659374 236.29897 58.159374 236.86147Q57.675 237.40834 56.55 238.36147Q55.596874 239.15834 55.315624 239.45522Q55.05 239.73647 54.878124 240.01772L59.096874 240.01772ZM60.55 236.79897Q60.55 235.26772 60.8625 234.34584Q61.175 233.40834 61.784374 232.90834Q62.409374 232.40834 63.346874 232.40834Q64.03438 232.40834 64.55 232.68959Q65.08125 232.97084 65.425 233.50209Q65.76875 234.01772 65.95625 234.76772Q66.14375 235.51772 66.14375 236.79897Q66.14375 238.31459 65.83125 239.23647Q65.53438 240.15834 64.90938 240.67397Q64.3 241.17397 63.346874 241.17397Q62.1125 241.17397 61.39375 240.28334Q60.55 239.22084 60.55 236.79897ZM61.628124 236.79897Q61.628124 238.90834 62.128124 239.61147Q62.628124 240.31459 63.346874 240.31459Q64.08125 240.31459 64.56563 239.61147Q65.06563 238.90834 65.06563 236.79897Q65.06563 234.67397 64.56563 233.98647Q64.08125 233.28334 63.33125 233.28334Q62.6125 233.28334 62.175 233.89272Q61.628124 234.67397 61.628124 236.79897ZM67.55 236.79897Q67.55 235.26772 67.8625 234.34584Q68.175 233.40834 68.78438 232.90834Q69.40938 232.40834 70.34688 232.40834Q71.03438 232.40834 71.55 232.68959Q72.08125 232.97084 72.425 233.50209Q72.76875 234.01772 72.95625 234.76772Q73.14375 235.51772 73.14375 236.79897Q73.14375 238.31459 72.83125 239.23647Q72.53438 240.15834 71.90938 240.67397Q71.3 241.17397 70.34688 241.17397Q69.1125 241.17397 68.39375 240.28334Q67.55 239.22084 67.55 236.79897ZM68.62813 236.79897Q68.62813 238.90834 69.12813 239.61147Q69.62813 240.31459 70.34688 240.31459Q71.08125 240.31459 71.56563 239.61147Q72.06563 238.90834 72.06563 236.79897Q72.06563 234.67397 71.56563 233.98647Q71.08125 233.28334 70.33125 233.28334Q69.6125 233.28334 69.175 233.89272Q68.62813 234.67397 68.62813 236.79897Z" fill-rule="nonzero"/><path fill="#000000" d="M53.55 167.30937L54.6125 167.16875Q54.784374 168.05937 55.221874 168.46562Q55.659374 168.85625 56.284374 168.85625Q57.034374 168.85625 57.55 168.34062Q58.065624 167.825 58.065624 167.05937Q58.065624 166.34062 57.58125 165.87187Q57.1125 165.3875 56.378124 165.3875Q56.08125 165.3875 55.628124 165.5125L55.753124 164.575Q55.8625 164.59062 55.925 164.59062Q56.596874 164.59062 57.128124 164.24687Q57.675 163.8875 57.675 163.15312Q57.675 162.575 57.284374 162.2Q56.89375 161.80937 56.26875 161.80937Q55.659374 161.80937 55.2375 162.2Q54.83125 162.59062 54.721874 163.35625L53.659374 163.16875Q53.846874 162.12187 54.534374 161.54375Q55.221874 160.95 56.2375 160.95Q56.940624 160.95 57.534374 161.2625Q58.128124 161.55937 58.440624 162.075Q58.753124 162.59062 58.753124 163.18437Q58.753124 163.73125 58.45625 164.2Q58.159374 164.65312 57.58125 164.91875Q58.33125 165.09062 58.753124 165.65312Q59.175 166.2 59.175 167.04375Q59.175 168.16875 58.346874 168.95Q57.534374 169.73125 56.284374 169.73125Q55.159374 169.73125 54.409374 169.05937Q53.659374 168.37187 53.55 167.30937ZM60.55 165.34062Q60.55 163.80937 60.8625 162.8875Q61.175 161.95 61.784374 161.45Q62.409374 160.95 63.346874 160.95Q64.03438 160.95 64.55 161.23125Q65.08125 161.5125 65.425 162.04375Q65.76875 162.55937 65.95625 163.30937Q66.14375 164.05937 66.14375 165.34062Q66.14375 166.85625 65.83125 167.77812Q65.53438 168.7 64.90938 169.21562Q64.3 169.71562 63.346874 169.71562Q62.1125 169.71562 61.39375 168.825Q60.55 167.7625 60.55 165.34062ZM61.628124 165.34062Q61.628124 167.45 62.128124 168.15312Q62.628124 168.85625 63.346874 168.85625Q64.08125 168.85625 64.56563 168.15312Q65.06563 167.45 65.06563 165.34062Q65.06563 163.21562 64.56563 162.52812Q64.08125 161.825 63.33125 161.825Q62.6125 161.825 62.175 162.43437Q61.628124 163.21562 61.628124 165.34062ZM67.55 165.34062Q67.55 163.80937 67.8625 162.8875Q68.175 161.95 68.78438 161.45Q69.40938 160.95 70.34688 160.95Q71.03438 160.95 71.55 161.23125Q72.08125 161.5125 72.425 162.04375Q72.76875 162.55937 72.95625 163.30937Q73.14375 164.05937 73.14375 165.34062Q73.14375 166.85625 72.83125 167.77812Q72.53438 168.7 71.90938 169.21562Q71.3 169.71562 70.34688 169.71562Q69.1125 169.71562 68.39375 168.825Q67.55 167.7625 67.55 165.34062ZM68.62813 165.34062Q68.62813 167.45 69.12813 168.15312Q69.62813 168.85625 70.34688 168.85625Q71.08125 168.85625 71.56563 168.15312Q72.06563 167.45 72.06563 165.34062Q72.06563 163.21562 71.56563 162.52812Q71.08125 161.825 70.33125 161.825Q69.6125 161.825 69.175 162.43437Q68.62813 163.21562 68.62813 165.34062Z" fill-rule="nonzero"/><path fill="#000000" d="M56.925 98.11667L56.925 96.05417L53.20625 96.05417L53.20625 95.08542L57.128124 89.52292L57.9875 89.52292L57.9875 95.08542L59.14375 95.08542L59.14375 96.05417L57.9875 96.05417L57.9875 98.11667L56.925 98.11667ZM56.925 95.08542L56.925 91.22604L54.2375 95.08542L56.925 95.08542ZM60.55 93.88229Q60.55 92.35104 60.8625 91.42917Q61.175 90.49167 61.784374 89.99167Q62.409374 89.49167 63.346874 89.49167Q64.03438 89.49167 64.55 89.77292Q65.08125 90.05417 65.425 90.58542Q65.76875 91.10104 65.95625 91.85104Q66.14375 92.60104 66.14375 93.88229Q66.14375 95.39792 65.83125 96.31979Q65.53438 97.24167 64.90938 97.75729Q64.3 98.25729 63.346874 98.25729Q62.1125 98.25729 61.39375 97.36667Q60.55 96.30417 60.55 93.88229ZM61.628124 93.88229Q61.628124 95.99167 62.128124 96.69479Q62.628124 97.39792 63.346874 97.39792Q64.08125 97.39792 64.56563 96.69479Q65.06563 95.99167 65.06563 93.88229Q65.06563 91.75729 64.56563 91.06979Q64.08125 90.36667 63.33125 90.36667Q62.6125 90.36667 62.175 90.97604Q61.628124 91.75729 61.628124 93.88229ZM67.55 93.88229Q67.55 92.35104 67.8625 91.42917Q68.175 90.49167 68.78438 89.99167Q69.40938 89.49167 70.34688 89.49167Q71.03438 89.49167 71.55 89.77292Q72.08125 90.05417 72.425 90.58542Q72.76875 91.10104 72.95625 91.85104Q73.14375 92.60104 73.14375 93.88229Q73.14375 95.39792 72.83125 96.31979Q72.53438 97.24167 71.90938 97.75729Q71.3 98.25729 70.34688 98.25729Q69.1125 98.25729 68.39375 97.36667Q67.55 96.30417 67.55 93.88229ZM68.62813 93.88229Q68.62813 95.99167 69.12813 96.69479Q69.62813 97.39792 70.34688 97.39792Q71.08125 97.39792 71.56563 96.69479Q72.06563 95.99167 72.06563 93.88229Q72.06563 91.75729 71.56563 91.06979Q71.08125 90.36667 70.33125 90.36667Q69.6125 90.36667 69.175 90.97604Q68.62813 91.75729 68.62813 93.88229Z" fill-rule="nonzero"/><path fill="#000000" d="M183.58139 396.95L183.58139 388.35626L189.37827 388.35626L189.37827 389.3719L184.72202 389.3719L184.72202 392.02814L188.75327 392.02814L188.75327 393.04376L184.72202 393.04376L184.72202 396.95L183.58139 396.95ZM190.51889 396.95L190.51889 388.35626L193.76889 388.35626Q194.61264 388.35626 195.06577 388.4344Q195.70639 388.54376 196.12827 388.84064Q196.56577 389.1375 196.81577 389.66876Q197.08139 390.2 197.08139 390.84064Q197.08139 391.9344 196.37827 392.7Q195.69077 393.45 193.86264 393.45L191.65952 393.45L191.65952 396.95L190.51889 396.95ZM191.65952 392.45L193.87827 392.45Q194.98764 392.45 195.44077 392.04376Q195.90952 391.6219 195.90952 390.8719Q195.90952 390.34064 195.62827 389.96564Q195.36264 389.575 194.92514 389.45Q194.62827 389.3719 193.86264 389.3719L191.65952 389.3719L191.65952 392.45ZM202.06577 396.95L201.01889 396.95L201.01889 390.23126Q200.62827 390.59064 200.00327 390.96564Q199.39389 391.325 198.90952 391.4969L198.90952 390.48126Q199.78452 390.0594 200.44077 389.48126Q201.11264 388.8875 201.39389 388.325L202.06577 388.325L202.06577 396.95ZM210.56577 390.46564L209.51889 390.54376Q209.37827 389.91876 209.12827 389.6375Q208.69077 389.1844 208.06577 389.1844Q207.56577 389.1844 207.17514 389.46564Q206.69077 389.84064 206.39389 390.54376Q206.11264 391.23126 206.09702 392.5125Q206.47202 391.9344 207.01889 391.65314Q207.58139 391.3719 208.19077 391.3719Q209.23764 391.3719 209.97202 392.15314Q210.72202 392.9344 210.72202 394.15314Q210.72202 394.96564 210.36264 395.66876Q210.01889 396.35626 209.40952 396.73126Q208.80014 397.09064 208.03452 397.09064Q206.70639 397.09064 205.87827 396.1219Q205.05014 395.15314 205.05014 392.9344Q205.05014 390.4344 205.97202 389.3094Q206.76889 388.325 208.12827 388.325Q209.14389 388.325 209.78452 388.90314Q210.44077 389.46564 210.56577 390.46564ZM206.26889 394.16876Q206.26889 394.71564 206.48764 395.21564Q206.72202 395.7 207.12827 395.96564Q207.55014 396.23126 208.01889 396.23126Q208.67514 396.23126 209.15952 395.7Q209.64389 395.15314 209.64389 394.23126Q209.64389 393.34064 209.15952 392.825Q208.69077 392.3094 207.97202 392.3094Q207.25327 392.3094 206.75327 392.825Q206.26889 393.34064 206.26889 394.16876Z" fill-rule="nonzero"/><path fill="#000000" d="M359.60938 396.95L359.60938 389.3719L356.78125 389.3719L356.78125 388.35626L363.59375 388.35626L363.59375 389.3719L360.75 389.3719L360.75 396.95L359.60938 396.95ZM364.48438 396.95L364.48438 388.35626L370.28125 388.35626L370.28125 389.3719L365.625 389.3719L365.625 392.02814L369.65625 392.02814L369.65625 393.04376L365.625 393.04376L365.625 396.95L364.48438 396.95ZM371.0 394.6844L372.0625 394.54376Q372.23438 395.4344 372.67188 395.84064Q373.10938 396.23126 373.73438 396.23126Q374.48438 396.23126 375.0 395.71564Q375.51562 395.2 375.51562 394.4344Q375.51562 393.71564 375.03125 393.2469Q374.5625 392.7625 373.82812 392.7625Q373.53125 392.7625 373.07812 392.8875L373.20312 391.95Q373.3125 391.96564 373.375 391.96564Q374.04688 391.96564 374.57812 391.6219Q375.125 391.2625 375.125 390.52814Q375.125 389.95 374.73438 389.575Q374.34375 389.1844 373.71875 389.1844Q373.10938 389.1844 372.6875 389.575Q372.28125 389.96564 372.17188 390.73126L371.10938 390.54376Q371.29688 389.4969 371.98438 388.91876Q372.67188 388.325 373.6875 388.325Q374.39062 388.325 374.98438 388.6375Q375.57812 388.9344 375.89062 389.45Q376.20312 389.96564 376.20312 390.5594Q376.20312 391.10626 375.90625 391.575Q375.60938 392.02814 375.03125 392.29376Q375.78125 392.46564 376.20312 393.02814Q376.625 393.575 376.625 394.41876Q376.625 395.54376 375.79688 396.325Q374.98438 397.10626 373.73438 397.10626Q372.60938 397.10626 371.85938 396.4344Q371.10938 395.7469 371.0 394.6844ZM383.54688 395.9344L383.54688 396.95L377.85938 396.95Q377.85938 396.575 377.98438 396.21564Q378.20312 395.6375 378.67188 395.075Q379.15625 394.5125 380.0625 393.77814Q381.46875 392.6219 381.95312 391.95Q382.45312 391.27814 382.45312 390.6844Q382.45312 390.0594 382.0 389.6375Q381.54688 389.2 380.82812 389.2Q380.0625 389.2 379.60938 389.65314Q379.15625 390.10626 379.14062 390.91876L378.0625 390.8094Q378.17188 389.59064 378.89062 388.96564Q379.625 388.325 380.85938 388.325Q382.09375 388.325 382.8125 389.0125Q383.53125 389.7 383.53125 390.71564Q383.53125 391.23126 383.3125 391.73126Q383.10938 392.21564 382.60938 392.77814Q382.125 393.325 381.0 394.27814Q380.04688 395.075 379.76562 395.3719Q379.5 395.65314 379.32812 395.9344L383.54688 395.9344Z" fill-rule="nonzero"/><path fill="#000000" d="M530.3874 396.95L530.3874 388.35626L536.18427 388.35626L536.18427 389.3719L531.528 389.3719L531.528 392.02814L535.55927 392.02814L535.55927 393.04376L531.528 393.04376L531.528 396.95L530.3874 396.95ZM537.3249 396.95L537.3249 388.35626L540.5749 388.35626Q541.41864 388.35626 541.87177 388.4344Q542.5124 388.54376 542.93427 388.84064Q543.37177 389.1375 543.62177 389.66876Q543.8874 390.2 543.8874 390.84064Q543.8874 391.9344 543.18427 392.7Q542.49677 393.45 540.66864 393.45L538.4655 393.45L538.4655 396.95L537.3249 396.95ZM538.4655 392.45L540.68427 392.45Q541.79364 392.45 542.24677 392.04376Q542.7155 391.6219 542.7155 390.8719Q542.7155 390.34064 542.43427 389.96564Q542.16864 389.575 541.73114 389.45Q541.43427 389.3719 540.66864 389.3719L538.4655 389.3719L538.4655 392.45ZM544.903 394.6844L545.9655 394.54376Q546.1374 395.4344 546.5749 395.84064Q547.0124 396.23126 547.6374 396.23126Q548.3874 396.23126 548.903 395.71564Q549.41864 395.2 549.41864 394.4344Q549.41864 393.71564 548.93427 393.2469Q548.4655 392.7625 547.73114 392.7625Q547.43427 392.7625 546.98114 392.8875L547.10614 391.95Q547.2155 391.96564 547.278 391.96564Q547.9499 391.96564 548.48114 391.6219Q549.028 391.2625 549.028 390.52814Q549.028 389.95 548.6374 389.575Q548.24677 389.1844 547.62177 389.1844Q547.0124 389.1844 546.5905 389.575Q546.18427 389.96564 546.0749 390.73126L545.0124 390.54376Q545.1999 389.4969 545.8874 388.91876Q546.5749 388.325 547.5905 388.325Q548.29364 388.325 548.8874 388.6375Q549.48114 388.9344 549.79364 389.45Q550.10614 389.96564 550.10614 390.5594Q550.10614 391.10626 549.80927 391.575Q549.5124 392.02814 548.93427 392.29376Q549.68427 392.46564 550.10614 393.02814Q550.528 393.575 550.528 394.41876Q550.528 395.54376 549.6999 396.325Q548.8874 397.10626 547.6374 397.10626Q546.5124 397.10626 545.7624 396.4344Q545.0124 395.7469 544.903 394.6844ZM557.4499 395.9344L557.4499 396.95L551.7624 396.95Q551.7624 396.575 551.8874 396.21564Q552.10614 395.6375 552.5749 395.075Q553.05927 394.5125 553.9655 393.77814Q555.37177 392.6219 555.85614 391.95Q556.35614 391.27814 556.35614 390.6844Q556.35614 390.0594 555.903 389.6375Q555.4499 389.2 554.73114 389.2Q553.9655 389.2 553.5124 389.65314Q553.05927 390.10626 553.04364 390.91876L551.9655 390.8094Q552.0749 389.59064 552.79364 388.96564Q553.528 388.325 554.7624 388.325Q555.99677 388.325 556.7155 389.0125Q557.43427 389.7 557.43427 390.71564Q557.43427 391.23126 557.2155 391.73126Q557.0124 392.21564 556.5124 392.77814Q556.028 393.325 554.903 394.27814Q553.9499 395.075 553.66864 395.3719Q553.403 395.65314 553.23114 395.9344L557.4499 395.9344Z" fill-rule="nonzero"/><path fill="#4285f4" d="M167.0 61.083332C167.0 60.531048 167.44771 60.083332 168.0 60.083332L178.0 60.083332C178.55229 60.083332 179.0 60.531048 179.0 61.083332L179.0 71.083336C179.0 71.63562 178.55229 72.083336 178.0 72.083336L168.0 72.083336C167.44771 72.083336 167.0 71.63562 167.0 71.083336Z" fill-rule="nonzero"/><path fill="#1a1a1a" d="M187.9375 70.083336L187.9375 61.489586L191.75 61.489586Q192.90625 61.489586 193.5 61.72396Q194.09375 61.958336 194.45312 62.552086Q194.8125 63.13021 194.8125 63.833336Q194.8125 64.75521 194.21875 65.38021Q193.625 66.00521 192.39062 66.177086Q192.84375 66.395836 193.07812 66.59896Q193.57812 67.052086 194.01562 67.739586L195.51562 70.083336L194.07812 70.083336L192.95312 68.302086Q192.45312 67.520836 192.125 67.114586Q191.8125 66.708336 191.54688 66.552086Q191.29688 66.38021 191.03125 66.302086Q190.84375 66.270836 190.40625 66.270836L189.07812 66.270836L189.07812 70.083336L187.9375 70.083336ZM189.07812 65.28646L191.53125 65.28646Q192.29688 65.28646 192.73438 65.13021Q193.1875 64.958336 193.40625 64.614586Q193.64062 64.25521 193.64062 63.833336Q193.64062 63.22396 193.1875 62.833336Q192.75 62.44271 191.79688 62.44271L189.07812 62.44271L189.07812 65.28646ZM199.10938 70.083336L199.10938 62.50521L196.28125 62.50521L196.28125 61.489586L203.09375 61.489586L203.09375 62.50521L200.25 62.50521L200.25 70.083336L199.10938 70.083336ZM203.04688 70.083336L206.375 65.59896L203.45312 61.489586L204.79688 61.489586L206.35938 63.69271Q206.84375 64.38021 207.04688 64.75521Q207.34375 64.28646 207.73438 63.770836L209.45312 61.489586L210.6875 61.489586L207.67188 65.53646L210.92188 70.083336L209.51562 70.083336L207.35938 67.020836Q207.17188 66.75521 206.98438 66.44271Q206.70312 66.91146 206.57812 67.083336L204.42188 70.083336L203.04688 70.083336ZM214.5 67.81771L215.5625 67.677086Q215.73438 68.56771 216.17188 68.97396Q216.60938 69.364586 217.23438 69.364586Q217.98438 69.364586 218.5 68.84896Q219.01562 68.333336 219.01562 67.56771Q219.01562 66.84896 218.53125 66.38021Q218.0625 65.895836 217.32812 65.895836Q217.03125 65.895836 216.57812 66.020836L216.70312 65.083336Q216.8125 65.09896 216.875 65.09896Q217.54688 65.09896 218.07812 64.75521Q218.625 64.395836 218.625 63.66146Q218.625 63.083336 218.23438 62.708336Q217.84375 62.31771 217.21875 62.31771Q216.60938 62.31771 216.1875 62.708336Q215.78125 63.09896 215.67188 63.864586L214.60938 63.677086Q214.79688 62.63021 215.48438 62.052086Q216.17188 61.458336 217.1875 61.458336Q217.89062 61.458336 218.48438 61.770836Q219.07812 62.06771 219.39062 62.583336Q219.70312 63.09896 219.70312 63.69271Q219.70312 64.239586 219.40625 64.708336Q219.10938 65.16146 218.53125 65.427086Q219.28125 65.59896 219.70312 66.16146Q220.125 66.708336 220.125 67.552086Q220.125 68.677086 219.29688 69.458336Q218.48438 70.239586 217.23438 70.239586Q216.10938 70.239586 215.35938 69.56771Q214.60938 68.88021 214.5 67.81771ZM221.5 65.84896Q221.5 64.31771 221.8125 63.395836Q222.125 62.458336 222.73438 61.958336Q223.35938 61.458336 224.29688 61.458336Q224.98438 61.458336 225.5 61.739586Q226.03125 62.020836 226.375 62.552086Q226.71875 63.06771 226.90625 63.81771Q227.09375 64.56771 227.09375 65.84896Q227.09375 67.364586 226.78125 68.28646Q226.48438 69.208336 225.85938 69.72396Q225.25 70.22396 224.29688 70.22396Q223.0625 70.22396 222.34375 69.333336Q221.5 68.270836 221.5 65.84896ZM222.57812 65.84896Q222.57812 67.958336 223.07812 68.66146Q223.57812 69.364586 224.29688 69.364586Q225.03125 69.364586 225.51562 68.66146Q226.01562 67.958336 226.01562 65.84896Q226.01562 63.72396 225.51562 63.03646Q225.03125 62.333336 224.28125 62.333336Q223.5625 62.333336 223.125 62.94271Q222.57812 63.72396 222.57812 65.84896ZM228.65625 68.09896L229.67188 68.00521Q229.79688 68.72396 230.15625 69.052086Q230.53125 69.364586 231.09375 69.364586Q231.57812 69.364586 231.9375 69.145836Q232.3125 68.91146 232.54688 68.552086Q232.78125 68.177086 232.9375 67.552086Q233.09375 66.91146 233.09375 66.25521Q233.09375 66.177086 233.09375 66.03646Q232.78125 66.53646 232.23438 66.864586Q231.6875 67.177086 231.04688 67.177086Q229.96875 67.177086 229.23438 66.41146Q228.5 65.63021 228.5 64.364586Q228.5 63.052086 229.26562 62.25521Q230.04688 61.458336 231.20312 61.458336Q232.03125 61.458336 232.71875 61.91146Q233.42188 62.364586 233.78125 63.208336Q234.14062 64.03646 234.14062 65.614586Q234.14062 67.25521 233.78125 68.239586Q233.4375 69.208336 232.71875 69.72396Q232.01562 70.22396 231.07812 70.22396Q230.0625 70.22396 229.42188 69.677086Q228.78125 69.114586 228.65625 68.09896ZM232.96875 64.302086Q232.96875 63.395836 232.48438 62.864586Q232.01562 62.333336 231.32812 62.333336Q230.625 62.333336 230.09375 62.91146Q229.57812 63.47396 229.57812 64.395836Q229.57812 65.208336 230.07812 65.72396Q230.57812 66.239586 231.29688 66.239586Q232.03125 66.239586 232.5 65.72396Q232.96875 65.208336 232.96875 64.302086ZM235.5 65.84896Q235.5 64.31771 235.8125 63.395836Q236.125 62.458336 236.73438 61.958336Q237.35938 61.458336 238.29688 61.458336Q238.98438 61.458336 239.5 61.739586Q240.03125 62.020836 240.375 62.552086Q240.71875 63.06771 240.90625 63.81771Q241.09375 64.56771 241.09375 65.84896Q241.09375 67.364586 240.78125 68.28646Q240.48438 69.208336 239.85938 69.72396Q239.25 70.22396 238.29688 70.22396Q237.0625 70.22396 236.34375 69.333336Q235.5 68.270836 235.5 65.84896ZM236.57812 65.84896Q236.57812 67.958336 237.07812 68.66146Q237.57812 69.364586 238.29688 69.364586Q239.03125 69.364586 239.51562 68.66146Q240.01562 67.958336 240.01562 65.84896Q240.01562 63.72396 239.51562 63.03646Q239.03125 62.333336 238.28125 62.333336Q237.5625 62.333336 237.125 62.94271Q236.57812 63.72396 236.57812 65.84896Z" fill-rule="nonzero"/><path fill="#ea4335" d="M258.0 61.083332C258.0 60.531048 258.44772 60.083332 259.0 60.083332L269.0 60.083332C269.55228 60.083332 270.0 60.531048 270.0 61.083332L270.0 71.083336C270.0 71.63562 269.55228 72.083336 269.0 72.083336L259.0 72.083336C258.44772 72.083336 258.0 71.63562 258.0 71.083336Z" fill-rule="nonzero"/><path fill="#1a1a1a" d="M281.10938 70.083336L281.10938 62.50521L278.28125 62.50521L278.28125 61.489586L285.09375 61.489586L285.09375 62.50521L282.25 62.50521L282.25 70.083336L281.10938 70.083336ZM285.79688 62.708336L285.79688 61.489586L286.85938 61.489586L286.85938 62.708336L285.79688 62.708336ZM285.79688 70.083336L285.79688 63.864586L286.85938 63.864586L286.85938 70.083336L285.79688 70.083336ZM291.09375 69.145836L291.25 70.06771Q290.79688 70.16146 290.45312 70.16146Q289.875 70.16146 289.5625 69.989586Q289.25 69.802086 289.10938 69.50521Q288.98438 69.208336 288.98438 68.25521L288.98438 64.677086L288.21875 64.677086L288.21875 63.864586L288.98438 63.864586L288.98438 62.31771L290.03125 61.69271L290.03125 63.864586L291.09375 63.864586L291.09375 64.677086L290.03125 64.677086L290.03125 68.31771Q290.03125 68.770836 290.07812 68.895836Q290.14062 69.020836 290.26562 69.09896Q290.39062 69.177086 290.625 69.177086Q290.8125 69.177086 291.09375 69.145836ZM295.85938 69.31771Q295.26562 69.81771 294.71875 70.020836Q294.1875 70.22396 293.5625 70.22396Q292.53125 70.22396 291.98438 69.72396Q291.4375 69.22396 291.4375 68.44271Q291.4375 67.989586 291.64062 67.614586Q291.84375 67.22396 292.1875 67.00521Q292.53125 66.770836 292.95312 66.66146Q293.25 66.56771 293.89062 66.489586Q295.15625 66.34896 295.76562 66.13021Q295.76562 65.91146 295.76562 65.864586Q295.76562 65.208336 295.46875 64.94271Q295.0625 64.59896 294.26562 64.59896Q293.53125 64.59896 293.17188 64.864586Q292.8125 65.114586 292.64062 65.770836L291.60938 65.63021Q291.75 64.97396 292.07812 64.56771Q292.40625 64.16146 293.01562 63.94271Q293.625 63.72396 294.42188 63.72396Q295.21875 63.72396 295.71875 63.91146Q296.21875 64.09896 296.45312 64.38021Q296.6875 64.66146 296.78125 65.09896Q296.82812 65.364586 296.82812 66.06771L296.82812 67.47396Q296.82812 68.94271 296.89062 69.333336Q296.96875 69.72396 297.17188 70.083336L296.0625 70.083336Q295.90625 69.75521 295.85938 69.31771ZM295.76562 66.958336Q295.1875 67.19271 294.04688 67.364586Q293.39062 67.458336 293.125 67.583336Q292.85938 67.69271 292.70312 67.91146Q292.5625 68.13021 292.5625 68.41146Q292.5625 68.833336 292.875 69.114586Q293.20312 69.395836 293.8125 69.395836Q294.42188 69.395836 294.89062 69.13021Q295.375 68.864586 295.59375 68.395836Q295.76562 68.03646 295.76562 67.34896L295.76562 66.958336ZM298.79688 70.083336L298.79688 63.864586L299.73438 63.864586L299.73438 64.739586Q300.42188 63.72396 301.71875 63.72396Q302.28125 63.72396 302.75 63.927086Q303.23438 64.13021 303.46875 64.458336Q303.70312 64.78646 303.79688 65.22396Q303.84375 65.520836 303.84375 66.25521L303.84375 70.083336L302.79688 70.083336L302.79688 66.302086Q302.79688 65.645836 302.67188 65.333336Q302.54688 65.020836 302.23438 64.833336Q301.92188 64.63021 301.5 64.63021Q300.82812 64.63021 300.32812 65.06771Q299.84375 65.489586 299.84375 66.677086L299.84375 70.083336L298.79688 70.083336ZM308.9375 70.083336L308.9375 61.489586L312.75 61.489586Q313.90625 61.489586 314.5 61.72396Q315.09375 61.958336 315.45312 62.552086Q315.8125 63.13021 315.8125 63.833336Q315.8125 64.75521 315.21875 65.38021Q314.625 66.00521 313.39062 66.177086Q313.84375 66.395836 314.07812 66.59896Q314.57812 67.052086 315.01562 67.739586L316.51562 70.083336L315.07812 70.083336L313.95312 68.302086Q313.45312 67.520836 313.125 67.114586Q312.8125 66.708336 312.54688 66.552086Q312.29688 66.38021 312.03125 66.302086Q311.84375 66.270836 311.40625 66.270836L310.07812 66.270836L310.07812 70.083336L308.9375 70.083336ZM310.07812 65.28646L312.53125 65.28646Q313.29688 65.28646 313.73438 65.13021Q314.1875 64.958336 314.40625 64.614586Q314.64062 64.25521 314.64062 63.833336Q314.64062 63.22396 314.1875 62.833336Q313.75 62.44271 312.79688 62.44271L310.07812 62.44271L310.07812 65.28646ZM320.10938 70.083336L320.10938 62.50521L317.28125 62.50521L317.28125 61.489586L324.09375 61.489586L324.09375 62.50521L321.25 62.50521L321.25 70.083336L320.10938 70.083336ZM324.04688 70.083336L327.375 65.59896L324.45312 61.489586L325.79688 61.489586L327.35938 63.69271Q327.84375 64.38021 328.04688 64.75521Q328.34375 64.28646 328.73438 63.770836L330.45312 61.489586L331.6875 61.489586L328.67188 65.53646L331.92188 70.083336L330.51562 70.083336L328.35938 67.020836Q328.17188 66.75521 327.98438 66.44271Q327.70312 66.91146 327.57812 67.083336L325.42188 70.083336L324.04688 70.083336ZM337.8125 72.614586Q336.9375 71.50521 336.32812 70.03646Q335.73438 68.552086 335.73438 66.97396Q335.73438 65.583336 336.17188 64.302086Q336.70312 62.81771 337.8125 61.34896L338.5625 61.34896Q337.85938 62.56771 337.625 63.083336Q337.26562 63.895836 337.0625 64.770836Q336.8125 65.864586 336.8125 66.97396Q336.8125 69.802086 338.5625 72.614586L337.8125 72.614586ZM339.92188 70.083336L339.92188 61.489586L342.89062 61.489586Q343.89062 61.489586 344.42188 61.614586Q345.15625 61.78646 345.67188 62.22396Q346.35938 62.802086 346.6875 63.708336Q347.03125 64.59896 347.03125 65.739586Q347.03125 66.72396 346.79688 67.47396Q346.57812 68.22396 346.21875 68.72396Q345.85938 69.22396 345.42188 69.50521Q345.0 69.78646 344.40625 69.94271Q343.8125 70.083336 343.03125 70.083336L339.92188 70.083336ZM341.0625 69.06771L342.89062 69.06771Q343.75 69.06771 344.23438 68.91146Q344.71875 68.75521 345.0 68.458336Q345.40625 68.06771 345.625 67.38021Q345.85938 66.69271 345.85938 65.72396Q345.85938 64.38021 345.40625 63.66146Q344.96875 62.927086 344.34375 62.677086Q343.875 62.50521 342.875 62.50521L341.0625 62.50521L341.0625 69.06771ZM353.04688 68.083336L354.14062 68.208336Q353.89062 69.16146 353.1875 69.69271Q352.48438 70.22396 351.40625 70.22396Q350.04688 70.22396 349.23438 69.38021Q348.4375 68.53646 348.4375 67.020836Q348.4375 65.458336 349.25 64.59896Q350.0625 63.72396 351.34375 63.72396Q352.59375 63.72396 353.375 64.56771Q354.17188 65.41146 354.17188 66.958336Q354.17188 67.052086 354.17188 67.239586L349.53125 67.239586Q349.59375 68.270836 350.10938 68.81771Q350.625 69.34896 351.40625 69.34896Q351.98438 69.34896 352.39062 69.052086Q352.8125 68.739586 353.04688 68.083336ZM349.59375 66.38021L353.0625 66.38021Q353.0 65.583336 352.67188 65.19271Q352.15625 64.583336 351.35938 64.583336Q350.625 64.583336 350.125 65.06771Q349.64062 65.552086 349.59375 66.38021ZM356.04688 70.083336L356.04688 64.677086L355.10938 64.677086L355.10938 63.864586L356.04688 63.864586L356.04688 63.19271Q356.04688 62.56771 356.15625 62.270836Q356.3125 61.84896 356.6875 61.59896Q357.07812 61.34896 357.76562 61.34896Q358.21875 61.34896 358.75 61.458336L358.59375 62.364586Q358.26562 62.31771 357.96875 62.31771Q357.48438 62.31771 357.28125 62.520836Q357.09375 62.72396 357.09375 63.28646L357.09375 63.864586L358.3125 63.864586L358.3125 64.677086L357.09375 64.677086L357.09375 70.083336L356.04688 70.083336ZM362.85938 69.31771Q362.26562 69.81771 361.71875 70.020836Q361.1875 70.22396 360.5625 70.22396Q359.53125 70.22396 358.98438 69.72396Q358.4375 69.22396 358.4375 68.44271Q358.4375 67.989586 358.64062 67.614586Q358.84375 67.22396 359.1875 67.00521Q359.53125 66.770836 359.95312 66.66146Q360.25 66.56771 360.89062 66.489586Q362.15625 66.34896 362.76562 66.13021Q362.76562 65.91146 362.76562 65.864586Q362.76562 65.208336 362.46875 64.94271Q362.0625 64.59896 361.26562 64.59896Q360.53125 64.59896 360.17188 64.864586Q359.8125 65.114586 359.64062 65.770836L358.60938 65.63021Q358.75 64.97396 359.07812 64.56771Q359.40625 64.16146 360.01562 63.94271Q360.625 63.72396 361.42188 63.72396Q362.21875 63.72396 362.71875 63.91146Q363.21875 64.09896 363.45312 64.38021Q363.6875 64.66146 363.78125 65.09896Q363.82812 65.364586 363.82812 66.06771L363.82812 67.47396Q363.82812 68.94271 363.89062 69.333336Q363.96875 69.72396 364.17188 70.083336L363.0625 70.083336Q362.90625 69.75521 362.85938 69.31771ZM362.76562 66.958336Q362.1875 67.19271 361.04688 67.364586Q360.39062 67.458336 360.125 67.583336Q359.85938 67.69271 359.70312 67.91146Q359.5625 68.13021 359.5625 68.41146Q359.5625 68.833336 359.875 69.114586Q360.20312 69.395836 360.8125 69.395836Q361.42188 69.395836 361.89062 69.13021Q362.375 68.864586 362.59375 68.395836Q362.76562 68.03646 362.76562 67.34896L362.76562 66.958336ZM369.875 70.083336L369.875 69.16146Q369.14062 70.22396 367.89062 70.22396Q367.34375 70.22396 366.85938 70.020836Q366.39062 69.802086 366.15625 69.489586Q365.92188 69.16146 365.82812 68.69271Q365.76562 68.395836 365.76562 67.708336L365.76562 63.864586L366.82812 63.864586L366.82812 67.31771Q366.82812 68.13021 366.89062 68.427086Q366.98438 68.833336 367.29688 69.083336Q367.625 69.31771 368.10938 69.31771Q368.57812 69.31771 368.98438 69.083336Q369.40625 68.833336 369.57812 68.41146Q369.76562 67.989586 369.76562 67.19271L369.76562 63.864586L370.8125 63.864586L370.8125 70.083336L369.875 70.083336ZM372.76562 70.083336L372.76562 61.489586L373.82812 61.489586L373.82812 70.083336L372.76562 70.083336ZM378.09375 69.145836L378.25 70.06771Q377.79688 70.16146 377.45312 70.16146Q376.875 70.16146 376.5625 69.989586Q376.25 69.802086 376.10938 69.50521Q375.98438 69.208336 375.98438 68.25521L375.98438 64.677086L375.21875 64.677086L375.21875 63.864586L375.98438 63.864586L375.98438 62.31771L377.03125 61.69271L377.03125 63.864586L378.09375 63.864586L378.09375 64.677086L377.03125 64.677086L377.03125 68.31771Q377.03125 68.770836 377.07812 68.895836Q377.14062 69.020836 377.26562 69.09896Q377.39062 69.177086 377.625 69.177086Q377.8125 69.177086 378.09375 69.145836ZM379.48438 72.614586L378.73438 72.614586Q380.48438 69.802086 380.48438 66.97396Q380.48438 65.88021 380.23438 64.78646Q380.03125 63.91146 379.67188 63.09896Q379.4375 62.583336 378.73438 61.34896L379.48438 61.34896Q380.57812 62.81771 381.10938 64.302086Q381.5625 65.583336 381.5625 66.97396Q381.5625 68.552086 380.95312 70.03646Q380.34375 71.50521 379.48438 72.614586Z" fill-rule="nonzero"/><path fill="#fbbc04" d="M398.0 61.083332C398.0 60.531048 398.44772 60.083332 399.0 60.083332L409.0 60.083332C409.55228 60.083332 410.0 60.531048 410.0 61.083332L410.0 71.083336C410.0 71.63562 409.55228 72.083336 409.0 72.083336L399.0 72.083336C398.44772 72.083336 398.0 71.63562 398.0 71.083336Z" fill-rule="nonzero"/><path fill="#1a1a1a" d="M421.10938 70.083336L421.10938 62.50521L418.28125 62.50521L418.28125 61.489586L425.09375 61.489586L425.09375 62.50521L422.25 62.50521L422.25 70.083336L421.10938 70.083336ZM425.79688 62.708336L425.79688 61.489586L426.85938 61.489586L426.85938 62.708336L425.79688 62.708336ZM425.79688 70.083336L425.79688 63.864586L426.85938 63.864586L426.85938 70.083336L425.79688 70.083336ZM431.09375 69.145836L431.25 70.06771Q430.79688 70.16146 430.45312 70.16146Q429.875 70.16146 429.5625 69.989586Q429.25 69.802086 429.10938 69.50521Q428.98438 69.208336 428.98438 68.25521L428.98438 64.677086L428.21875 64.677086L428.21875 63.864586L428.98438 63.864586L428.98438 62.31771L430.03125 61.69271L430.03125 63.864586L431.09375 63.864586L431.09375 64.677086L430.03125 64.677086L430.03125 68.31771Q430.03125 68.770836 430.07812 68.895836Q430.14062 69.020836 430.26562 69.09896Q430.39062 69.177086 430.625 69.177086Q430.8125 69.177086 431.09375 69.145836ZM435.85938 69.31771Q435.26562 69.81771 434.71875 70.020836Q434.1875 70.22396 433.5625 70.22396Q432.53125 70.22396 431.98438 69.72396Q431.4375 69.22396 431.4375 68.44271Q431.4375 67.989586 431.64062 67.614586Q431.84375 67.22396 432.1875 67.00521Q432.53125 66.770836 432.95312 66.66146Q433.25 66.56771 433.89062 66.489586Q435.15625 66.34896 435.76562 66.13021Q435.76562 65.91146 435.76562 65.864586Q435.76562 65.208336 435.46875 64.94271Q435.0625 64.59896 434.26562 64.59896Q433.53125 64.59896 433.17188 64.864586Q432.8125 65.114586 432.64062 65.770836L431.60938 65.63021Q431.75 64.97396 432.07812 64.56771Q432.40625 64.16146 433.01562 63.94271Q433.625 63.72396 434.42188 63.72396Q435.21875 63.72396 435.71875 63.91146Q436.21875 64.09896 436.45312 64.38021Q436.6875 64.66146 436.78125 65.09896Q436.82812 65.364586 436.82812 66.06771L436.82812 67.47396Q436.82812 68.94271 436.89062 69.333336Q436.96875 69.72396 437.17188 70.083336L436.0625 70.083336Q435.90625 69.75521 435.85938 69.31771ZM435.76562 66.958336Q435.1875 67.19271 434.04688 67.364586Q433.39062 67.458336 433.125 67.583336Q432.85938 67.69271 432.70312 67.91146Q432.5625 68.13021 432.5625 68.41146Q432.5625 68.833336 432.875 69.114586Q433.20312 69.395836 433.8125 69.395836Q434.42188 69.395836 434.89062 69.13021Q435.375 68.864586 435.59375 68.395836Q435.76562 68.03646 435.76562 67.34896L435.76562 66.958336ZM438.79688 70.083336L438.79688 63.864586L439.73438 63.864586L439.73438 64.739586Q440.42188 63.72396 441.71875 63.72396Q442.28125 63.72396 442.75 63.927086Q443.23438 64.13021 443.46875 64.458336Q443.70312 64.78646 443.79688 65.22396Q443.84375 65.520836 443.84375 66.25521L443.84375 70.083336L442.79688 70.083336L442.79688 66.302086Q442.79688 65.645836 442.67188 65.333336Q442.54688 65.020836 442.23438 64.833336Q441.92188 64.63021 441.5 64.63021Q440.82812 64.63021 440.32812 65.06771Q439.84375 65.489586 439.84375 66.677086L439.84375 70.083336L438.79688 70.083336ZM448.9375 70.083336L448.9375 61.489586L452.75 61.489586Q453.90625 61.489586 454.5 61.72396Q455.09375 61.958336 455.45312 62.552086Q455.8125 63.13021 455.8125 63.833336Q455.8125 64.75521 455.21875 65.38021Q454.625 66.00521 453.39062 66.177086Q453.84375 66.395836 454.07812 66.59896Q454.57812 67.052086 455.01562 67.739586L456.51562 70.083336L455.07812 70.083336L453.95312 68.302086Q453.45312 67.520836 453.125 67.114586Q452.8125 66.708336 452.54688 66.552086Q452.29688 66.38021 452.03125 66.302086Q451.84375 66.270836 451.40625 66.270836L450.07812 66.270836L450.07812 70.083336L448.9375 70.083336ZM450.07812 65.28646L452.53125 65.28646Q453.29688 65.28646 453.73438 65.13021Q454.1875 64.958336 454.40625 64.614586Q454.64062 64.25521 454.64062 63.833336Q454.64062 63.22396 454.1875 62.833336Q453.75 62.44271 452.79688 62.44271L450.07812 62.44271L450.07812 65.28646ZM460.10938 70.083336L460.10938 62.50521L457.28125 62.50521L457.28125 61.489586L464.09375 61.489586L464.09375 62.50521L461.25 62.50521L461.25 70.083336L460.10938 70.083336ZM464.04688 70.083336L467.375 65.59896L464.45312 61.489586L465.79688 61.489586L467.35938 63.69271Q467.84375 64.38021 468.04688 64.75521Q468.34375 64.28646 468.73438 63.770836L470.45312 61.489586L471.6875 61.489586L468.67188 65.53646L471.92188 70.083336L470.51562 70.083336L468.35938 67.020836Q468.17188 66.75521 467.98438 66.44271Q467.70312 66.91146 467.57812 67.083336L465.42188 70.083336L464.04688 70.083336ZM477.8125 72.614586Q476.9375 71.50521 476.32812 70.03646Q475.73438 68.552086 475.73438 66.97396Q475.73438 65.583336 476.17188 64.302086Q476.70312 62.81771 477.8125 61.34896L478.5625 61.34896Q477.85938 62.56771 477.625 63.083336Q477.26562 63.895836 477.0625 64.770836Q476.8125 65.864586 476.8125 66.97396Q476.8125 69.802086 478.5625 72.614586L477.8125 72.614586ZM479.5 67.81771L480.5625 67.677086Q480.73438 68.56771 481.17188 68.97396Q481.60938 69.364586 482.23438 69.364586Q482.98438 69.364586 483.5 68.84896Q484.01562 68.333336 484.01562 67.56771Q484.01562 66.84896 483.53125 66.38021Q483.0625 65.895836 482.32812 65.895836Q482.03125 65.895836 481.57812 66.020836L481.70312 65.083336Q481.8125 65.09896 481.875 65.09896Q482.54688 65.09896 483.07812 64.75521Q483.625 64.395836 483.625 63.66146Q483.625 63.083336 483.23438 62.708336Q482.84375 62.31771 482.21875 62.31771Q481.60938 62.31771 481.1875 62.708336Q480.78125 63.09896 480.67188 63.864586L479.60938 63.677086Q479.79688 62.63021 480.48438 62.052086Q481.17188 61.458336 482.1875 61.458336Q482.89062 61.458336 483.48438 61.770836Q484.07812 62.06771 484.39062 62.583336Q484.70312 63.09896 484.70312 63.69271Q484.70312 64.239586 484.40625 64.708336Q484.10938 65.16146 483.53125 65.427086Q484.28125 65.59896 484.70312 66.16146Q485.125 66.708336 485.125 67.552086Q485.125 68.677086 484.29688 69.458336Q483.48438 70.239586 482.23438 70.239586Q481.10938 70.239586 480.35938 69.56771Q479.60938 68.88021 479.5 67.81771ZM492.04688 69.06771L492.04688 70.083336L486.35938 70.083336Q486.35938 69.708336 486.48438 69.34896Q486.70312 68.770836 487.17188 68.208336Q487.65625 67.645836 488.5625 66.91146Q489.96875 65.75521 490.45312 65.083336Q490.95312 64.41146 490.95312 63.81771Q490.95312 63.19271 490.5 62.770836Q490.04688 62.333336 489.32812 62.333336Q488.5625 62.333336 488.10938 62.78646Q487.65625 63.239586 487.64062 64.052086L486.5625 63.94271Q486.67188 62.72396 487.39062 62.09896Q488.125 61.458336 489.35938 61.458336Q490.59375 61.458336 491.3125 62.145836Q492.03125 62.833336 492.03125 63.84896Q492.03125 64.364586 491.8125 64.864586Q491.60938 65.34896 491.10938 65.91146Q490.625 66.458336 489.5 67.41146Q488.54688 68.208336 488.26562 68.50521Q488.0 68.78646 487.82812 69.06771L492.04688 69.06771ZM493.5 65.84896Q493.5 64.31771 493.8125 63.395836Q494.125 62.458336 494.73438 61.958336Q495.35938 61.458336 496.29688 61.458336Q496.98438 61.458336 497.5 61.739586Q498.03125 62.020836 498.375 62.552086Q498.71875 63.06771 498.90625 63.81771Q499.09375 64.56771 499.09375 65.84896Q499.09375 67.364586 498.78125 68.28646Q498.48438 69.208336 497.85938 69.72396Q497.25 70.22396 496.29688 70.22396Q495.0625 70.22396 494.34375 69.333336Q493.5 68.270836 493.5 65.84896ZM494.57812 65.84896Q494.57812 67.958336 495.07812 68.66146Q495.57812 69.364586 496.29688 69.364586Q497.03125 69.364586 497.51562 68.66146Q498.01562 67.958336 498.01562 65.84896Q498.01562 63.72396 497.51562 63.03646Q497.03125 62.333336 496.28125 62.333336Q495.5625 62.333336 495.125 62.94271Q494.57812 63.72396 494.57812 65.84896ZM502.42188 70.083336L500.14062 61.489586L501.3125 61.489586L502.625 67.13021Q502.82812 68.00521 502.98438 68.88021Q503.3125 67.50521 503.375 67.28646L505.0 61.489586L506.375 61.489586L507.60938 65.833336Q508.0625 67.458336 508.28125 68.88021Q508.4375 68.06771 508.70312 67.00521L510.04688 61.489586L511.1875 61.489586L508.84375 70.083336L507.73438 70.083336L505.9375 63.53646Q505.70312 62.72396 505.65625 62.53646Q505.53125 63.114586 505.40625 63.53646L503.59375 70.083336L502.42188 70.083336ZM512.4844 72.614586L511.73438 72.614586Q513.4844 69.802086 513.4844 66.97396Q513.4844 65.88021 513.2344 64.78646Q513.03125 63.91146 512.6719 63.09896Q512.4375 62.583336 511.73438 61.34896L512.4844 61.34896Q513.5781 62.81771 514.1094 64.302086Q514.5625 65.583336 514.5625 66.97396Q514.5625 68.552086 513.9531 70.03646Q513.34375 71.50521 512.4844 72.614586Z" fill-rule="nonzero"/><path fill="#757575" d="M22.628124 40.05L22.628124 25.7375L28.971874 25.7375Q30.878124 25.7375 31.878124 26.128124Q32.878124 26.503124 33.471874 27.4875Q34.065624 28.45625 34.065624 29.64375Q34.065624 31.159374 33.08125 32.20625Q32.096874 33.253124 30.034374 33.534374Q30.784374 33.89375 31.175 34.253124Q32.003124 35.003124 32.753124 36.159374L35.2375 40.05L32.8625 40.05L30.95625 37.065624Q30.128124 35.784374 29.596874 35.096874Q29.065624 34.409374 28.628124 34.14375Q28.20625 33.8625 27.76875 33.753124Q27.440624 33.690624 26.721874 33.690624L24.51875 33.690624L24.51875 40.05L22.628124 40.05ZM24.51875 32.05L28.596874 32.05Q29.89375 32.05 30.6125 31.784374Q31.346874 31.51875 31.721874 30.925Q32.1125 30.33125 32.1125 29.64375Q32.1125 28.628124 31.378124 27.971874Q30.64375 27.315624 29.05 27.315624L24.51875 27.315624L24.51875 32.05ZM40.2375 40.05L40.2375 27.425L35.51875 27.425L35.51875 25.7375L46.8625 25.7375L46.8625 27.425L42.128124 27.425L42.128124 40.05L40.2375 40.05ZM47.14375 40.05L52.675 32.58125L47.8 25.7375L50.05 25.7375L52.64375 29.409374Q53.45625 30.55 53.8 31.159374Q54.284374 30.378124 54.925 29.534374L57.815624 25.7375L59.878124 25.7375L54.846874 32.4875L60.26875 40.05L57.925 40.05L54.315624 34.940624Q54.01875 34.503124 53.690624 33.9875Q53.20625 34.76875 53.003124 35.065624L49.409374 40.05L47.14375 40.05ZM66.89375 36.26875L68.64375 36.034374Q68.95625 37.534374 69.675 38.190624Q70.40938 38.846874 71.45625 38.846874Q72.69063 38.846874 73.53438 37.9875Q74.39375 37.128124 74.39375 35.8625Q74.39375 34.64375 73.59688 33.8625Q72.81563 33.08125 71.59688 33.08125Q71.09688 33.08125 70.3625 33.26875L70.55 31.721874Q70.72188 31.753124 70.83125 31.753124Q71.95625 31.753124 72.84688 31.175Q73.75313 30.58125 73.75313 29.3625Q73.75313 28.39375 73.09688 27.753124Q72.44063 27.1125 71.40938 27.1125Q70.39375 27.1125 69.70625 27.76875Q69.01875 28.409374 68.83125 29.690624L67.06563 29.378124Q67.39375 27.6125 68.53438 26.64375Q69.675 25.675 71.37813 25.675Q72.55 25.675 73.53438 26.175Q74.51875 26.675 75.03438 27.55Q75.56563 28.425 75.56563 29.39375Q75.56563 30.315624 75.06563 31.08125Q74.56563 31.846874 73.59688 32.3Q74.8625 32.58125 75.56563 33.51875Q76.26875 34.440624 76.26875 35.815624Q76.26875 37.690624 74.89375 39.003124Q73.53438 40.3 71.44063 40.3Q69.55 40.3 68.3 39.175Q67.06563 38.05 66.89375 36.26875ZM77.87813 32.9875Q77.87813 30.45625 78.39375 28.909374Q78.925 27.346874 79.95625 26.51875Q80.9875 25.675 82.55 25.675Q83.70625 25.675 84.56563 26.14375Q85.44063 26.596874 86.00313 27.471874Q86.56563 28.346874 86.89375 29.6125Q87.22188 30.8625 87.22188 32.9875Q87.22188 35.503124 86.69063 37.05Q86.175 38.596874 85.14375 39.45625Q84.12813 40.3 82.55 40.3Q80.47188 40.3 79.3 38.815624Q77.87813 37.01875 77.87813 32.9875ZM79.69063 32.9875Q79.69063 36.51875 80.50313 37.690624Q81.33125 38.846874 82.55 38.846874Q83.75313 38.846874 84.58125 37.675Q85.40938 36.503124 85.40938 32.9875Q85.40938 29.45625 84.58125 28.3Q83.75313 27.128124 82.53438 27.128124Q81.31563 27.128124 80.59688 28.159374Q79.69063 29.45625 79.69063 32.9875ZM89.14375 36.7375L90.83125 36.58125Q91.05 37.76875 91.64375 38.315624Q92.25313 38.846874 93.20625 38.846874Q94.01875 38.846874 94.62813 38.4875Q95.2375 38.1125 95.62813 37.4875Q96.01875 36.8625 96.28438 35.815624Q96.55 34.753124 96.55 33.659374Q96.55 33.55 96.53438 33.315624Q96.00313 34.14375 95.09688 34.675Q94.19063 35.190624 93.1125 35.190624Q91.34688 35.190624 90.1125 33.909374Q88.87813 32.6125 88.87813 30.503124Q88.87813 28.33125 90.15938 27.003124Q91.45625 25.675 93.37813 25.675Q94.78438 25.675 95.94063 26.425Q97.09688 27.175 97.69063 28.565624Q98.3 29.95625 98.3 32.596874Q98.3 35.346874 97.69063 36.971874Q97.09688 38.596874 95.925 39.45625Q94.75313 40.3 93.175 40.3Q91.4875 40.3 90.425 39.3625Q89.3625 38.425 89.14375 36.7375ZM96.34688 30.425Q96.34688 28.909374 95.53438 28.01875Q94.7375 27.128124 93.59688 27.128124Q92.425 27.128124 91.55 28.096874Q90.69063 29.05 90.69063 30.565624Q90.69063 31.940624 91.50313 32.8Q92.33125 33.64375 93.55 33.64375Q94.76875 33.64375 95.55 32.8Q96.34688 31.940624 96.34688 30.425ZM99.87813 32.9875Q99.87813 30.45625 100.39375 28.909374Q100.925 27.346874 101.95625 26.51875Q102.9875 25.675 104.55 25.675Q105.70625 25.675 106.56563 26.14375Q107.44063 26.596874 108.00313 27.471874Q108.56563 28.346874 108.89375 29.6125Q109.22188 30.8625 109.22188 32.9875Q109.22188 35.503124 108.69063 37.05Q108.175 38.596874 107.14375 39.45625Q106.12813 40.3 104.55 40.3Q102.47188 40.3 101.3 38.815624Q99.87813 37.01875 99.87813 32.9875ZM101.69063 32.9875Q101.69063 36.51875 102.50313 37.690624Q103.33125 38.846874 104.55 38.846874Q105.75313 38.846874 106.58125 37.675Q107.40938 36.503124 107.40938 32.9875Q107.40938 29.45625 106.58125 28.3Q105.75313 27.128124 104.53438 27.128124Q103.31563 27.128124 102.59688 28.159374Q101.69063 29.45625 101.69063 32.9875ZM120.25313 40.05L116.3 29.675L118.15938 29.675L120.39375 35.89375Q120.75313 36.89375 121.05 37.971874Q121.28438 37.159374 121.70625 36.003124L124.00313 29.675L125.81563 29.675L121.89375 40.05L120.25313 40.05ZM126.65938 36.95625L128.40938 36.675Q128.55 37.721874 129.22188 38.284374Q129.89375 38.83125 131.09688 38.83125Q132.3 38.83125 132.87813 38.346874Q133.47188 37.846874 133.47188 37.190624Q133.47188 36.596874 132.95625 36.253124Q132.59688 36.01875 131.15938 35.659374Q129.22188 35.159374 128.47188 34.815624Q127.7375 34.45625 127.34688 33.83125Q126.95625 33.190624 126.95625 32.425Q126.95625 31.7375 127.26875 31.14375Q127.59688 30.55 128.14375 30.159374Q128.55 29.8625 129.25313 29.659374Q129.97188 29.440624 130.78438 29.440624Q132.00313 29.440624 132.925 29.8Q133.84688 30.14375 134.28438 30.753124Q134.72188 31.346874 134.89375 32.346874L133.175 32.58125Q133.05 31.784374 132.4875 31.346874Q131.925 30.89375 130.90938 30.89375Q129.69063 30.89375 129.175 31.3Q128.65938 31.690624 128.65938 32.221874Q128.65938 32.565624 128.87813 32.846874Q129.08125 33.128124 129.55 33.315624Q129.81563 33.409374 131.09688 33.753124Q132.97188 34.253124 133.70625 34.58125Q134.44063 34.89375 134.8625 35.503124Q135.28438 36.096874 135.28438 37.003124Q135.28438 37.878124 134.76875 38.659374Q134.25313 39.440624 133.28438 39.8625Q132.31563 40.284374 131.09688 40.284374Q129.08125 40.284374 128.01875 39.440624Q126.95625 38.596874 126.65938 36.95625ZM147.2375 40.05L147.2375 27.425L142.51875 27.425L142.51875 25.7375L153.8625 25.7375L153.8625 27.425L149.12813 27.425L149.12813 40.05L147.2375 40.05ZM155.37813 27.753124L155.37813 25.7375L157.14375 25.7375L157.14375 27.753124L155.37813 27.753124ZM155.37813 40.05L155.37813 29.675L157.14375 29.675L157.14375 40.05L155.37813 40.05ZM163.20625 38.471874L163.45625 40.034374Q162.72188 40.190624 162.12813 40.190624Q161.175 40.190624 160.64375 39.89375Q160.12813 39.58125 159.90938 39.096874Q159.69063 38.596874 159.69063 37.01875L159.69063 31.05L158.40938 31.05L158.40938 29.675L159.69063 29.675L159.69063 27.1125L161.44063 26.05L161.44063 29.675L163.20625 29.675L163.20625 31.05L161.44063 31.05L161.44063 37.1125Q161.44063 37.8625 161.53438 38.08125Q161.62813 38.284374 161.83125 38.425Q162.05 38.55 162.44063 38.55Q162.72188 38.55 163.20625 38.471874ZM172.14375 38.76875Q171.15938 39.596874 170.25313 39.940624Q169.34688 40.284374 168.31563 40.284374Q166.6125 40.284374 165.69063 39.45625Q164.76875 38.6125 164.76875 37.315624Q164.76875 36.55 165.1125 35.925Q165.47188 35.3 166.03438 34.925Q166.59688 34.534374 167.3 34.33125Q167.81563 34.20625 168.8625 34.065624Q170.9875 33.815624 171.9875 33.471874Q172.00313 33.1125 172.00313 33.003124Q172.00313 31.940624 171.50313 31.4875Q170.83125 30.89375 169.50313 30.89375Q168.25313 30.89375 167.65938 31.33125Q167.08125 31.76875 166.8 32.878124L165.08125 32.64375Q165.31563 31.534374 165.84688 30.8625Q166.37813 30.175 167.39375 29.815624Q168.40938 29.440624 169.75313 29.440624Q171.08125 29.440624 171.90938 29.753124Q172.7375 30.065624 173.12813 30.55Q173.51875 31.01875 173.675 31.7375Q173.76875 32.190624 173.76875 33.3625L173.76875 35.70625Q173.76875 38.159374 173.87813 38.815624Q173.9875 39.45625 174.33125 40.05L172.4875 40.05Q172.22188 39.503124 172.14375 38.76875ZM171.9875 34.846874Q171.03438 35.2375 169.1125 35.503124Q168.03438 35.659374 167.58125 35.8625Q167.14375 36.05 166.89375 36.425Q166.64375 36.8 166.64375 37.26875Q166.64375 37.971874 167.175 38.440624Q167.70625 38.909374 168.7375 38.909374Q169.75313 38.909374 170.53438 38.471874Q171.33125 38.01875 171.70625 37.253124Q171.9875 36.64375 171.9875 35.4875L171.9875 34.846874ZM176.3625 40.05L176.3625 29.675L177.95625 29.675L177.95625 31.159374Q179.09688 29.440624 181.25313 29.440624Q182.19063 29.440624 182.97188 29.784374Q183.76875 30.1125 184.15938 30.659374Q184.55 31.20625 184.70625 31.95625Q184.8 32.45625 184.8 33.675L184.8 40.05L183.03438 40.05L183.03438 33.7375Q183.03438 32.659374 182.83125 32.128124Q182.62813 31.596874 182.09688 31.284374Q181.58125 30.971874 180.87813 30.971874Q179.75313 30.971874 178.94063 31.690624Q178.12813 32.39375 178.12813 34.378124L178.12813 40.05L176.3625 40.05ZM193.62813 40.05L193.62813 25.7375L199.97188 25.7375Q201.87813 25.7375 202.87813 26.128124Q203.87813 26.503124 204.47188 27.4875Q205.06563 28.45625 205.06563 29.64375Q205.06563 31.159374 204.08125 32.20625Q203.09688 33.253124 201.03438 33.534374Q201.78438 33.89375 202.175 34.253124Q203.00313 35.003124 203.75313 36.159374L206.2375 40.05L203.8625 40.05L201.95625 37.065624Q201.12813 35.784374 200.59688 35.096874Q200.06563 34.409374 199.62813 34.14375Q199.20625 33.8625 198.76875 33.753124Q198.44063 33.690624 197.72188 33.690624L195.51875 33.690624L195.51875 40.05L193.62813 40.05ZM195.51875 32.05L199.59688 32.05Q200.89375 32.05 201.6125 31.784374Q202.34688 31.51875 202.72188 30.925Q203.1125 30.33125 203.1125 29.64375Q203.1125 28.628124 202.37813 27.971874Q201.64375 27.315624 200.05 27.315624L195.51875 27.315624L195.51875 32.05ZM211.2375 40.05L211.2375 27.425L206.51875 27.425L206.51875 25.7375L217.8625 25.7375L217.8625 27.425L213.12813 27.425L213.12813 40.05L211.2375 40.05ZM218.14375 40.05L223.675 32.58125L218.8 25.7375L221.05 25.7375L223.64375 29.409374Q224.45625 30.55 224.8 31.159374Q225.28438 30.378124 225.925 29.534374L228.81563 25.7375L230.87813 25.7375L225.84688 32.4875L231.26875 40.05L228.925 40.05L225.31563 34.940624Q225.01875 34.503124 224.69063 33.9875Q224.20625 34.76875 224.00313 35.065624L220.40938 40.05L218.14375 40.05ZM238.53438 40.05L238.53438 25.7375L241.39375 25.7375L244.76875 35.8625Q245.2375 37.284374 245.45625 37.9875Q245.70625 37.20625 246.22188 35.690624L249.64375 25.7375L252.19063 25.7375L252.19063 40.05L250.37813 40.05L250.37813 28.065624L246.20625 40.05L244.50313 40.05L240.3625 27.8625L240.3625 40.05L238.53438 40.05ZM255.58125 40.05L255.58125 25.7375L257.51874 25.7375L265.03436 36.971874L265.03436 25.7375L266.84686 25.7375L266.84686 40.05L264.90936 40.05L257.39374 28.8L257.39374 40.05L255.58125 40.05ZM269.51874 40.05L269.51874 25.7375L271.40936 25.7375L271.40936 38.3625L278.45624 38.3625L278.45624 40.05L269.51874 40.05ZM280.90936 40.05L280.90936 25.7375L282.8156 25.7375L282.8156 40.05L280.90936 40.05ZM296.2375 40.05L296.2375 27.425L291.51874 27.425L291.51874 25.7375L302.8625 25.7375L302.8625 27.425L298.1281 27.425L298.1281 40.05L296.2375 40.05ZM304.34686 40.05L304.34686 29.675L305.925 29.675L305.925 31.253124Q306.53436 30.14375 307.05 29.8Q307.5656 29.440624 308.175 29.440624Q309.0656 29.440624 309.9875 30.003124L309.3781 31.64375Q308.7375 31.253124 308.09686 31.253124Q307.51874 31.253124 307.05 31.6125Q306.59686 31.95625 306.39374 32.565624Q306.1125 33.503124 306.1125 34.6125L306.1125 40.05L304.34686 40.05ZM318.14374 38.76875Q317.15936 39.596874 316.2531 39.940624Q315.34686 40.284374 314.3156 40.284374Q312.6125 40.284374 311.6906 39.45625Q310.76874 38.6125 310.76874 37.315624Q310.76874 36.55 311.1125 35.925Q311.47186 35.3 312.03436 34.925Q312.59686 34.534374 313.3 34.33125Q313.8156 34.20625 314.8625 34.065624Q316.9875 33.815624 317.9875 33.471874Q318.0031 33.1125 318.0031 33.003124Q318.0031 31.940624 317.5031 31.4875Q316.83124 30.89375 315.5031 30.89375Q314.2531 30.89375 313.65936 31.33125Q313.08124 31.76875 312.8 32.878124L311.08124 32.64375Q311.3156 31.534374 311.84686 30.8625Q312.3781 30.175 313.39374 29.815624Q314.40936 29.440624 315.7531 29.440624Q317.08124 29.440624 317.90936 29.753124Q318.7375 30.065624 319.1281 30.55Q319.51874 31.01875 319.675 31.7375Q319.76874 32.190624 319.76874 33.3625L319.76874 35.70625Q319.76874 38.159374 319.8781 38.815624Q319.9875 39.45625 320.33124 40.05L318.4875 40.05Q318.22186 39.503124 318.14374 38.76875ZM317.9875 34.846874Q317.03436 35.2375 315.1125 35.503124Q314.03436 35.659374 313.58124 35.8625Q313.14374 36.05 312.89374 36.425Q312.64374 36.8 312.64374 37.26875Q312.64374 37.971874 313.175 38.440624Q313.70624 38.909374 314.7375 38.909374Q315.7531 38.909374 316.53436 38.471874Q317.33124 38.01875 317.70624 37.253124Q317.9875 36.64375 317.9875 35.4875L317.9875 34.846874ZM322.3625 40.05L322.3625 29.675L323.95624 29.675L323.95624 31.159374Q325.09686 29.440624 327.2531 29.440624Q328.1906 29.440624 328.97186 29.784374Q329.76874 30.1125 330.15936 30.659374Q330.55 31.20625 330.70624 31.95625Q330.8 32.45625 330.8 33.675L330.8 40.05L329.03436 40.05L329.03436 33.7375Q329.03436 32.659374 328.83124 32.128124Q328.6281 31.596874 328.09686 31.284374Q327.58124 30.971874 326.8781 30.971874Q325.7531 30.971874 324.9406 31.690624Q324.1281 32.39375 324.1281 34.378124L324.1281 40.05L322.3625 40.05ZM332.65936 36.95625L334.40936 36.675Q334.55 37.721874 335.22186 38.284374Q335.89374 38.83125 337.09686 38.83125Q338.3 38.83125 338.8781 38.346874Q339.47186 37.846874 339.47186 37.190624Q339.47186 36.596874 338.95624 36.253124Q338.59686 36.01875 337.15936 35.659374Q335.22186 35.159374 334.47186 34.815624Q333.7375 34.45625 333.34686 33.83125Q332.95624 33.190624 332.95624 32.425Q332.95624 31.7375 333.26874 31.14375Q333.59686 30.55 334.14374 30.159374Q334.55 29.8625 335.2531 29.659374Q335.97186 29.440624 336.78436 29.440624Q338.0031 29.440624 338.925 29.8Q339.84686 30.14375 340.28436 30.753124Q340.72186 31.346874 340.89374 32.346874L339.175 32.58125Q339.05 31.784374 338.4875 31.346874Q337.925 30.89375 336.90936 30.89375Q335.6906 30.89375 335.175 31.3Q334.65936 31.690624 334.65936 32.221874Q334.65936 32.565624 334.8781 32.846874Q335.08124 33.128124 335.55 33.315624Q335.8156 33.409374 337.09686 33.753124Q338.97186 34.253124 339.70624 34.58125Q340.4406 34.89375 340.8625 35.503124Q341.28436 36.096874 341.28436 37.003124Q341.28436 37.878124 340.76874 38.659374Q340.2531 39.440624 339.28436 39.8625Q338.3156 40.284374 337.09686 40.284374Q335.08124 40.284374 334.01874 39.440624Q332.95624 38.596874 332.65936 36.95625ZM343.78436 40.05L343.78436 31.05L342.2375 31.05L342.2375 29.675L343.78436 29.675L343.78436 28.58125Q343.78436 27.534374 343.97186 27.01875Q344.22186 26.33125 344.8625 25.909374Q345.5031 25.4875 346.65936 25.4875Q347.40936 25.4875 348.3 25.659374L348.03436 27.190624Q347.4875 27.096874 347.0031 27.096874Q346.20624 27.096874 345.8625 27.440624Q345.53436 27.784374 345.53436 28.721874L345.53436 29.675L347.5656 29.675L347.5656 31.05L345.53436 31.05L345.53436 40.05L343.78436 40.05ZM348.72186 34.8625Q348.72186 31.9875 350.3156 30.596874Q351.65936 29.440624 353.58124 29.440624Q355.72186 29.440624 357.0656 30.846874Q358.425 32.253124 358.425 34.721874Q358.425 36.721874 357.83124 37.878124Q357.2375 39.01875 356.08124 39.659374Q354.9406 40.284374 353.58124 40.284374Q351.39374 40.284374 350.05 38.89375Q348.72186 37.4875 348.72186 34.8625ZM350.51874 34.8625Q350.51874 36.8625 351.3781 37.846874Q352.2531 38.83125 353.58124 38.83125Q354.89374 38.83125 355.7531 37.846874Q356.6281 36.846874 356.6281 34.8Q356.6281 32.878124 355.7531 31.89375Q354.8781 30.89375 353.58124 30.89375Q352.2531 30.89375 351.3781 31.89375Q350.51874 32.878124 350.51874 34.8625ZM360.34686 40.05L360.34686 29.675L361.925 29.675L361.925 31.253124Q362.53436 30.14375 363.05 29.8Q363.5656 29.440624 364.175 29.440624Q365.0656 29.440624 365.9875 30.003124L365.3781 31.64375Q364.7375 31.253124 364.09686 31.253124Q363.51874 31.253124 363.05 31.6125Q362.59686 31.95625 362.39374 32.565624Q362.1125 33.503124 362.1125 34.6125L362.1125 40.05L360.34686 40.05ZM367.3625 40.05L367.3625 29.675L368.9406 29.675L368.9406 31.128124Q369.425 30.378124 370.2375 29.909374Q371.05 29.440624 372.08124 29.440624Q373.2375 29.440624 373.97186 29.925Q374.70624 30.39375 375.01874 31.253124Q376.2531 29.440624 378.22186 29.440624Q379.76874 29.440624 380.59686 30.3Q381.425 31.159374 381.425 32.925L381.425 40.05L379.675 40.05L379.675 33.51875Q379.675 32.45625 379.5031 32.003124Q379.33124 31.534374 378.8781 31.253124Q378.4406 30.971874 377.83124 30.971874Q376.7375 30.971874 376.0031 31.70625Q375.28436 32.425 375.28436 34.01875L375.28436 40.05L373.53436 40.05L373.53436 33.315624Q373.53436 32.14375 373.09686 31.565624Q372.675 30.971874 371.6906 30.971874Q370.95624 30.971874 370.3156 31.3625Q369.6906 31.753124 369.40936 32.503124Q369.1281 33.253124 369.1281 34.675L369.1281 40.05L367.3625 40.05ZM391.47186 36.70625L393.28436 36.940624Q392.8625 38.51875 391.6906 39.409374Q390.53436 40.284374 388.72186 40.284374Q386.45624 40.284374 385.1125 38.89375Q383.78436 37.4875 383.78436 34.95625Q383.78436 32.33125 385.1281 30.89375Q386.47186 29.440624 388.6281 29.440624Q390.70624 29.440624 392.01874 30.8625Q393.34686 32.26875 393.34686 34.846874Q393.34686 35.003124 393.33124 35.315624L385.59686 35.315624Q385.6906 37.01875 386.5656 37.925Q387.4406 38.83125 388.7375 38.83125Q389.70624 38.83125 390.3781 38.33125Q391.0656 37.815624 391.47186 36.70625ZM385.6906 33.8625L391.4875 33.8625Q391.3781 32.565624 390.83124 31.909374Q389.9875 30.89375 388.64374 30.89375Q387.4406 30.89375 386.6125 31.70625Q385.78436 32.503124 385.6906 33.8625ZM395.34686 40.05L395.34686 29.675L396.925 29.675L396.925 31.253124Q397.53436 30.14375 398.05 29.8Q398.5656 29.440624 399.175 29.440624Q400.0656 29.440624 400.9875 30.003124L400.3781 31.64375Q399.7375 31.253124 399.09686 31.253124Q398.51874 31.253124 398.05 31.6125Q397.59686 31.95625 397.39374 32.565624Q397.1125 33.503124 397.1125 34.6125L397.1125 40.05L395.34686 40.05ZM408.6906 40.05L408.6906 25.7375L418.34686 25.7375L418.34686 27.425L410.58124 27.425L410.58124 31.8625L417.3 31.8625L417.3 33.55L410.58124 33.55L410.58124 40.05L408.6906 40.05ZM420.3781 27.753124L420.3781 25.7375L422.14374 25.7375L422.14374 27.753124L420.3781 27.753124ZM420.3781 40.05L420.3781 29.675L422.14374 29.675L422.14374 40.05L420.3781 40.05ZM424.3625 40.05L424.3625 29.675L425.95624 29.675L425.95624 31.159374Q427.09686 29.440624 429.2531 29.440624Q430.1906 29.440624 430.97186 29.784374Q431.76874 30.1125 432.15936 30.659374Q432.55 31.20625 432.70624 31.95625Q432.8 32.45625 432.8 33.675L432.8 40.05L431.03436 40.05L431.03436 33.7375Q431.03436 32.659374 430.83124 32.128124Q430.6281 31.596874 430.09686 31.284374Q429.58124 30.971874 428.8781 30.971874Q427.7531 30.971874 426.9406 31.690624Q426.1281 32.39375 426.1281 34.378124L426.1281 40.05L424.3625 40.05ZM442.47186 36.70625L444.28436 36.940624Q443.8625 38.51875 442.6906 39.409374Q441.53436 40.284374 439.72186 40.284374Q437.45624 40.284374 436.1125 38.89375Q434.78436 37.4875 434.78436 34.95625Q434.78436 32.33125 436.1281 30.89375Q437.47186 29.440624 439.6281 29.440624Q441.70624 29.440624 443.01874 30.8625Q444.34686 32.26875 444.34686 34.846874Q444.34686 35.003124 444.33124 35.315624L436.59686 35.315624Q436.6906 37.01875 437.5656 37.925Q438.4406 38.83125 439.7375 38.83125Q440.70624 38.83125 441.3781 38.33125Q442.0656 37.815624 442.47186 36.70625ZM436.6906 33.8625L442.4875 33.8625Q442.3781 32.565624 441.83124 31.909374Q440.9875 30.89375 439.64374 30.89375Q438.4406 30.89375 437.6125 31.70625Q436.78436 32.503124 436.6906 33.8625ZM456.2375 40.05L456.2375 27.425L451.51874 27.425L451.51874 25.7375L462.8625 25.7375L462.8625 27.425L458.1281 27.425L458.1281 40.05L456.2375 40.05ZM471.15936 40.05L471.15936 38.51875Q469.95624 40.284374 467.8781 40.284374Q466.95624 40.284374 466.15936 39.940624Q465.3625 39.58125 464.97186 39.05Q464.59686 38.51875 464.4406 37.7375Q464.33124 37.221874 464.33124 36.096874L464.33124 29.675L466.08124 29.675L466.08124 35.425Q466.08124 36.8 466.1906 37.284374Q466.3625 37.971874 466.89374 38.378124Q467.4406 38.76875 468.22186 38.76875Q469.01874 38.76875 469.70624 38.3625Q470.40936 37.95625 470.6906 37.26875Q470.9875 36.565624 470.9875 35.2375L470.9875 29.675L472.7375 29.675L472.7375 40.05L471.15936 40.05ZM475.3625 40.05L475.3625 29.675L476.95624 29.675L476.95624 31.159374Q478.09686 29.440624 480.2531 29.440624Q481.1906 29.440624 481.97186 29.784374Q482.76874 30.1125 483.15936 30.659374Q483.55 31.20625 483.70624 31.95625Q483.8 32.45625 483.8 33.675L483.8 40.05L482.03436 40.05L482.03436 33.7375Q482.03436 32.659374 481.83124 32.128124Q481.6281 31.596874 481.09686 31.284374Q480.58124 30.971874 479.8781 30.971874Q478.7531 30.971874 477.9406 31.690624Q477.1281 32.39375 477.1281 34.378124L477.1281 40.05L475.3625 40.05ZM486.3781 27.753124L486.3781 25.7375L488.14374 25.7375L488.14374 27.753124L486.3781 27.753124ZM486.3781 40.05L486.3781 29.675L488.14374 29.675L488.14374 40.05L486.3781 40.05ZM490.3625 40.05L490.3625 29.675L491.95624 29.675L491.95624 31.159374Q493.09686 29.440624 495.2531 29.440624Q496.1906 29.440624 496.97186 29.784374Q497.76874 30.1125 498.15936 30.659374Q498.55 31.20625 498.70624 31.95625Q498.8 32.45625 498.8 33.675L498.8 40.05L497.03436 40.05L497.03436 33.7375Q497.03436 32.659374 496.83124 32.128124Q496.6281 31.596874 496.09686 31.284374Q495.58124 30.971874 494.8781 30.971874Q493.7531 30.971874 492.9406 31.690624Q492.1281 32.39375 492.1281 34.378124L492.1281 40.05L490.3625 40.05ZM501.05 40.909374L502.7531 41.159374Q502.8625 41.95625 503.34686 42.315624Q504.0031 42.8 505.14374 42.8Q506.3625 42.8 507.01874 42.315624Q507.6906 41.83125 507.925 40.95625Q508.0656 40.409374 508.05 38.690624Q506.89374 40.05 505.175 40.05Q503.03436 40.05 501.8625 38.503124Q500.6906 36.95625 500.6906 34.8Q500.6906 33.315624 501.22186 32.065624Q501.76874 30.815624 502.78436 30.128124Q503.8156 29.440624 505.1906 29.440624Q507.01874 29.440624 508.22186 30.925L508.22186 29.675L509.83124 29.675L509.83124 38.64375Q509.83124 41.065624 509.33124 42.065624Q508.84686 43.08125 507.76874 43.659374Q506.70624 44.253124 505.14374 44.253124Q503.3 44.253124 502.14374 43.425Q501.0031 42.596874 501.05 40.909374ZM502.5031 34.675Q502.5031 36.721874 503.3156 37.659374Q504.1281 38.596874 505.34686 38.596874Q506.55 38.596874 507.3625 37.659374Q508.1906 36.721874 508.1906 34.7375Q508.1906 32.83125 507.34686 31.8625Q506.5031 30.89375 505.3156 30.89375Q504.14374 30.89375 503.3156 31.846874Q502.5031 32.8 502.5031 34.675ZM521.72186 44.253124Q520.26874 42.425 519.26874 39.971874Q518.26874 37.503124 518.26874 34.8625Q518.26874 32.534374 519.01874 30.409374Q519.89374 27.940624 521.72186 25.4875L522.9875 25.4875Q521.8 27.51875 521.425 28.39375Q520.83124 29.7375 520.4875 31.20625Q520.0656 33.034374 520.0656 34.878124Q520.0656 39.565624 522.9875 44.253124L521.72186 44.253124ZM526.9875 40.05L525.3625 40.05L525.3625 25.7375L527.1125 25.7375L527.1125 30.846874Q528.2375 29.440624 529.95624 29.440624Q530.90936 29.440624 531.76874 29.83125Q532.6281 30.221874 533.175 30.925Q533.72186 31.6125 534.03436 32.596874Q534.34686 33.58125 534.34686 34.70625Q534.34686 37.378124 533.03436 38.83125Q531.72186 40.284374 529.8781 40.284374Q528.03436 40.284374 526.9875 38.753124L526.9875 40.05ZM526.97186 34.784374Q526.97186 36.64375 527.47186 37.4875Q528.3156 38.83125 529.72186 38.83125Q530.8781 38.83125 531.70624 37.83125Q532.55 36.83125 532.55 34.846874Q532.55 32.815624 531.7375 31.8625Q530.9406 30.89375 529.8 30.89375Q528.64374 30.89375 527.8 31.89375Q526.97186 32.89375 526.97186 34.784374ZM535.65936 36.95625L537.40936 36.675Q537.55 37.721874 538.22186 38.284374Q538.89374 38.83125 540.09686 38.83125Q541.3 38.83125 541.8781 38.346874Q542.47186 37.846874 542.47186 37.190624Q542.47186 36.596874 541.95624 36.253124Q541.59686 36.01875 540.15936 35.659374Q538.22186 35.159374 537.47186 34.815624Q536.7375 34.45625 536.34686 33.83125Q535.95624 33.190624 535.95624 32.425Q535.95624 31.7375 536.26874 31.14375Q536.59686 30.55 537.14374 30.159374Q537.55 29.8625 538.2531 29.659374Q538.97186 29.440624 539.78436 29.440624Q541.0031 29.440624 541.925 29.8Q542.84686 30.14375 543.28436 30.753124Q543.72186 31.346874 543.89374 32.346874L542.175 32.58125Q542.05 31.784374 541.4875 31.346874Q540.925 30.89375 539.90936 30.89375Q538.6906 30.89375 538.175 31.3Q537.65936 31.690624 537.65936 32.221874Q537.65936 32.565624 537.8781 32.846874Q538.08124 33.128124 538.55 33.315624Q538.8156 33.409374 540.09686 33.753124Q541.97186 34.253124 542.70624 34.58125Q543.4406 34.89375 543.8625 35.503124Q544.28436 36.096874 544.28436 37.003124Q544.28436 37.878124 543.76874 38.659374Q543.2531 39.440624 542.28436 39.8625Q541.3156 40.284374 540.09686 40.284374Q538.08124 40.284374 537.01874 39.440624Q535.95624 38.596874 535.65936 36.95625ZM555.6125 31.628124L546.15936 31.628124L546.15936 29.9875L555.6125 29.9875L555.6125 31.628124ZM555.6125 35.971874L546.15936 35.971874L546.15936 34.33125L555.6125 34.33125L555.6125 35.971874ZM557.89374 36.26875L559.64374 36.034374Q559.95624 37.534374 560.675 38.190624Q561.40936 38.846874 562.45624 38.846874Q563.6906 38.846874 564.53436 37.9875Q565.39374 37.128124 565.39374 35.8625Q565.39374 34.64375 564.59686 33.8625Q563.8156 33.08125 562.59686 33.08125Q562.09686 33.08125 561.3625 33.26875L561.55 31.721874Q561.72186 31.753124 561.83124 31.753124Q562.95624 31.753124 563.84686 31.175Q564.7531 30.58125 564.7531 29.3625Q564.7531 28.39375 564.09686 27.753124Q563.4406 27.1125 562.40936 27.1125Q561.39374 27.1125 560.70624 27.76875Q560.01874 28.409374 559.83124 29.690624L558.0656 29.378124Q558.39374 27.6125 559.53436 26.64375Q560.675 25.675 562.3781 25.675Q563.55 25.675 564.53436 26.175Q565.51874 26.675 566.03436 27.55Q566.5656 28.425 566.5656 29.39375Q566.5656 30.315624 566.0656 31.08125Q565.5656 31.846874 564.59686 32.3Q565.8625 32.58125 566.5656 33.51875Q567.26874 34.440624 567.26874 35.815624Q567.26874 37.690624 565.89374 39.003124Q564.53436 40.3 562.4406 40.3Q560.55 40.3 559.3 39.175Q558.0656 38.05 557.89374 36.26875ZM571.58124 32.284374Q570.4875 31.878124 569.95624 31.14375Q569.4406 30.39375 569.4406 29.3625Q569.4406 27.8 570.5656 26.7375Q571.6906 25.675 573.55 25.675Q575.425 25.675 576.5656 26.76875Q577.70624 27.846874 577.70624 29.409374Q577.70624 30.409374 577.175 31.14375Q576.65936 31.878124 575.59686 32.284374Q576.925 32.721874 577.6125 33.675Q578.3 34.628124 578.3 35.95625Q578.3 37.8 576.9875 39.05Q575.6906 40.3 573.58124 40.3Q571.45624 40.3 570.15936 39.05Q568.8625 37.784374 568.8625 35.909374Q568.8625 34.51875 569.5656 33.58125Q570.28436 32.628124 571.58124 32.284374ZM571.2375 29.3Q571.2375 30.315624 571.89374 30.971874Q572.55 31.6125 573.58124 31.6125Q574.59686 31.6125 575.2531 30.971874Q575.90936 30.33125 575.90936 29.409374Q575.90936 28.440624 575.2375 27.784374Q574.5656 27.1125 573.5656 27.1125Q572.5656 27.1125 571.89374 27.76875Q571.2375 28.409374 571.2375 29.3ZM570.675 35.925Q570.675 36.675 571.01874 37.378124Q571.3781 38.08125 572.08124 38.471874Q572.78436 38.846874 573.59686 38.846874Q574.8625 38.846874 575.675 38.034374Q576.5031 37.221874 576.5031 35.971874Q576.5031 34.70625 575.65936 33.878124Q574.8156 33.05 573.53436 33.05Q572.3 33.05 571.4875 33.878124Q570.675 34.690624 570.675 35.925ZM585.51874 40.05L585.51874 36.628124L579.3 36.628124L579.3 35.003124L585.83124 25.7375L587.26874 25.7375L587.26874 35.003124L589.20624 35.003124L589.20624 36.628124L587.26874 36.628124L587.26874 40.05L585.51874 40.05ZM585.51874 35.003124L585.51874 28.55L581.03436 35.003124L585.51874 35.003124ZM592.51874 44.253124L591.26874 44.253124Q594.175 39.565624 594.175 34.878124Q594.175 33.034374 593.76874 31.2375Q593.425 29.76875 592.83124 28.425Q592.45624 27.534374 591.26874 25.4875L592.51874 25.4875Q594.3625 27.940624 595.2375 30.409374Q595.9875 32.534374 595.9875 34.8625Q595.9875 37.503124 594.97186 39.971874Q593.97186 42.425 592.51874 44.253124Z" fill-rule="nonzero"/></svg>