<svg version="1.1" viewBox="0.0 0.0 641.0 397.0" fill="none" stroke="none" stroke-linecap="square" stroke-miterlimit="10" width="641" height="397" xmlns:xlink="http://www.w3.org/1999/xlink" xmlns="http://www.w3.org/2000/svg"><path fill="#ffffff" d="M0 0L641.0 0L641.0 397.0L0 397.0L0 0Z" fill-rule="nonzero"/><path stroke="#333333" stroke-width="1.0" stroke-linecap="butt" d="M78.5 357.5L621.5 357.5" fill-rule="nonzero"/><path stroke="#cccccc" stroke-width="1.0" stroke-linecap="butt" d="M78.5 290.5L621.5 290.5" fill-rule="nonzero"/><path stroke="#cccccc" stroke-width="1.0" stroke-linecap="butt" d="M78.5 224.5L621.5 224.5" fill-rule="nonzero"/><path stroke="#cccccc" stroke-width="1.0" stroke-linecap="butt" d="M78.5 157.5L621.5 157.5" fill-rule="nonzero"/><path stroke="#cccccc" stroke-width="1.0" stroke-linecap="butt" d="M78.5 91.5L621.5 91.5" fill-rule="nonzero"/><clipPath id="id_0"><path d="M78.85 91.316666L621.15 91.316666L621.15 357.15L78.85 357.15L78.85 91.316666Z" clip-rule="nonzero"/></clipPath><path stroke="#000000" stroke-width="2.0" stroke-linecap="butt" stroke-opacity="0.0" clip-path="url(#id_0)" d="M170.0 357.0L137.0 357.0L137.0 231.0C137.0 229.89543 137.89543 229.0 139.0 229.0L168.0 229.0C169.10457 229.0 170.0 229.89543 170.0 231.0Z" fill-rule="nonzero"/><path fill="#4285f4" clip-path="url(#id_0)" d="M170.0 357.0L137.0 357.0L137.0 231.0C137.0 229.89543 137.89543 229.0 139.0 229.0L168.0 229.0C169.10457 229.0 170.0 229.89543 170.0 231.0Z" fill-rule="nonzero"/><path stroke="#000000" stroke-width="2.0" stroke-linecap="butt" stroke-opacity="0.0" clip-path="url(#id_0)" d="M332.0 357.0L299.0 357.0L299.0 201.0C299.0 199.89543 299.89542 199.0 301.0 199.0L330.0 199.0C331.10458 199.0 332.0 199.89543 332.0 201.0Z" fill-rule="nonzero"/><path fill="#4285f4" clip-path="url(#id_0)" d="M332.0 357.0L299.0 357.0L299.0 201.0C299.0 199.89543 299.89542 199.0 301.0 199.0L330.0 199.0C331.10458 199.0 332.0 199.89543 332.0 201.0Z" fill-rule="nonzero"/><path stroke="#000000" stroke-width="2.0" stroke-linecap="butt" stroke-opacity="0.0" clip-path="url(#id_0)" d="M494.0 357.0L461.0 357.0L461.0 136.0C461.0 134.89543 461.89542 134.0 463.0 134.0L492.0 134.0C493.10458 134.0 494.0 134.89543 494.0 136.0Z" fill-rule="nonzero"/><path fill="#4285f4" clip-path="url(#id_0)" d="M494.0 357.0L461.0 357.0L461.0 136.0C461.0 134.89543 461.89542 134.0 463.0 134.0L492.0 134.0C493.10458 134.0 494.0 134.89543 494.0 136.0Z" fill-rule="nonzero"/><path stroke="#000000" stroke-width="2.0" stroke-linecap="butt" stroke-opacity="0.0" clip-path="url(#id_0)" d="M205.0 357.0L172.0 357.0L172.0 224.0C172.0 222.89543 172.89543 222.0 174.0 222.0L203.0 222.0C204.10457 222.0 205.0 222.89543 205.0 224.0Z" fill-rule="nonzero"/><path fill="#ea4335" clip-path="url(#id_0)" d="M205.0 357.0L172.0 357.0L172.0 224.0C172.0 222.89543 172.89543 222.0 174.0 222.0L203.0 222.0C204.10457 222.0 205.0 222.89543 205.0 224.0Z" fill-rule="nonzero"/><path stroke="#000000" stroke-width="2.0" stroke-linecap="butt" stroke-opacity="0.0" clip-path="url(#id_0)" d="M529.0 357.0L496.0 357.0L496.0 99.0C496.0 97.89543 496.89542 97.0 498.0 97.0L527.0 97.0C528.10455 97.0 529.0 97.89543 529.0 99.0Z" fill-rule="nonzero"/><path fill="#ea4335" clip-path="url(#id_0)" d="M529.0 357.0L496.0 357.0L496.0 99.0C496.0 97.89543 496.89542 97.0 498.0 97.0L527.0 97.0C528.10455 97.0 529.0 97.89543 529.0 99.0Z" fill-rule="nonzero"/><path stroke="#000000" stroke-width="2.0" stroke-linecap="butt" stroke-opacity="0.0" clip-path="url(#id_0)" d="M240.0 357.0L207.0 357.0L207.0 228.0C207.0 226.89543 207.89543 226.0 209.0 226.0L238.0 226.0C239.10457 226.0 240.0 226.89543 240.0 228.0Z" fill-rule="nonzero"/><path fill="#fbbc04" clip-path="url(#id_0)" d="M240.0 357.0L207.0 357.0L207.0 228.0C207.0 226.89543 207.89543 226.0 209.0 226.0L238.0 226.0C239.10457 226.0 240.0 226.89543 240.0 228.0Z" fill-rule="nonzero"/><path stroke="#000000" stroke-width="2.0" stroke-linecap="butt" stroke-opacity="0.0" clip-path="url(#id_0)" d="M564.0 357.0L531.0 357.0L531.0 107.0C531.0 105.89543 531.89545 105.0 533.0 105.0L562.0 105.0C563.10455 105.0 564.0 105.89543 564.0 107.0Z" fill-rule="nonzero"/><path fill="#fbbc04" clip-path="url(#id_0)" d="M564.0 357.0L531.0 357.0L531.0 107.0C531.0 105.89543 531.89545 105.0 533.0 105.0L562.0 105.0C563.10455 105.0 564.0 105.89543 564.0 107.0Z" fill-rule="nonzero"/><path fill="#000000" d="M30.849995 326.74896L22.256245 323.4521L22.256245 322.23334L30.849995 318.7177L30.849995 319.99896L28.24062 321.0146L28.24062 324.5927L30.849995 325.54584L30.849995 326.74896ZM27.318745 324.2646L27.318745 321.35834L24.943745 322.24896Q23.86562 322.67084 23.162495 322.85834Q23.99062 323.0302 24.80312 323.3271L27.318745 324.2646ZM30.849995 316.2177L24.631245 318.5771L24.631245 317.4677L28.349995 316.12396Q28.95937 315.92084 29.599995 315.73334Q29.11562 315.5927 28.42812 315.3427L24.631245 313.9521L24.631245 312.87396L30.849995 315.23334L30.849995 316.2177ZM28.849995 307.68646L28.974995 306.5927Q29.92812 306.8427 30.45937 307.54584Q30.99062 308.24896 30.99062 309.3271Q30.99062 310.68646 30.14687 311.49896Q29.30312 312.29584 27.787495 312.29584Q26.224995 312.29584 25.36562 311.48334Q24.49062 310.67084 24.49062 309.3896Q24.49062 308.1396 25.33437 307.35834Q26.17812 306.56146 27.724995 306.56146Q27.818745 306.56146 28.006245 306.56146L28.006245 311.2021Q29.037495 311.1396 29.58437 310.62396Q30.11562 310.10834 30.11562 309.3271Q30.11562 308.74896 29.818745 308.3427Q29.506245 307.92084 28.849995 307.68646ZM27.14687 311.1396L27.14687 307.67084Q26.349995 307.73334 25.95937 308.06146Q25.349995 308.5771 25.349995 309.37396Q25.349995 310.10834 25.83437 310.60834Q26.318745 311.0927 27.14687 311.1396ZM30.849995 304.9521L24.631245 304.9521L24.631245 303.99896L25.568745 303.99896Q24.912495 303.6396 24.70937 303.3427Q24.49062 303.0302 24.49062 302.6552Q24.49062 302.12396 24.818745 301.5771L25.80312 301.93646Q25.568745 302.3271 25.568745 302.7021Q25.568745 303.06146 25.787495 303.3427Q25.99062 303.60834 26.36562 303.7177Q26.92812 303.9052 27.58437 303.9052L30.849995 303.9052L30.849995 304.9521ZM30.08437 296.87396Q30.58437 297.4677 30.787495 298.0146Q30.99062 298.54584 30.99062 299.17084Q30.99062 300.2021 30.49062 300.74896Q29.99062 301.29584 29.20937 301.29584Q28.756245 301.29584 28.381245 301.0927Q27.99062 300.8896 27.77187 300.54584Q27.537495 300.2021 27.42812 299.7802Q27.33437 299.48334 27.256245 298.8427Q27.11562 297.5771 26.89687 296.9677Q26.67812 296.9677 26.631245 296.9677Q25.974995 296.9677 25.70937 297.2646Q25.36562 297.67084 25.36562 298.4677Q25.36562 299.2021 25.631245 299.56146Q25.881245 299.92084 26.537495 300.0927L26.39687 301.12396Q25.74062 300.98334 25.33437 300.6552Q24.92812 300.3271 24.70937 299.7177Q24.49062 299.10834 24.49062 298.31146Q24.49062 297.5146 24.67812 297.0146Q24.86562 296.5146 25.14687 296.2802Q25.42812 296.04584 25.86562 295.9521Q26.131245 295.9052 26.83437 295.9052L28.24062 295.9052Q29.70937 295.9052 30.099995 295.8427Q30.49062 295.7646 30.849995 295.56146L30.849995 296.67084Q30.52187 296.8271 30.08437 296.87396ZM27.724995 296.9677Q27.95937 297.54584 28.131245 298.68646Q28.224995 299.3427 28.349995 299.60834Q28.45937 299.87396 28.67812 300.0302Q28.89687 300.17084 29.17812 300.17084Q29.599995 300.17084 29.881245 299.85834Q30.162495 299.5302 30.162495 298.92084Q30.162495 298.31146 29.89687 297.8427Q29.631245 297.35834 29.162495 297.1396Q28.80312 296.9677 28.11562 296.9677L27.724995 296.9677ZM31.36562 294.1396L31.52187 293.10834Q31.99062 293.04584 32.20937 292.74896Q32.506245 292.35834 32.506245 291.68646Q32.506245 290.9521 32.20937 290.56146Q31.912495 290.1552 31.39687 290.0146Q31.068745 289.92084 30.037495 289.93646Q30.849995 290.62396 30.849995 291.6552Q30.849995 292.93646 29.92812 293.6396Q28.99062 294.3427 27.70937 294.3427Q26.818745 294.3427 26.068745 294.0302Q25.30312 293.7021 24.89687 293.0927Q24.49062 292.48334 24.49062 291.6552Q24.49062 290.54584 25.381245 289.8271L24.631245 289.8271L24.631245 288.85834L30.006245 288.85834Q31.45937 288.85834 32.068745 289.1552Q32.67812 289.4521 33.02187 290.0927Q33.381245 290.73334 33.381245 291.67084Q33.381245 292.7802 32.881245 293.4677Q32.381245 294.1552 31.36562 294.1396ZM27.631245 293.2646Q28.849995 293.2646 29.412495 292.7802Q29.974995 292.29584 29.974995 291.56146Q29.974995 290.8271 29.412495 290.3427Q28.849995 289.8427 27.662495 289.8427Q26.52187 289.8427 25.943745 290.35834Q25.36562 290.85834 25.36562 291.5771Q25.36562 292.2802 25.943745 292.7802Q26.506245 293.2646 27.631245 293.2646ZM28.849995 282.68646L28.974995 281.5927Q29.92812 281.8427 30.45937 282.54584Q30.99062 283.24896 30.99062 284.3271Q30.99062 285.68646 30.14687 286.49896Q29.30312 287.29584 27.787495 287.29584Q26.224995 287.29584 25.36562 286.48334Q24.49062 285.67084 24.49062 284.3896Q24.49062 283.1396 25.33437 282.35834Q26.17812 281.56146 27.724995 281.56146Q27.818745 281.56146 28.006245 281.56146L28.006245 286.2021Q29.037495 286.1396 29.58437 285.62396Q30.11562 285.10834 30.11562 284.3271Q30.11562 283.74896 29.818745 283.3427Q29.506245 282.92084 28.849995 282.68646ZM27.14687 286.1396L27.14687 282.67084Q26.349995 282.73334 25.95937 283.06146Q25.349995 283.5771 25.349995 284.37396Q25.349995 285.10834 25.83437 285.60834Q26.318745 286.0927 27.14687 286.1396ZM29.912495 274.6396L30.83437 274.48334Q30.92812 274.93646 30.92812 275.2802Q30.92812 275.85834 30.756245 276.17084Q30.568745 276.48334 30.27187 276.62396Q29.974995 276.74896 29.02187 276.74896L25.443745 276.74896L25.443745 277.5146L24.631245 277.5146L24.631245 276.74896L23.08437 276.74896L22.45937 275.7021L24.631245 275.7021L24.631245 274.6396L25.443745 274.6396L25.443745 275.7021L29.08437 275.7021Q29.537495 275.7021 29.662495 275.6552Q29.787495 275.5927 29.86562 275.4677Q29.943745 275.3427 29.943745 275.10834Q29.943745 274.92084 29.912495 274.6396ZM23.474995 273.93646L22.256245 273.93646L22.256245 272.87396L23.474995 272.87396L23.474995 273.93646ZM30.849995 273.93646L24.631245 273.93646L24.631245 272.87396L30.849995 272.87396L30.849995 273.93646ZM30.849995 270.93646L24.631245 270.93646L24.631245 269.99896L25.506245 269.99896Q25.037495 269.7021 24.77187 269.2177Q24.49062 268.73334 24.49062 268.10834Q24.49062 267.42084 24.77187 266.98334Q25.05312 266.5302 25.568745 266.35834Q24.49062 265.60834 24.49062 264.43646Q24.49062 263.49896 25.006245 263.0146Q25.506245 262.5146 26.58437 262.5146L30.849995 262.5146L30.849995 263.56146L26.92812 263.56146Q26.30312 263.56146 26.02187 263.67084Q25.74062 263.7646 25.568745 264.0302Q25.39687 264.29584 25.39687 264.67084Q25.39687 265.3271 25.83437 265.7646Q26.27187 266.18646 27.24062 266.18646L30.849995 266.18646L30.849995 267.24896L26.80312 267.24896Q26.099995 267.24896 25.756245 267.5146Q25.39687 267.7646 25.39687 268.3427Q25.39687 268.79584 25.631245 269.17084Q25.86562 269.54584 26.318745 269.7177Q26.77187 269.8896 27.61562 269.8896L30.849995 269.8896L30.849995 270.93646ZM28.849995 256.68646L28.974995 255.59271Q29.92812 255.84271 30.45937 256.54584Q30.99062 257.24896 30.99062 258.3271Q30.99062 259.68646 30.14687 260.49896Q29.30312 261.29584 27.787495 261.29584Q26.224995 261.29584 25.36562 260.48334Q24.49062 259.67084 24.49062 258.3896Q24.49062 257.1396 25.33437 256.35834Q26.17812 255.56146 27.724995 255.56146Q27.818745 255.56146 28.006245 255.56146L28.006245 260.2021Q29.037495 260.1396 29.58437 259.62396Q30.11562 259.10834 30.11562 258.3271Q30.11562 257.74896 29.818745 257.3427Q29.506245 256.92084 28.849995 256.68646ZM27.14687 260.1396L27.14687 256.67084Q26.349995 256.73334 25.95937 257.06146Q25.349995 257.5771 25.349995 258.37396Q25.349995 259.10834 25.83437 259.60834Q26.318745 260.0927 27.14687 260.1396ZM23.474995 250.93646L22.256245 250.93646L22.256245 249.87396L23.474995 249.87396L23.474995 250.93646ZM30.849995 250.93646L24.631245 250.93646L24.631245 249.87396L30.849995 249.87396L30.849995 250.93646ZM30.849995 247.93646L24.631245 247.93646L24.631245 246.99896L25.506245 246.99896Q24.49062 246.31146 24.49062 245.01459Q24.49062 244.45209 24.693745 243.98334Q24.89687 243.49896 25.224995 243.26459Q25.55312 243.03021 25.99062 242.93646Q26.287495 242.88959 27.02187 242.88959L30.849995 242.88959L30.849995 243.93646L27.068745 243.93646Q26.412495 243.93646 26.099995 244.06146Q25.787495 244.18646 25.599995 244.49896Q25.39687 244.81146 25.39687 245.23334Q25.39687 245.90521 25.83437 246.40521Q26.256245 246.88959 27.443745 246.88959L30.849995 246.88959L30.849995 247.93646ZM28.99062 238.35834L28.83437 237.32709Q29.45937 237.23334 29.787495 236.84271Q30.11562 236.43646 30.11562 235.70209Q30.11562 234.98334 29.83437 234.63959Q29.537495 234.28021 29.131245 234.28021Q28.77187 234.28021 28.568745 234.59271Q28.42812 234.81146 28.20937 235.67084Q27.912495 236.82709 27.70937 237.28021Q27.49062 237.71771 27.11562 237.95209Q26.74062 238.18646 26.27187 238.18646Q25.86562 238.18646 25.506245 237.99896Q25.14687 237.81146 24.912495 237.48334Q24.74062 237.23334 24.61562 236.81146Q24.49062 236.38959 24.49062 235.88959Q24.49062 235.17084 24.70937 234.62396Q24.912495 234.06146 25.27187 233.79584Q25.631245 233.53021 26.224995 233.43646L26.36562 234.46771Q25.89687 234.53021 25.631245 234.87396Q25.349995 235.20209 25.349995 235.82709Q25.349995 236.54584 25.599995 236.85834Q25.83437 237.17084 26.162495 237.17084Q26.36562 237.17084 26.52187 237.04584Q26.693745 236.90521 26.80312 236.63959Q26.86562 236.48334 27.068745 235.70209Q27.381245 234.57709 27.568745 234.13959Q27.756245 233.70209 28.11562 233.45209Q28.474995 233.20209 29.02187 233.20209Q29.55312 233.20209 30.02187 233.51459Q30.474995 233.81146 30.74062 234.38959Q30.99062 234.96771 30.99062 235.70209Q30.99062 236.92084 30.49062 237.56146Q29.974995 238.18646 28.99062 238.35834ZM28.849995 227.68646L28.974995 226.59271Q29.92812 226.84271 30.45937 227.54584Q30.99062 228.24896 30.99062 229.32709Q30.99062 230.68646 30.14687 231.49896Q29.30312 232.29584 27.787495 232.29584Q26.224995 232.29584 25.36562 231.48334Q24.49062 230.67084 24.49062 229.38959Q24.49062 228.13959 25.33437 227.35834Q26.17812 226.56146 27.724995 226.56146Q27.818745 226.56146 28.006245 226.56146L28.006245 231.20209Q29.037495 231.13959 29.58437 230.62396Q30.11562 230.10834 30.11562 229.32709Q30.11562 228.74896 29.818745 228.34271Q29.506245 227.92084 28.849995 227.68646ZM27.14687 231.13959L27.14687 227.67084Q26.349995 227.73334 25.95937 228.06146Q25.349995 228.57709 25.349995 229.37396Q25.349995 230.10834 25.83437 230.60834Q26.318745 231.09271 27.14687 231.13959ZM28.568745 220.87396L28.70937 219.84271Q29.77187 220.01459 30.381245 220.71771Q30.99062 221.42084 30.99062 222.43646Q30.99062 223.71771 30.162495 224.49896Q29.318745 225.26459 27.756245 225.26459Q26.756245 225.26459 26.006245 224.93646Q25.24062 224.59271 24.86562 223.92084Q24.49062 223.23334 24.49062 222.42084Q24.49062 221.42084 25.006245 220.78021Q25.506245 220.12396 26.45937 219.93646L26.61562 220.96771Q25.99062 221.10834 25.67812 221.48334Q25.349995 221.85834 25.349995 222.38959Q25.349995 223.18646 25.92812 223.68646Q26.49062 224.18646 27.724995 224.18646Q28.99062 224.18646 29.55312 223.70209Q30.11562 223.21771 30.11562 222.45209Q30.11562 221.82709 29.74062 221.42084Q29.36562 220.99896 28.568745 220.87396ZM27.74062 219.32709Q26.006245 219.32709 25.17812 218.37396Q24.49062 217.57709 24.49062 216.42084Q24.49062 215.13959 25.33437 214.32709Q26.162495 213.49896 27.64687 213.49896Q28.849995 213.49896 29.537495 213.85834Q30.224995 214.21771 30.61562 214.92084Q30.99062 215.60834 30.99062 216.42084Q30.99062 217.71771 30.162495 218.53021Q29.318745 219.32709 27.74062 219.32709ZM27.74062 218.24896Q28.92812 218.24896 29.52187 217.73334Q30.11562 217.20209 30.11562 216.42084Q30.11562 215.62396 29.52187 215.10834Q28.92812 214.59271 27.70937 214.59271Q26.55312 214.59271 25.95937 215.12396Q25.36562 215.63959 25.36562 216.42084Q25.36562 217.20209 25.95937 217.73334Q26.537495 218.24896 27.74062 218.24896ZM30.849995 211.93646L24.631245 211.93646L24.631245 210.99896L25.506245 210.99896Q24.49062 210.31146 24.49062 209.01459Q24.49062 208.45209 24.693745 207.98334Q24.89687 207.49896 25.224995 207.26459Q25.55312 207.03021 25.99062 206.93646Q26.287495 206.88959 27.02187 206.88959L30.849995 206.88959L30.849995 207.93646L27.068745 207.93646Q26.412495 207.93646 26.099995 208.06146Q25.787495 208.18646 25.599995 208.49896Q25.39687 208.81146 25.39687 209.23334Q25.39687 209.90521 25.83437 210.40521Q26.256245 210.88959 27.443745 210.88959L30.849995 210.88959L30.849995 211.93646ZM30.849995 200.90521L30.068745 200.90521Q30.99062 201.49896 30.99062 202.63959Q30.99062 203.38959 30.58437 204.01459Q30.162495 204.63959 29.42812 204.98334Q28.693745 205.32709 27.74062 205.32709Q26.818745 205.32709 26.05312 205.01459Q25.287495 204.70209 24.89687 204.07709Q24.49062 203.45209 24.49062 202.68646Q24.49062 202.12396 24.724995 201.68646Q24.95937 201.24896 25.33437 200.96771L22.256245 200.96771L22.256245 199.92084L30.849995 199.92084L30.849995 200.90521ZM27.74062 204.23334Q28.943745 204.23334 29.537495 203.73334Q30.11562 203.23334 30.11562 202.54584Q30.11562 201.85834 29.55312 201.37396Q28.99062 200.88959 27.83437 200.88959Q26.55312 200.88959 25.95937 201.38959Q25.36562 201.87396 25.36562 202.59271Q25.36562 203.29584 25.943745 203.76459Q26.506245 204.23334 27.74062 204.23334ZM28.99062 198.35834L28.83437 197.32709Q29.45937 197.23334 29.787495 196.84271Q30.11562 196.43646 30.11562 195.70209Q30.11562 194.98334 29.83437 194.63959Q29.537495 194.28021 29.131245 194.28021Q28.77187 194.28021 28.568745 194.59271Q28.42812 194.81146 28.20937 195.67084Q27.912495 196.82709 27.70937 197.28021Q27.49062 197.71771 27.11562 197.95209Q26.74062 198.18646 26.27187 198.18646Q25.86562 198.18646 25.506245 197.99896Q25.14687 197.81146 24.912495 197.48334Q24.74062 197.23334 24.61562 196.81146Q24.49062 196.38959 24.49062 195.88959Q24.49062 195.17084 24.70937 194.62396Q24.912495 194.06146 25.27187 193.79584Q25.631245 193.53021 26.224995 193.43646L26.36562 194.46771Q25.89687 194.53021 25.631245 194.87396Q25.349995 195.20209 25.349995 195.82709Q25.349995 196.54584 25.599995 196.85834Q25.83437 197.17084 26.162495 197.17084Q26.36562 197.17084 26.52187 197.04584Q26.693745 196.90521 26.80312 196.63959Q26.86562 196.48334 27.068745 195.70209Q27.381245 194.57709 27.568745 194.13959Q27.756245 193.70209 28.11562 193.45209Q28.474995 193.20209 29.02187 193.20209Q29.55312 193.20209 30.02187 193.51459Q30.474995 193.81146 30.74062 194.38959Q30.99062 194.96771 30.99062 195.70209Q30.99062 196.92084 30.49062 197.56146Q29.974995 198.18646 28.99062 198.35834ZM33.24062 188.93646L24.631245 188.93646L24.631245 187.98334L25.42812 187.98334Q24.95937 187.63959 24.724995 187.21771Q24.49062 186.78021 24.49062 186.17084Q24.49062 185.37396 24.89687 184.76459Q25.30312 184.15521 26.05312 183.85834Q26.80312 183.54584 27.693745 183.54584Q28.64687 183.54584 29.412495 183.88959Q30.17812 184.21771 30.58437 184.87396Q30.99062 185.53021 30.99062 186.24896Q30.99062 186.78021 30.77187 187.20209Q30.537495 187.62396 30.20937 187.88959L33.24062 187.88959L33.24062 188.93646ZM27.77187 187.98334Q28.974995 187.98334 29.55312 187.49896Q30.11562 187.01459 30.11562 186.32709Q30.11562 185.62396 29.52187 185.12396Q28.92812 184.62396 27.67812 184.62396Q26.49062 184.62396 25.912495 185.10834Q25.318745 185.59271 25.318745 186.28021Q25.318745 186.95209 25.943745 187.46771Q26.568745 187.98334 27.77187 187.98334ZM28.849995 177.68646L28.974995 176.59271Q29.92812 176.84271 30.45937 177.54584Q30.99062 178.24896 30.99062 179.32709Q30.99062 180.68646 30.14687 181.49896Q29.30312 182.29584 27.787495 182.29584Q26.224995 182.29584 25.36562 181.48334Q24.49062 180.67084 24.49062 179.38959Q24.49062 178.13959 25.33437 177.35834Q26.17812 176.56146 27.724995 176.56146Q27.818745 176.56146 28.006245 176.56146L28.006245 181.20209Q29.037495 181.13959 29.58437 180.62396Q30.11562 180.10834 30.11562 179.32709Q30.11562 178.74896 29.818745 178.34271Q29.506245 177.92084 28.849995 177.68646ZM27.14687 181.13959L27.14687 177.67084Q26.349995 177.73334 25.95937 178.06146Q25.349995 178.57709 25.349995 179.37396Q25.349995 180.10834 25.83437 180.60834Q26.318745 181.09271 27.14687 181.13959ZM30.849995 174.95209L24.631245 174.95209L24.631245 173.99896L25.568745 173.99896Q24.912495 173.63959 24.70937 173.34271Q24.49062 173.03021 24.49062 172.65521Q24.49062 172.12396 24.818745 171.57709L25.80312 171.93646Q25.568745 172.32709 25.568745 172.70209Q25.568745 173.06146 25.787495 173.34271Q25.99062 173.60834 26.36562 173.71771Q26.92812 173.90521 27.58437 173.90521L30.849995 173.90521L30.849995 174.95209ZM28.849995 163.68646L28.974995 162.59271Q29.92812 162.84271 30.45937 163.54584Q30.99062 164.24896 30.99062 165.32709Q30.99062 166.68646 30.14687 167.49896Q29.30312 168.29584 27.787495 168.29584Q26.224995 168.29584 25.36562 167.48334Q24.49062 166.67084 24.49062 165.38959Q24.49062 164.13959 25.33437 163.35834Q26.17812 162.56146 27.724995 162.56146Q27.818745 162.56146 28.006245 162.56146L28.006245 167.20209Q29.037495 167.13959 29.58437 166.62396Q30.11562 166.10834 30.11562 165.32709Q30.11562 164.74896 29.818745 164.34271Q29.506245 163.92084 28.849995 163.68646ZM27.14687 167.13959L27.14687 163.67084Q26.349995 163.73334 25.95937 164.06146Q25.349995 164.57709 25.349995 165.37396Q25.349995 166.10834 25.83437 166.60834Q26.318745 167.09271 27.14687 167.13959ZM33.24062 160.93646L24.631245 160.93646L24.631245 159.98334L25.42812 159.98334Q24.95937 159.63959 24.724995 159.21771Q24.49062 158.78021 24.49062 158.17084Q24.49062 157.37396 24.89687 156.76459Q25.30312 156.15521 26.05312 155.85834Q26.80312 155.54584 27.693745 155.54584Q28.64687 155.54584 29.412495 155.88959Q30.17812 156.21771 30.58437 156.87396Q30.99062 157.53021 30.99062 158.24896Q30.99062 158.78021 30.77187 159.20209Q30.537495 159.62396 30.20937 159.88959L33.24062 159.88959L33.24062 160.93646ZM27.77187 159.98334Q28.974995 159.98334 29.55312 159.49896Q30.11562 159.01459 30.11562 158.32709Q30.11562 157.62396 29.52187 157.12396Q28.92812 156.62396 27.67812 156.62396Q26.49062 156.62396 25.912495 157.10834Q25.318745 157.59271 25.318745 158.28021Q25.318745 158.95209 25.943745 159.46771Q26.568745 159.98334 27.77187 159.98334ZM27.74062 154.32709Q26.006245 154.32709 25.17812 153.37396Q24.49062 152.57709 24.49062 151.42084Q24.49062 150.13959 25.33437 149.32709Q26.162495 148.49896 27.64687 148.49896Q28.849995 148.49896 29.537495 148.85834Q30.224995 149.21771 30.61562 149.92084Q30.99062 150.60834 30.99062 151.42084Q30.99062 152.71771 30.162495 153.53021Q29.318745 154.32709 27.74062 154.32709ZM27.74062 153.24896Q28.92812 153.24896 29.52187 152.73334Q30.11562 152.20209 30.11562 151.42084Q30.11562 150.62396 29.52187 150.10834Q28.92812 149.59271 27.70937 149.59271Q26.55312 149.59271 25.95937 150.12396Q25.36562 150.63959 25.36562 151.42084Q25.36562 152.20209 25.95937 152.73334Q26.537495 153.24896 27.74062 153.24896ZM28.568745 142.87396L28.70937 141.84271Q29.77187 142.01459 30.381245 142.71771Q30.99062 143.42084 30.99062 144.43646Q30.99062 145.71771 30.162495 146.49896Q29.318745 147.26459 27.756245 147.26459Q26.756245 147.26459 26.006245 146.93646Q25.24062 146.59271 24.86562 145.92084Q24.49062 145.23334 24.49062 144.42084Q24.49062 143.42084 25.006245 142.78021Q25.506245 142.12396 26.45937 141.93646L26.61562 142.96771Q25.99062 143.10834 25.67812 143.48334Q25.349995 143.85834 25.349995 144.38959Q25.349995 145.18646 25.92812 145.68646Q26.49062 146.18646 27.724995 146.18646Q28.99062 146.18646 29.55312 145.70209Q30.11562 145.21771 30.11562 144.45209Q30.11562 143.82709 29.74062 143.42084Q29.36562 142.99896 28.568745 142.87396ZM30.849995 140.93646L22.256245 140.93646L22.256245 139.88959L25.33437 139.88959Q24.49062 139.15521 24.49062 138.03021Q24.49062 137.32709 24.77187 136.82709Q25.037495 136.31146 25.52187 136.09271Q25.99062 135.87396 26.912495 135.87396L30.849995 135.87396L30.849995 136.92084L26.912495 136.92084Q26.11562 136.92084 25.756245 137.26459Q25.39687 137.60834 25.39687 138.23334Q25.39687 138.70209 25.64687 139.12396Q25.881245 139.53021 26.30312 139.71771Q26.70937 139.88959 27.443745 139.88959L30.849995 139.88959L30.849995 140.93646Z" fill-rule="nonzero"/><path fill="#000000" d="M66.35 356.91562Q66.35 355.38437 66.6625 354.4625Q66.975 353.525 67.58437 353.025Q68.20937 352.525 69.14687 352.525Q69.83437 352.525 70.35 352.80624Q70.88125 353.0875 71.225 353.61874Q71.56875 354.13437 71.75625 354.88437Q71.94375 355.63437 71.94375 356.91562Q71.94375 358.43124 71.63125 359.35312Q71.33437 360.275 70.70937 360.79062Q70.1 361.29062 69.14687 361.29062Q67.9125 361.29062 67.19375 360.4Q66.35 359.3375 66.35 356.91562ZM67.42812 356.91562Q67.42812 359.025 67.92812 359.72812Q68.42812 360.43124 69.14687 360.43124Q69.88125 360.43124 70.36562 359.72812Q70.86562 359.025 70.86562 356.91562Q70.86562 354.79062 70.36562 354.10312Q69.88125 353.4 69.13125 353.4Q68.4125 353.4 67.975 354.00937Q67.42812 354.79062 67.42812 356.91562Z" fill-rule="nonzero"/><path fill="#000000" d="M56.31875 294.69168L55.271873 294.69168L55.271873 287.97293Q54.88125 288.3323 54.25625 288.7073Q53.646873 289.06668 53.1625 289.23856L53.1625 288.22293Q54.0375 287.80106 54.69375 287.22293Q55.365623 286.62918 55.646873 286.06668L56.31875 286.06668L56.31875 294.69168ZM59.35 290.4573Q59.35 288.92606 59.6625 288.00418Q59.975 287.06668 60.584373 286.56668Q61.209373 286.06668 62.146873 286.06668Q62.834373 286.06668 63.35 286.34793Q63.88125 286.62918 64.225 287.16043Q64.56875 287.67606 64.75625 288.42606Q64.94375 289.17606 64.94375 290.4573Q64.94375 291.97293 64.63125 292.8948Q64.33437 293.81668 63.709373 294.3323Q63.1 294.8323 62.146873 294.8323Q60.9125 294.8323 60.19375 293.94168Q59.35 292.87918 59.35 290.4573ZM60.428123 290.4573Q60.428123 292.56668 60.928123 293.2698Q61.428123 293.97293 62.146873 293.97293Q62.88125 293.97293 63.365623 293.2698Q63.865623 292.56668 63.865623 290.4573Q63.865623 288.3323 63.365623 287.6448Q62.88125 286.94168 62.13125 286.94168Q61.4125 286.94168 60.975 287.55106Q60.428123 288.3323 60.428123 290.4573ZM66.35 290.4573Q66.35 288.92606 66.6625 288.00418Q66.975 287.06668 67.58437 286.56668Q68.20937 286.06668 69.14687 286.06668Q69.83437 286.06668 70.35 286.34793Q70.88125 286.62918 71.225 287.16043Q71.56875 287.67606 71.75625 288.42606Q71.94375 289.17606 71.94375 290.4573Q71.94375 291.97293 71.63125 292.8948Q71.33437 293.81668 70.70937 294.3323Q70.1 294.8323 69.14687 294.8323Q67.9125 294.8323 67.19375 293.94168Q66.35 292.87918 66.35 290.4573ZM67.42812 290.4573Q67.42812 292.56668 67.92812 293.2698Q68.42812 293.97293 69.14687 293.97293Q69.88125 293.97293 70.36562 293.2698Q70.86562 292.56668 70.86562 290.4573Q70.86562 288.3323 70.36562 287.6448Q69.88125 286.94168 69.13125 286.94168Q68.4125 286.94168 67.975 287.55106Q67.42812 288.3323 67.42812 290.4573Z" fill-rule="nonzero"/><path fill="#000000" d="M57.896873 227.21771L57.896873 228.23334L52.209373 228.23334Q52.209373 227.85834 52.334373 227.49896Q52.553123 226.92084 53.021873 226.35834Q53.50625 225.79584 54.4125 225.06146Q55.81875 223.90521 56.303123 223.23334Q56.803123 222.56146 56.803123 221.96771Q56.803123 221.34271 56.35 220.92084Q55.896873 220.48334 55.178123 220.48334Q54.4125 220.48334 53.959373 220.93646Q53.50625 221.38959 53.490623 222.20209L52.4125 222.09271Q52.521873 220.87396 53.240623 220.24896Q53.975 219.60834 55.209373 219.60834Q56.44375 219.60834 57.1625 220.29584Q57.88125 220.98334 57.88125 221.99896Q57.88125 222.51459 57.6625 223.01459Q57.459373 223.49896 56.959373 224.06146Q56.475 224.60834 55.35 225.56146Q54.396873 226.35834 54.115623 226.65521Q53.85 226.93646 53.678123 227.21771L57.896873 227.21771ZM59.35 223.99896Q59.35 222.46771 59.6625 221.54584Q59.975 220.60834 60.584373 220.10834Q61.209373 219.60834 62.146873 219.60834Q62.834373 219.60834 63.35 219.88959Q63.88125 220.17084 64.225 220.70209Q64.56875 221.21771 64.75625 221.96771Q64.94375 222.71771 64.94375 223.99896Q64.94375 225.51459 64.63125 226.43646Q64.33437 227.35834 63.709373 227.87396Q63.1 228.37396 62.146873 228.37396Q60.9125 228.37396 60.19375 227.48334Q59.35 226.42084 59.35 223.99896ZM60.428123 223.99896Q60.428123 226.10834 60.928123 226.81146Q61.428123 227.51459 62.146873 227.51459Q62.88125 227.51459 63.365623 226.81146Q63.865623 226.10834 63.865623 223.99896Q63.865623 221.87396 63.365623 221.18646Q62.88125 220.48334 62.13125 220.48334Q61.4125 220.48334 60.975 221.09271Q60.428123 221.87396 60.428123 223.99896ZM66.35 223.99896Q66.35 222.46771 66.6625 221.54584Q66.975 220.60834 67.58437 220.10834Q68.20937 219.60834 69.14687 219.60834Q69.83437 219.60834 70.35 219.88959Q70.88125 220.17084 71.225 220.70209Q71.56875 221.21771 71.75625 221.96771Q71.94375 222.71771 71.94375 223.99896Q71.94375 225.51459 71.63125 226.43646Q71.33437 227.35834 70.70937 227.87396Q70.1 228.37396 69.14687 228.37396Q67.9125 228.37396 67.19375 227.48334Q66.35 226.42084 66.35 223.99896ZM67.42812 223.99896Q67.42812 226.10834 67.92812 226.81146Q68.42812 227.51459 69.14687 227.51459Q69.88125 227.51459 70.36562 226.81146Q70.86562 226.10834 70.86562 223.99896Q70.86562 221.87396 70.36562 221.18646Q69.88125 220.48334 69.13125 220.48334Q68.4125 220.48334 67.975 221.09271Q67.42812 221.87396 67.42812 223.99896Z" fill-rule="nonzero"/><path fill="#000000" d="M52.35 159.50937L53.4125 159.36874Q53.584373 160.25937 54.021873 160.66562Q54.459373 161.05624 55.084373 161.05624Q55.834373 161.05624 56.35 160.54062Q56.865623 160.025 56.865623 159.25937Q56.865623 158.54062 56.38125 158.07187Q55.9125 157.5875 55.178123 157.5875Q54.88125 157.5875 54.428123 157.7125L54.553123 156.775Q54.6625 156.79062 54.725 156.79062Q55.396873 156.79062 55.928123 156.44687Q56.475 156.0875 56.475 155.35312Q56.475 154.775 56.084373 154.4Q55.69375 154.00937 55.06875 154.00937Q54.459373 154.00937 54.0375 154.4Q53.63125 154.79062 53.521873 155.55624L52.459373 155.36874Q52.646873 154.32187 53.334373 153.74374Q54.021873 153.15 55.0375 153.15Q55.740623 153.15 56.334373 153.4625Q56.928123 153.75937 57.240623 154.275Q57.553123 154.79062 57.553123 155.38437Q57.553123 155.93124 57.25625 156.4Q56.959373 156.85312 56.38125 157.11874Q57.13125 157.29062 57.553123 157.85312Q57.975 158.4 57.975 159.24374Q57.975 160.36874 57.146873 161.15Q56.334373 161.93124 55.084373 161.93124Q53.959373 161.93124 53.209373 161.25937Q52.459373 160.57187 52.35 159.50937ZM59.35 157.54062Q59.35 156.00937 59.6625 155.0875Q59.975 154.15 60.584373 153.65Q61.209373 153.15 62.146873 153.15Q62.834373 153.15 63.35 153.43124Q63.88125 153.7125 64.225 154.24374Q64.56875 154.75937 64.75625 155.50937Q64.94375 156.25937 64.94375 157.54062Q64.94375 159.05624 64.63125 159.97812Q64.33437 160.9 63.709373 161.41562Q63.1 161.91562 62.146873 161.91562Q60.9125 161.91562 60.19375 161.025Q59.35 159.9625 59.35 157.54062ZM60.428123 157.54062Q60.428123 159.65 60.928123 160.35312Q61.428123 161.05624 62.146873 161.05624Q62.88125 161.05624 63.365623 160.35312Q63.865623 159.65 63.865623 157.54062Q63.865623 155.41562 63.365623 154.72812Q62.88125 154.025 62.13125 154.025Q61.4125 154.025 60.975 154.63437Q60.428123 155.41562 60.428123 157.54062ZM66.35 157.54062Q66.35 156.00937 66.6625 155.0875Q66.975 154.15 67.58437 153.65Q68.20937 153.15 69.14687 153.15Q69.83437 153.15 70.35 153.43124Q70.88125 153.7125 71.225 154.24374Q71.56875 154.75937 71.75625 155.50937Q71.94375 156.25937 71.94375 157.54062Q71.94375 159.05624 71.63125 159.97812Q71.33437 160.9 70.70937 161.41562Q70.1 161.91562 69.14687 161.91562Q67.9125 161.91562 67.19375 161.025Q66.35 159.9625 66.35 157.54062ZM67.42812 157.54062Q67.42812 159.65 67.92812 160.35312Q68.42812 161.05624 69.14687 161.05624Q69.88125 161.05624 70.36562 160.35312Q70.86562 159.65 70.86562 157.54062Q70.86562 155.41562 70.36562 154.72812Q69.88125 154.025 69.13125 154.025Q68.4125 154.025 67.975 154.63437Q67.42812 155.41562 67.42812 157.54062Z" fill-rule="nonzero"/><path fill="#000000" d="M55.725 95.316666L55.725 93.254166L52.00625 93.254166L52.00625 92.285416L55.928123 86.722916L56.7875 86.722916L56.7875 92.285416L57.94375 92.285416L57.94375 93.254166L56.7875 93.254166L56.7875 95.316666L55.725 95.316666ZM55.725 92.285416L55.725 88.42604L53.0375 92.285416L55.725 92.285416ZM59.35 91.08229Q59.35 89.55104 59.6625 88.629166Q59.975 87.691666 60.584373 87.191666Q61.209373 86.691666 62.146873 86.691666Q62.834373 86.691666 63.35 86.972916Q63.88125 87.254166 64.225 87.785416Q64.56875 88.30104 64.75625 89.05104Q64.94375 89.80104 64.94375 91.08229Q64.94375 92.597916 64.63125 93.51979Q64.33437 94.441666 63.709373 94.95729Q63.1 95.45729 62.146873 95.45729Q60.9125 95.45729 60.19375 94.566666Q59.35 93.504166 59.35 91.08229ZM60.428123 91.08229Q60.428123 93.191666 60.928123 93.89479Q61.428123 94.597916 62.146873 94.597916Q62.88125 94.597916 63.365623 93.89479Q63.865623 93.191666 63.865623 91.08229Q63.865623 88.95729 63.365623 88.26979Q62.88125 87.566666 62.13125 87.566666Q61.4125 87.566666 60.975 88.17604Q60.428123 88.95729 60.428123 91.08229ZM66.35 91.08229Q66.35 89.55104 66.6625 88.629166Q66.975 87.691666 67.58437 87.191666Q68.20937 86.691666 69.14687 86.691666Q69.83437 86.691666 70.35 86.972916Q70.88125 87.254166 71.225 87.785416Q71.56875 88.30104 71.75625 89.05104Q71.94375 89.80104 71.94375 91.08229Q71.94375 92.597916 71.63125 93.51979Q71.33437 94.441666 70.70937 94.95729Q70.1 95.45729 69.14687 95.45729Q67.9125 95.45729 67.19375 94.566666Q66.35 93.504166 66.35 91.08229ZM67.42812 91.08229Q67.42812 93.191666 67.92812 93.89479Q68.42812 94.597916 69.14687 94.597916Q69.88125 94.597916 70.36562 93.89479Q70.86562 93.191666 70.86562 91.08229Q70.86562 88.95729 70.36562 88.26979Q69.88125 87.566666 69.13125 87.566666Q68.4125 87.566666 67.975 88.17604Q67.42812 88.95729 67.42812 91.08229Z" fill-rule="nonzero"/><path fill="#000000" d="M174.60378 374.15L174.60378 365.55624L180.40065 365.55624L180.40065 366.57187L175.7444 366.57187L175.7444 369.22812L179.77565 369.22812L179.77565 370.24374L175.7444 370.24374L175.7444 374.15L174.60378 374.15ZM181.54128 374.15L181.54128 365.55624L184.79128 365.55624Q185.63503 365.55624 186.08815 365.63437Q186.72878 365.74374 187.15065 366.04062Q187.58815 366.3375 187.83815 366.86874Q188.10378 367.4 188.10378 368.04062Q188.10378 369.13437 187.40065 369.9Q186.71315 370.65 184.88503 370.65L182.6819 370.65L182.6819 374.15L181.54128 374.15ZM182.6819 369.65L184.90065 369.65Q186.01003 369.65 186.46315 369.24374Q186.9319 368.82187 186.9319 368.07187Q186.9319 367.54062 186.65065 367.16562Q186.38503 366.775 185.94753 366.65Q185.65065 366.57187 184.88503 366.57187L182.6819 366.57187L182.6819 369.65ZM193.08815 374.15L192.04128 374.15L192.04128 367.43124Q191.65065 367.79062 191.02565 368.16562Q190.41628 368.525 189.9319 368.69687L189.9319 367.68124Q190.8069 367.25937 191.46315 366.68124Q192.13503 366.0875 192.41628 365.525L193.08815 365.525L193.08815 374.15ZM201.58815 367.66562L200.54128 367.74374Q200.40065 367.11874 200.15065 366.8375Q199.71315 366.38437 199.08815 366.38437Q198.58815 366.38437 198.19753 366.66562Q197.71315 367.04062 197.41628 367.74374Q197.13503 368.43124 197.1194 369.7125Q197.4944 369.13437 198.04128 368.85312Q198.60378 368.57187 199.21315 368.57187Q200.26003 368.57187 200.9944 369.35312Q201.7444 370.13437 201.7444 371.35312Q201.7444 372.16562 201.38503 372.86874Q201.04128 373.55624 200.4319 373.93124Q199.82253 374.29062 199.0569 374.29062Q197.72878 374.29062 196.90065 373.32187Q196.07253 372.35312 196.07253 370.13437Q196.07253 367.63437 196.9944 366.50937Q197.79128 365.525 199.15065 365.525Q200.16628 365.525 200.8069 366.10312Q201.46315 366.66562 201.58815 367.66562ZM197.29128 371.36874Q197.29128 371.91562 197.51003 372.41562Q197.7444 372.9 198.15065 373.16562Q198.57253 373.43124 199.04128 373.43124Q199.69753 373.43124 200.1819 372.9Q200.66628 372.35312 200.66628 371.43124Q200.66628 370.54062 200.1819 370.025Q199.71315 369.50937 198.9944 369.50937Q198.27565 369.50937 197.77565 370.025Q197.29128 370.54062 197.29128 371.36874Z" fill-rule="nonzero"/><path fill="#000000" d="M339.10938 374.15L339.10938 366.57187L336.28125 366.57187L336.28125 365.55624L343.09375 365.55624L343.09375 366.57187L340.25 366.57187L340.25 374.15L339.10938 374.15ZM343.98438 374.15L343.98438 365.55624L349.78125 365.55624L349.78125 366.57187L345.125 366.57187L345.125 369.22812L349.15625 369.22812L349.15625 370.24374L345.125 370.24374L345.125 374.15L343.98438 374.15ZM350.5 371.88437L351.5625 371.74374Q351.73438 372.63437 352.17188 373.04062Q352.60938 373.43124 353.23438 373.43124Q353.98438 373.43124 354.5 372.91562Q355.01562 372.4 355.01562 371.63437Q355.01562 370.91562 354.53125 370.44687Q354.0625 369.9625 353.32812 369.9625Q353.03125 369.9625 352.57812 370.0875L352.70312 369.15Q352.8125 369.16562 352.875 369.16562Q353.54688 369.16562 354.07812 368.82187Q354.625 368.4625 354.625 367.72812Q354.625 367.15 354.23438 366.775Q353.84375 366.38437 353.21875 366.38437Q352.60938 366.38437 352.1875 366.775Q351.78125 367.16562 351.67188 367.93124L350.60938 367.74374Q350.79688 366.69687 351.48438 366.11874Q352.17188 365.525 353.1875 365.525Q353.89062 365.525 354.48438 365.8375Q355.07812 366.13437 355.39062 366.65Q355.70312 367.16562 355.70312 367.75937Q355.70312 368.30624 355.40625 368.775Q355.10938 369.22812 354.53125 369.49374Q355.28125 369.66562 355.70312 370.22812Q356.125 370.775 356.125 371.61874Q356.125 372.74374 355.29688 373.525Q354.48438 374.30624 353.23438 374.30624Q352.10938 374.30624 351.35938 373.63437Q350.60938 372.94687 350.5 371.88437ZM363.04688 373.13437L363.04688 374.15L357.35938 374.15Q357.35938 373.775 357.48438 373.41562Q357.70312 372.8375 358.17188 372.275Q358.65625 371.7125 359.5625 370.97812Q360.96875 369.82187 361.45312 369.15Q361.95312 368.47812 361.95312 367.88437Q361.95312 367.25937 361.5 366.8375Q361.04688 366.4 360.32812 366.4Q359.5625 366.4 359.10938 366.85312Q358.65625 367.30624 358.64062 368.11874L357.5625 368.00937Q357.67188 366.79062 358.39062 366.16562Q359.125 365.525 360.35938 365.525Q361.59375 365.525 362.3125 366.2125Q363.03125 366.9 363.03125 367.91562Q363.03125 368.43124 362.8125 368.93124Q362.60938 369.41562 362.10938 369.97812Q361.625 370.525 360.5 371.47812Q359.54688 372.275 359.26562 372.57187Q359.0 372.85312 358.82812 373.13437L363.04688 373.13437Z" fill-rule="nonzero"/><path fill="#000000" d="M498.36496 374.15L498.36496 365.55624L504.16183 365.55624L504.16183 366.57187L499.50558 366.57187L499.50558 369.22812L503.53683 369.22812L503.53683 370.24374L499.50558 370.24374L499.50558 374.15L498.36496 374.15ZM505.30246 374.15L505.30246 365.55624L508.55246 365.55624Q509.3962 365.55624 509.84933 365.63437Q510.48996 365.74374 510.91183 366.04062Q511.34933 366.3375 511.59933 366.86874Q511.86496 367.4 511.86496 368.04062Q511.86496 369.13437 511.16183 369.9Q510.47433 370.65 508.6462 370.65L506.44308 370.65L506.44308 374.15L505.30246 374.15ZM506.44308 369.65L508.66183 369.65Q509.7712 369.65 510.22433 369.24374Q510.69308 368.82187 510.69308 368.07187Q510.69308 367.54062 510.41183 367.16562Q510.1462 366.775 509.7087 366.65Q509.41183 366.57187 508.6462 366.57187L506.44308 366.57187L506.44308 369.65ZM512.8806 371.88437L513.9431 371.74374Q514.115 372.63437 514.5525 373.04062Q514.99 373.43124 515.615 373.43124Q516.365 373.43124 516.8806 372.91562Q517.39624 372.4 517.39624 371.63437Q517.39624 370.91562 516.91187 370.44687Q516.4431 369.9625 515.70874 369.9625Q515.41187 369.9625 514.95874 370.0875L515.08374 369.15Q515.1931 369.16562 515.2556 369.16562Q515.9275 369.16562 516.45874 368.82187Q517.0056 368.4625 517.0056 367.72812Q517.0056 367.15 516.615 366.775Q516.22437 366.38437 515.59937 366.38437Q514.99 366.38437 514.5681 366.775Q514.16187 367.16562 514.0525 367.93124L512.99 367.74374Q513.1775 366.69687 513.865 366.11874Q514.5525 365.525 515.5681 365.525Q516.27124 365.525 516.865 365.8375Q517.45874 366.13437 517.77124 366.65Q518.08374 367.16562 518.08374 367.75937Q518.08374 368.30624 517.78687 368.775Q517.49 369.22812 516.91187 369.49374Q517.66187 369.66562 518.08374 370.22812Q518.5056 370.775 518.5056 371.61874Q518.5056 372.74374 517.6775 373.525Q516.865 374.30624 515.615 374.30624Q514.49 374.30624 513.74 373.63437Q512.99 372.94687 512.8806 371.88437ZM525.4275 373.13437L525.4275 374.15L519.74 374.15Q519.74 373.775 519.865 373.41562Q520.08374 372.8375 520.5525 372.275Q521.03687 371.7125 521.9431 370.97812Q523.34937 369.82187 523.83374 369.15Q524.33374 368.47812 524.33374 367.88437Q524.33374 367.25937 523.8806 366.8375Q523.4275 366.4 522.70874 366.4Q521.9431 366.4 521.49 366.85312Q521.03687 367.30624 521.02124 368.11874L519.9431 368.00937Q520.0525 366.79062 520.77124 366.16562Q521.5056 365.525 522.74 365.525Q523.97437 365.525 524.6931 366.2125Q525.41187 366.9 525.41187 367.91562Q525.41187 368.43124 525.1931 368.93124Q524.99 369.41562 524.49 369.97812Q524.0056 370.525 522.8806 371.47812Q521.9275 372.275 521.64624 372.57187Q521.3806 372.85312 521.20874 373.13437L525.4275 373.13437Z" fill-rule="nonzero"/><path fill="#4285f4" d="M146.5 59.083332C146.5 58.531048 146.94771 58.083332 147.5 58.083332L157.5 58.083332C158.05229 58.083332 158.5 58.531048 158.5 59.083332L158.5 69.083336C158.5 69.63562 158.05229 70.083336 157.5 70.083336L147.5 70.083336C146.94771 70.083336 146.5 69.63562 146.5 69.083336Z" fill-rule="nonzero"/><path fill="#1a1a1a" d="M167.4375 68.083336L167.4375 59.489586L171.25 59.489586Q172.40625 59.489586 173.0 59.72396Q173.59375 59.958336 173.95312 60.552086Q174.3125 61.13021 174.3125 61.833336Q174.3125 62.75521 173.71875 63.38021Q173.125 64.00521 171.89062 64.177086Q172.34375 64.395836 172.57812 64.59896Q173.07812 65.052086 173.51562 65.739586L175.01562 68.083336L173.57812 68.083336L172.45312 66.302086Q171.95312 65.520836 171.625 65.114586Q171.3125 64.708336 171.04688 64.552086Q170.79688 64.38021 170.53125 64.302086Q170.34375 64.270836 169.90625 64.270836L168.57812 64.270836L168.57812 68.083336L167.4375 68.083336ZM168.57812 63.28646L171.03125 63.28646Q171.79688 63.28646 172.23438 63.13021Q172.6875 62.958336 172.90625 62.614586Q173.14062 62.25521 173.14062 61.833336Q173.14062 61.22396 172.6875 60.833336Q172.25 60.44271 171.29688 60.44271L168.57812 60.44271L168.57812 63.28646ZM178.60938 68.083336L178.60938 60.50521L175.78125 60.50521L175.78125 59.489586L182.59375 59.489586L182.59375 60.50521L179.75 60.50521L179.75 68.083336L178.60938 68.083336ZM182.54688 68.083336L185.875 63.59896L182.95312 59.489586L184.29688 59.489586L185.85938 61.69271Q186.34375 62.38021 186.54688 62.75521Q186.84375 62.28646 187.23438 61.770836L188.95312 59.489586L190.1875 59.489586L187.17188 63.53646L190.42188 68.083336L189.01562 68.083336L186.85938 65.020836Q186.67188 64.75521 186.48438 64.44271Q186.20312 64.91146 186.07812 65.083336L183.92188 68.083336L182.54688 68.083336ZM194.0 65.81771L195.0625 65.677086Q195.23438 66.56771 195.67188 66.97396Q196.10938 67.364586 196.73438 67.364586Q197.48438 67.364586 198.0 66.84896Q198.51562 66.333336 198.51562 65.56771Q198.51562 64.84896 198.03125 64.38021Q197.5625 63.895836 196.82812 63.895836Q196.53125 63.895836 196.07812 64.020836L196.20312 63.083336Q196.3125 63.09896 196.375 63.09896Q197.04688 63.09896 197.57812 62.75521Q198.125 62.395836 198.125 61.66146Q198.125 61.083336 197.73438 60.708336Q197.34375 60.31771 196.71875 60.31771Q196.10938 60.31771 195.6875 60.708336Q195.28125 61.09896 195.17188 61.864586L194.10938 61.677086Q194.29688 60.63021 194.98438 60.052086Q195.67188 59.458336 196.6875 59.458336Q197.39062 59.458336 197.98438 59.770836Q198.57812 60.06771 198.89062 60.583336Q199.20312 61.09896 199.20312 61.69271Q199.20312 62.239586 198.90625 62.708336Q198.60938 63.16146 198.03125 63.427086Q198.78125 63.59896 199.20312 64.16146Q199.625 64.708336 199.625 65.552086Q199.625 66.677086 198.79688 67.458336Q197.98438 68.239586 196.73438 68.239586Q195.60938 68.239586 194.85938 67.56771Q194.10938 66.88021 194.0 65.81771ZM201.0 63.84896Q201.0 62.31771 201.3125 61.395836Q201.625 60.458336 202.23438 59.958336Q202.85938 59.458336 203.79688 59.458336Q204.48438 59.458336 205.0 59.739586Q205.53125 60.020836 205.875 60.552086Q206.21875 61.06771 206.40625 61.81771Q206.59375 62.56771 206.59375 63.84896Q206.59375 65.364586 206.28125 66.28646Q205.98438 67.208336 205.35938 67.72396Q204.75 68.22396 203.79688 68.22396Q202.5625 68.22396 201.84375 67.333336Q201.0 66.270836 201.0 63.84896ZM202.07812 63.84896Q202.07812 65.958336 202.57812 66.66146Q203.07812 67.364586 203.79688 67.364586Q204.53125 67.364586 205.01562 66.66146Q205.51562 65.958336 205.51562 63.84896Q205.51562 61.72396 205.01562 61.03646Q204.53125 60.333336 203.78125 60.333336Q203.0625 60.333336 202.625 60.94271Q202.07812 61.72396 202.07812 63.84896ZM208.15625 66.09896L209.17188 66.00521Q209.29688 66.72396 209.65625 67.052086Q210.03125 67.364586 210.59375 67.364586Q211.07812 67.364586 211.4375 67.145836Q211.8125 66.91146 212.04688 66.552086Q212.28125 66.177086 212.4375 65.552086Q212.59375 64.91146 212.59375 64.25521Q212.59375 64.177086 212.59375 64.03646Q212.28125 64.53646 211.73438 64.864586Q211.1875 65.177086 210.54688 65.177086Q209.46875 65.177086 208.73438 64.41146Q208.0 63.63021 208.0 62.364586Q208.0 61.052086 208.76562 60.25521Q209.54688 59.458336 210.70312 59.458336Q211.53125 59.458336 212.21875 59.91146Q212.92188 60.364586 213.28125 61.208336Q213.64062 62.03646 213.64062 63.614586Q213.64062 65.25521 213.28125 66.239586Q212.9375 67.208336 212.21875 67.72396Q211.51562 68.22396 210.57812 68.22396Q209.5625 68.22396 208.92188 67.677086Q208.28125 67.114586 208.15625 66.09896ZM212.46875 62.302086Q212.46875 61.395836 211.98438 60.864586Q211.51562 60.333336 210.82812 60.333336Q210.125 60.333336 209.59375 60.91146Q209.07812 61.47396 209.07812 62.395836Q209.07812 63.208336 209.57812 63.72396Q210.07812 64.239586 210.79688 64.239586Q211.53125 64.239586 212.0 63.72396Q212.46875 63.208336 212.46875 62.302086ZM215.0 63.84896Q215.0 62.31771 215.3125 61.395836Q215.625 60.458336 216.23438 59.958336Q216.85938 59.458336 217.79688 59.458336Q218.48438 59.458336 219.0 59.739586Q219.53125 60.020836 219.875 60.552086Q220.21875 61.06771 220.40625 61.81771Q220.59375 62.56771 220.59375 63.84896Q220.59375 65.364586 220.28125 66.28646Q219.98438 67.208336 219.35938 67.72396Q218.75 68.22396 217.79688 68.22396Q216.5625 68.22396 215.84375 67.333336Q215.0 66.270836 215.0 63.84896ZM216.07812 63.84896Q216.07812 65.958336 216.57812 66.66146Q217.07812 67.364586 217.79688 67.364586Q218.53125 67.364586 219.01562 66.66146Q219.51562 65.958336 219.51562 63.84896Q219.51562 61.72396 219.01562 61.03646Q218.53125 60.333336 217.78125 60.333336Q217.0625 60.333336 216.625 60.94271Q216.07812 61.72396 216.07812 63.84896Z" fill-rule="nonzero"/><path fill="#ea4335" d="M237.5 59.083332C237.5 58.531048 237.94771 58.083332 238.5 58.083332L248.5 58.083332C249.05229 58.083332 249.5 58.531048 249.5 59.083332L249.5 69.083336C249.5 69.63562 249.05229 70.083336 248.5 70.083336L238.5 70.083336C237.94771 70.083336 237.5 69.63562 237.5 69.083336Z" fill-rule="nonzero"/><path fill="#1a1a1a" d="M260.60938 68.083336L260.60938 60.50521L257.78125 60.50521L257.78125 59.489586L264.59375 59.489586L264.59375 60.50521L261.75 60.50521L261.75 68.083336L260.60938 68.083336ZM265.29688 60.708336L265.29688 59.489586L266.35938 59.489586L266.35938 60.708336L265.29688 60.708336ZM265.29688 68.083336L265.29688 61.864586L266.35938 61.864586L266.35938 68.083336L265.29688 68.083336ZM270.59375 67.145836L270.75 68.06771Q270.29688 68.16146 269.95312 68.16146Q269.375 68.16146 269.0625 67.989586Q268.75 67.802086 268.60938 67.50521Q268.48438 67.208336 268.48438 66.25521L268.48438 62.677086L267.71875 62.677086L267.71875 61.864586L268.48438 61.864586L268.48438 60.31771L269.53125 59.69271L269.53125 61.864586L270.59375 61.864586L270.59375 62.677086L269.53125 62.677086L269.53125 66.31771Q269.53125 66.770836 269.57812 66.895836Q269.64062 67.020836 269.76562 67.09896Q269.89062 67.177086 270.125 67.177086Q270.3125 67.177086 270.59375 67.145836ZM275.35938 67.31771Q274.76562 67.81771 274.21875 68.020836Q273.6875 68.22396 273.0625 68.22396Q272.03125 68.22396 271.48438 67.72396Q270.9375 67.22396 270.9375 66.44271Q270.9375 65.989586 271.14062 65.614586Q271.34375 65.22396 271.6875 65.00521Q272.03125 64.770836 272.45312 64.66146Q272.75 64.56771 273.39062 64.489586Q274.65625 64.34896 275.26562 64.13021Q275.26562 63.91146 275.26562 63.864586Q275.26562 63.208336 274.96875 62.94271Q274.5625 62.59896 273.76562 62.59896Q273.03125 62.59896 272.67188 62.864586Q272.3125 63.114586 272.14062 63.770836L271.10938 63.63021Q271.25 62.97396 271.57812 62.56771Q271.90625 62.16146 272.51562 61.94271Q273.125 61.72396 273.92188 61.72396Q274.71875 61.72396 275.21875 61.91146Q275.71875 62.09896 275.95312 62.38021Q276.1875 62.66146 276.28125 63.09896Q276.32812 63.364586 276.32812 64.06771L276.32812 65.47396Q276.32812 66.94271 276.39062 67.333336Q276.46875 67.72396 276.67188 68.083336L275.5625 68.083336Q275.40625 67.75521 275.35938 67.31771ZM275.26562 64.958336Q274.6875 65.19271 273.54688 65.364586Q272.89062 65.458336 272.625 65.583336Q272.35938 65.69271 272.20312 65.91146Q272.0625 66.13021 272.0625 66.41146Q272.0625 66.833336 272.375 67.114586Q272.70312 67.395836 273.3125 67.395836Q273.92188 67.395836 274.39062 67.13021Q274.875 66.864586 275.09375 66.395836Q275.26562 66.03646 275.26562 65.34896L275.26562 64.958336ZM278.29688 68.083336L278.29688 61.864586L279.23438 61.864586L279.23438 62.739586Q279.92188 61.72396 281.21875 61.72396Q281.78125 61.72396 282.25 61.927086Q282.73438 62.13021 282.96875 62.458336Q283.20312 62.78646 283.29688 63.22396Q283.34375 63.520836 283.34375 64.25521L283.34375 68.083336L282.29688 68.083336L282.29688 64.302086Q282.29688 63.645836 282.17188 63.333336Q282.04688 63.020836 281.73438 62.833336Q281.42188 62.63021 281.0 62.63021Q280.32812 62.63021 279.82812 63.06771Q279.34375 63.489586 279.34375 64.677086L279.34375 68.083336L278.29688 68.083336ZM288.4375 68.083336L288.4375 59.489586L292.25 59.489586Q293.40625 59.489586 294.0 59.72396Q294.59375 59.958336 294.95312 60.552086Q295.3125 61.13021 295.3125 61.833336Q295.3125 62.75521 294.71875 63.38021Q294.125 64.00521 292.89062 64.177086Q293.34375 64.395836 293.57812 64.59896Q294.07812 65.052086 294.51562 65.739586L296.01562 68.083336L294.57812 68.083336L293.45312 66.302086Q292.95312 65.520836 292.625 65.114586Q292.3125 64.708336 292.04688 64.552086Q291.79688 64.38021 291.53125 64.302086Q291.34375 64.270836 290.90625 64.270836L289.57812 64.270836L289.57812 68.083336L288.4375 68.083336ZM289.57812 63.28646L292.03125 63.28646Q292.79688 63.28646 293.23438 63.13021Q293.6875 62.958336 293.90625 62.614586Q294.14062 62.25521 294.14062 61.833336Q294.14062 61.22396 293.6875 60.833336Q293.25 60.44271 292.29688 60.44271L289.57812 60.44271L289.57812 63.28646ZM299.60938 68.083336L299.60938 60.50521L296.78125 60.50521L296.78125 59.489586L303.59375 59.489586L303.59375 60.50521L300.75 60.50521L300.75 68.083336L299.60938 68.083336ZM303.54688 68.083336L306.875 63.59896L303.95312 59.489586L305.29688 59.489586L306.85938 61.69271Q307.34375 62.38021 307.54688 62.75521Q307.84375 62.28646 308.23438 61.770836L309.95312 59.489586L311.1875 59.489586L308.17188 63.53646L311.42188 68.083336L310.01562 68.083336L307.85938 65.020836Q307.67188 64.75521 307.48438 64.44271Q307.20312 64.91146 307.07812 65.083336L304.92188 68.083336L303.54688 68.083336ZM317.3125 70.614586Q316.4375 69.50521 315.82812 68.03646Q315.23438 66.552086 315.23438 64.97396Q315.23438 63.583336 315.67188 62.302086Q316.20312 60.81771 317.3125 59.34896L318.0625 59.34896Q317.35938 60.56771 317.125 61.083336Q316.76562 61.895836 316.5625 62.770836Q316.3125 63.864586 316.3125 64.97396Q316.3125 67.802086 318.0625 70.614586L317.3125 70.614586ZM319.42188 68.083336L319.42188 59.489586L322.39062 59.489586Q323.39062 59.489586 323.92188 59.614586Q324.65625 59.78646 325.17188 60.22396Q325.85938 60.802086 326.1875 61.708336Q326.53125 62.59896 326.53125 63.739586Q326.53125 64.72396 326.29688 65.47396Q326.07812 66.22396 325.71875 66.72396Q325.35938 67.22396 324.92188 67.50521Q324.5 67.78646 323.90625 67.94271Q323.3125 68.083336 322.53125 68.083336L319.42188 68.083336ZM320.5625 67.06771L322.39062 67.06771Q323.25 67.06771 323.73438 66.91146Q324.21875 66.75521 324.5 66.458336Q324.90625 66.06771 325.125 65.38021Q325.35938 64.69271 325.35938 63.72396Q325.35938 62.38021 324.90625 61.66146Q324.46875 60.927086 323.84375 60.677086Q323.375 60.50521 322.375 60.50521L320.5625 60.50521L320.5625 67.06771ZM332.54688 66.083336L333.64062 66.208336Q333.39062 67.16146 332.6875 67.69271Q331.98438 68.22396 330.90625 68.22396Q329.54688 68.22396 328.73438 67.38021Q327.9375 66.53646 327.9375 65.020836Q327.9375 63.458336 328.75 62.59896Q329.5625 61.72396 330.84375 61.72396Q332.09375 61.72396 332.875 62.56771Q333.67188 63.41146 333.67188 64.958336Q333.67188 65.052086 333.67188 65.239586L329.03125 65.239586Q329.09375 66.270836 329.60938 66.81771Q330.125 67.34896 330.90625 67.34896Q331.48438 67.34896 331.89062 67.052086Q332.3125 66.739586 332.54688 66.083336ZM329.09375 64.38021L332.5625 64.38021Q332.5 63.583336 332.17188 63.19271Q331.65625 62.583336 330.85938 62.583336Q330.125 62.583336 329.625 63.06771Q329.14062 63.552086 329.09375 64.38021ZM335.54688 68.083336L335.54688 62.677086L334.60938 62.677086L334.60938 61.864586L335.54688 61.864586L335.54688 61.19271Q335.54688 60.56771 335.65625 60.270836Q335.8125 59.84896 336.1875 59.59896Q336.57812 59.34896 337.26562 59.34896Q337.71875 59.34896 338.25 59.458336L338.09375 60.364586Q337.76562 60.31771 337.46875 60.31771Q336.98438 60.31771 336.78125 60.520836Q336.59375 60.72396 336.59375 61.28646L336.59375 61.864586L337.8125 61.864586L337.8125 62.677086L336.59375 62.677086L336.59375 68.083336L335.54688 68.083336ZM342.35938 67.31771Q341.76562 67.81771 341.21875 68.020836Q340.6875 68.22396 340.0625 68.22396Q339.03125 68.22396 338.48438 67.72396Q337.9375 67.22396 337.9375 66.44271Q337.9375 65.989586 338.14062 65.614586Q338.34375 65.22396 338.6875 65.00521Q339.03125 64.770836 339.45312 64.66146Q339.75 64.56771 340.39062 64.489586Q341.65625 64.34896 342.26562 64.13021Q342.26562 63.91146 342.26562 63.864586Q342.26562 63.208336 341.96875 62.94271Q341.5625 62.59896 340.76562 62.59896Q340.03125 62.59896 339.67188 62.864586Q339.3125 63.114586 339.14062 63.770836L338.10938 63.63021Q338.25 62.97396 338.57812 62.56771Q338.90625 62.16146 339.51562 61.94271Q340.125 61.72396 340.92188 61.72396Q341.71875 61.72396 342.21875 61.91146Q342.71875 62.09896 342.95312 62.38021Q343.1875 62.66146 343.28125 63.09896Q343.32812 63.364586 343.32812 64.06771L343.32812 65.47396Q343.32812 66.94271 343.39062 67.333336Q343.46875 67.72396 343.67188 68.083336L342.5625 68.083336Q342.40625 67.75521 342.35938 67.31771ZM342.26562 64.958336Q341.6875 65.19271 340.54688 65.364586Q339.89062 65.458336 339.625 65.583336Q339.35938 65.69271 339.20312 65.91146Q339.0625 66.13021 339.0625 66.41146Q339.0625 66.833336 339.375 67.114586Q339.70312 67.395836 340.3125 67.395836Q340.92188 67.395836 341.39062 67.13021Q341.875 66.864586 342.09375 66.395836Q342.26562 66.03646 342.26562 65.34896L342.26562 64.958336ZM349.375 68.083336L349.375 67.16146Q348.64062 68.22396 347.39062 68.22396Q346.84375 68.22396 346.35938 68.020836Q345.89062 67.802086 345.65625 67.489586Q345.42188 67.16146 345.32812 66.69271Q345.26562 66.395836 345.26562 65.708336L345.26562 61.864586L346.32812 61.864586L346.32812 65.31771Q346.32812 66.13021 346.39062 66.427086Q346.48438 66.833336 346.79688 67.083336Q347.125 67.31771 347.60938 67.31771Q348.07812 67.31771 348.48438 67.083336Q348.90625 66.833336 349.07812 66.41146Q349.26562 65.989586 349.26562 65.19271L349.26562 61.864586L350.3125 61.864586L350.3125 68.083336L349.375 68.083336ZM352.26562 68.083336L352.26562 59.489586L353.32812 59.489586L353.32812 68.083336L352.26562 68.083336ZM357.59375 67.145836L357.75 68.06771Q357.29688 68.16146 356.95312 68.16146Q356.375 68.16146 356.0625 67.989586Q355.75 67.802086 355.60938 67.50521Q355.48438 67.208336 355.48438 66.25521L355.48438 62.677086L354.71875 62.677086L354.71875 61.864586L355.48438 61.864586L355.48438 60.31771L356.53125 59.69271L356.53125 61.864586L357.59375 61.864586L357.59375 62.677086L356.53125 62.677086L356.53125 66.31771Q356.53125 66.770836 356.57812 66.895836Q356.64062 67.020836 356.76562 67.09896Q356.89062 67.177086 357.125 67.177086Q357.3125 67.177086 357.59375 67.145836ZM358.98438 70.614586L358.23438 70.614586Q359.98438 67.802086 359.98438 64.97396Q359.98438 63.88021 359.73438 62.78646Q359.53125 61.91146 359.17188 61.09896Q358.9375 60.583336 358.23438 59.34896L358.98438 59.34896Q360.07812 60.81771 360.60938 62.302086Q361.0625 63.583336 361.0625 64.97396Q361.0625 66.552086 360.45312 68.03646Q359.84375 69.50521 358.98438 70.614586Z" fill-rule="nonzero"/><path fill="#fbbc04" d="M377.5 59.083332C377.5 58.531048 377.94772 58.083332 378.5 58.083332L388.5 58.083332C389.05228 58.083332 389.5 58.531048 389.5 59.083332L389.5 69.083336C389.5 69.63562 389.05228 70.083336 388.5 70.083336L378.5 70.083336C377.94772 70.083336 377.5 69.63562 377.5 69.083336Z" fill-rule="nonzero"/><path fill="#1a1a1a" d="M400.60938 68.083336L400.60938 60.50521L397.78125 60.50521L397.78125 59.489586L404.59375 59.489586L404.59375 60.50521L401.75 60.50521L401.75 68.083336L400.60938 68.083336ZM405.29688 60.708336L405.29688 59.489586L406.35938 59.489586L406.35938 60.708336L405.29688 60.708336ZM405.29688 68.083336L405.29688 61.864586L406.35938 61.864586L406.35938 68.083336L405.29688 68.083336ZM410.59375 67.145836L410.75 68.06771Q410.29688 68.16146 409.95312 68.16146Q409.375 68.16146 409.0625 67.989586Q408.75 67.802086 408.60938 67.50521Q408.48438 67.208336 408.48438 66.25521L408.48438 62.677086L407.71875 62.677086L407.71875 61.864586L408.48438 61.864586L408.48438 60.31771L409.53125 59.69271L409.53125 61.864586L410.59375 61.864586L410.59375 62.677086L409.53125 62.677086L409.53125 66.31771Q409.53125 66.770836 409.57812 66.895836Q409.64062 67.020836 409.76562 67.09896Q409.89062 67.177086 410.125 67.177086Q410.3125 67.177086 410.59375 67.145836ZM415.35938 67.31771Q414.76562 67.81771 414.21875 68.020836Q413.6875 68.22396 413.0625 68.22396Q412.03125 68.22396 411.48438 67.72396Q410.9375 67.22396 410.9375 66.44271Q410.9375 65.989586 411.14062 65.614586Q411.34375 65.22396 411.6875 65.00521Q412.03125 64.770836 412.45312 64.66146Q412.75 64.56771 413.39062 64.489586Q414.65625 64.34896 415.26562 64.13021Q415.26562 63.91146 415.26562 63.864586Q415.26562 63.208336 414.96875 62.94271Q414.5625 62.59896 413.76562 62.59896Q413.03125 62.59896 412.67188 62.864586Q412.3125 63.114586 412.14062 63.770836L411.10938 63.63021Q411.25 62.97396 411.57812 62.56771Q411.90625 62.16146 412.51562 61.94271Q413.125 61.72396 413.92188 61.72396Q414.71875 61.72396 415.21875 61.91146Q415.71875 62.09896 415.95312 62.38021Q416.1875 62.66146 416.28125 63.09896Q416.32812 63.364586 416.32812 64.06771L416.32812 65.47396Q416.32812 66.94271 416.39062 67.333336Q416.46875 67.72396 416.67188 68.083336L415.5625 68.083336Q415.40625 67.75521 415.35938 67.31771ZM415.26562 64.958336Q414.6875 65.19271 413.54688 65.364586Q412.89062 65.458336 412.625 65.583336Q412.35938 65.69271 412.20312 65.91146Q412.0625 66.13021 412.0625 66.41146Q412.0625 66.833336 412.375 67.114586Q412.70312 67.395836 413.3125 67.395836Q413.92188 67.395836 414.39062 67.13021Q414.875 66.864586 415.09375 66.395836Q415.26562 66.03646 415.26562 65.34896L415.26562 64.958336ZM418.29688 68.083336L418.29688 61.864586L419.23438 61.864586L419.23438 62.739586Q419.92188 61.72396 421.21875 61.72396Q421.78125 61.72396 422.25 61.927086Q422.73438 62.13021 422.96875 62.458336Q423.20312 62.78646 423.29688 63.22396Q423.34375 63.520836 423.34375 64.25521L423.34375 68.083336L422.29688 68.083336L422.29688 64.302086Q422.29688 63.645836 422.17188 63.333336Q422.04688 63.020836 421.73438 62.833336Q421.42188 62.63021 421.0 62.63021Q420.32812 62.63021 419.82812 63.06771Q419.34375 63.489586 419.34375 64.677086L419.34375 68.083336L418.29688 68.083336ZM428.4375 68.083336L428.4375 59.489586L432.25 59.489586Q433.40625 59.489586 434.0 59.72396Q434.59375 59.958336 434.95312 60.552086Q435.3125 61.13021 435.3125 61.833336Q435.3125 62.75521 434.71875 63.38021Q434.125 64.00521 432.89062 64.177086Q433.34375 64.395836 433.57812 64.59896Q434.07812 65.052086 434.51562 65.739586L436.01562 68.083336L434.57812 68.083336L433.45312 66.302086Q432.95312 65.520836 432.625 65.114586Q432.3125 64.708336 432.04688 64.552086Q431.79688 64.38021 431.53125 64.302086Q431.34375 64.270836 430.90625 64.270836L429.57812 64.270836L429.57812 68.083336L428.4375 68.083336ZM429.57812 63.28646L432.03125 63.28646Q432.79688 63.28646 433.23438 63.13021Q433.6875 62.958336 433.90625 62.614586Q434.14062 62.25521 434.14062 61.833336Q434.14062 61.22396 433.6875 60.833336Q433.25 60.44271 432.29688 60.44271L429.57812 60.44271L429.57812 63.28646ZM439.60938 68.083336L439.60938 60.50521L436.78125 60.50521L436.78125 59.489586L443.59375 59.489586L443.59375 60.50521L440.75 60.50521L440.75 68.083336L439.60938 68.083336ZM443.54688 68.083336L446.875 63.59896L443.95312 59.489586L445.29688 59.489586L446.85938 61.69271Q447.34375 62.38021 447.54688 62.75521Q447.84375 62.28646 448.23438 61.770836L449.95312 59.489586L451.1875 59.489586L448.17188 63.53646L451.42188 68.083336L450.01562 68.083336L447.85938 65.020836Q447.67188 64.75521 447.48438 64.44271Q447.20312 64.91146 447.07812 65.083336L444.92188 68.083336L443.54688 68.083336ZM457.3125 70.614586Q456.4375 69.50521 455.82812 68.03646Q455.23438 66.552086 455.23438 64.97396Q455.23438 63.583336 455.67188 62.302086Q456.20312 60.81771 457.3125 59.34896L458.0625 59.34896Q457.35938 60.56771 457.125 61.083336Q456.76562 61.895836 456.5625 62.770836Q456.3125 63.864586 456.3125 64.97396Q456.3125 67.802086 458.0625 70.614586L457.3125 70.614586ZM459.0 65.81771L460.0625 65.677086Q460.23438 66.56771 460.67188 66.97396Q461.10938 67.364586 461.73438 67.364586Q462.48438 67.364586 463.0 66.84896Q463.51562 66.333336 463.51562 65.56771Q463.51562 64.84896 463.03125 64.38021Q462.5625 63.895836 461.82812 63.895836Q461.53125 63.895836 461.07812 64.020836L461.20312 63.083336Q461.3125 63.09896 461.375 63.09896Q462.04688 63.09896 462.57812 62.75521Q463.125 62.395836 463.125 61.66146Q463.125 61.083336 462.73438 60.708336Q462.34375 60.31771 461.71875 60.31771Q461.10938 60.31771 460.6875 60.708336Q460.28125 61.09896 460.17188 61.864586L459.10938 61.677086Q459.29688 60.63021 459.98438 60.052086Q460.67188 59.458336 461.6875 59.458336Q462.39062 59.458336 462.98438 59.770836Q463.57812 60.06771 463.89062 60.583336Q464.20312 61.09896 464.20312 61.69271Q464.20312 62.239586 463.90625 62.708336Q463.60938 63.16146 463.03125 63.427086Q463.78125 63.59896 464.20312 64.16146Q464.625 64.708336 464.625 65.552086Q464.625 66.677086 463.79688 67.458336Q462.98438 68.239586 461.73438 68.239586Q460.60938 68.239586 459.85938 67.56771Q459.10938 66.88021 459.0 65.81771ZM471.54688 67.06771L471.54688 68.083336L465.85938 68.083336Q465.85938 67.708336 465.98438 67.34896Q466.20312 66.770836 466.67188 66.208336Q467.15625 65.645836 468.0625 64.91146Q469.46875 63.75521 469.95312 63.083336Q470.45312 62.41146 470.45312 61.81771Q470.45312 61.19271 470.0 60.770836Q469.54688 60.333336 468.82812 60.333336Q468.0625 60.333336 467.60938 60.78646Q467.15625 61.239586 467.14062 62.052086L466.0625 61.94271Q466.17188 60.72396 466.89062 60.09896Q467.625 59.458336 468.85938 59.458336Q470.09375 59.458336 470.8125 60.145836Q471.53125 60.833336 471.53125 61.84896Q471.53125 62.364586 471.3125 62.864586Q471.10938 63.34896 470.60938 63.91146Q470.125 64.458336 469.0 65.41146Q468.04688 66.208336 467.76562 66.50521Q467.5 66.78646 467.32812 67.06771L471.54688 67.06771ZM473.0 63.84896Q473.0 62.31771 473.3125 61.395836Q473.625 60.458336 474.23438 59.958336Q474.85938 59.458336 475.79688 59.458336Q476.48438 59.458336 477.0 59.739586Q477.53125 60.020836 477.875 60.552086Q478.21875 61.06771 478.40625 61.81771Q478.59375 62.56771 478.59375 63.84896Q478.59375 65.364586 478.28125 66.28646Q477.98438 67.208336 477.35938 67.72396Q476.75 68.22396 475.79688 68.22396Q474.5625 68.22396 473.84375 67.333336Q473.0 66.270836 473.0 63.84896ZM474.07812 63.84896Q474.07812 65.958336 474.57812 66.66146Q475.07812 67.364586 475.79688 67.364586Q476.53125 67.364586 477.01562 66.66146Q477.51562 65.958336 477.51562 63.84896Q477.51562 61.72396 477.01562 61.03646Q476.53125 60.333336 475.78125 60.333336Q475.0625 60.333336 474.625 60.94271Q474.07812 61.72396 474.07812 63.84896ZM481.92188 68.083336L479.64062 59.489586L480.8125 59.489586L482.125 65.13021Q482.32812 66.00521 482.48438 66.88021Q482.8125 65.50521 482.875 65.28646L484.5 59.489586L485.875 59.489586L487.10938 63.833336Q487.5625 65.458336 487.78125 66.88021Q487.9375 66.06771 488.20312 65.00521L489.54688 59.489586L490.6875 59.489586L488.34375 68.083336L487.23438 68.083336L485.4375 61.53646Q485.20312 60.72396 485.15625 60.53646Q485.03125 61.114586 484.90625 61.53646L483.09375 68.083336L481.92188 68.083336ZM491.98438 70.614586L491.23438 70.614586Q492.98438 67.802086 492.98438 64.97396Q492.98438 63.88021 492.73438 62.78646Q492.53125 61.91146 492.17188 61.09896Q491.9375 60.583336 491.23438 59.34896L491.98438 59.34896Q493.07812 60.81771 493.60938 62.302086Q494.0625 63.583336 494.0625 64.97396Q494.0625 66.552086 493.45312 68.03646Q492.84375 69.50521 491.98438 70.614586Z" fill-rule="nonzero"/><path fill="#757575" d="M21.428125 38.85L21.428125 24.537498L27.771875 24.537498Q29.678125 24.537498 30.678125 24.928123Q31.678125 25.303123 32.271873 26.287498Q32.865623 27.256248 32.865623 28.443748Q32.865623 29.959373 31.88125 31.006248Q30.896875 32.053123 28.834375 32.334373Q29.584375 32.69375 29.975 33.053123Q30.803125 33.803123 31.553125 34.959373L34.0375 38.85L31.6625 38.85L29.75625 35.865623Q28.928125 34.584373 28.396875 33.896873Q27.865625 33.209373 27.428125 32.94375Q27.00625 32.6625 26.56875 32.553123Q26.240625 32.490623 25.521875 32.490623L23.31875 32.490623L23.31875 38.85L21.428125 38.85ZM23.31875 30.849998L27.396875 30.849998Q28.69375 30.849998 29.4125 30.584373Q30.146875 30.318748 30.521875 29.724998Q30.9125 29.131248 30.9125 28.443748Q30.9125 27.428123 30.178125 26.771873Q29.44375 26.115623 27.85 26.115623L23.31875 26.115623L23.31875 30.849998ZM39.0375 38.85L39.0375 26.224998L34.31875 26.224998L34.31875 24.537498L45.6625 24.537498L45.6625 26.224998L40.928123 26.224998L40.928123 38.85L39.0375 38.85ZM45.94375 38.85L51.475 31.381248L46.6 24.537498L48.85 24.537498L51.44375 28.209373Q52.25625 29.349998 52.6 29.959373Q53.084373 29.178123 53.725 28.334373L56.615623 24.537498L58.678123 24.537498L53.646873 31.287498L59.06875 38.85L56.725 38.85L53.115623 33.740623Q52.81875 33.303123 52.490623 32.7875Q52.00625 33.56875 51.803123 33.865623L48.209373 38.85L45.94375 38.85ZM65.69375 35.06875L67.44375 34.834373Q67.75625 36.334373 68.475 36.990623Q69.20937 37.646873 70.25625 37.646873Q71.49062 37.646873 72.33437 36.7875Q73.19375 35.928123 73.19375 34.6625Q73.19375 33.44375 72.39687 32.6625Q71.61562 31.881248 70.39687 31.881248Q69.89687 31.881248 69.1625 32.06875L69.35 30.521873Q69.52187 30.553123 69.63125 30.553123Q70.75625 30.553123 71.64687 29.974998Q72.55312 29.381248 72.55312 28.162498Q72.55312 27.193748 71.89687 26.553123Q71.24062 25.912498 70.20937 25.912498Q69.19375 25.912498 68.50625 26.568748Q67.81875 27.209373 67.63125 28.490623L65.86562 28.178123Q66.19375 26.412498 67.33437 25.443748Q68.475 24.474998 70.17812 24.474998Q71.35 24.474998 72.33437 24.974998Q73.31875 25.474998 73.83437 26.349998Q74.36562 27.224998 74.36562 28.193748Q74.36562 29.115623 73.86562 29.881248Q73.36562 30.646873 72.39687 31.099998Q73.6625 31.381248 74.36562 32.31875Q75.06875 33.240623 75.06875 34.615623Q75.06875 36.490623 73.69375 37.803123Q72.33437 39.1 70.24062 39.1Q68.35 39.1 67.1 37.975Q65.86562 36.85 65.69375 35.06875ZM76.67812 31.787498Q76.67812 29.256248 77.19375 27.709373Q77.725 26.146873 78.75625 25.318748Q79.7875 24.474998 81.35 24.474998Q82.50625 24.474998 83.36562 24.943748Q84.24062 25.396873 84.80312 26.271873Q85.36562 27.146873 85.69375 28.412498Q86.02187 29.662498 86.02187 31.787498Q86.02187 34.303123 85.49062 35.85Q84.975 37.396873 83.94375 38.25625Q82.92812 39.1 81.35 39.1Q79.27187 39.1 78.1 37.615623Q76.67812 35.81875 76.67812 31.787498ZM78.49062 31.787498Q78.49062 35.31875 79.30312 36.490623Q80.13125 37.646873 81.35 37.646873Q82.55312 37.646873 83.38125 36.475Q84.20937 35.303123 84.20937 31.787498Q84.20937 28.256248 83.38125 27.099998Q82.55312 25.928123 81.33437 25.928123Q80.11562 25.928123 79.39687 26.959373Q78.49062 28.256248 78.49062 31.787498ZM87.94375 35.5375L89.63125 35.38125Q89.85 36.56875 90.44375 37.115623Q91.05312 37.646873 92.00625 37.646873Q92.81875 37.646873 93.42812 37.2875Q94.0375 36.9125 94.42812 36.2875Q94.81875 35.6625 95.08437 34.615623Q95.35 33.553123 95.35 32.459373Q95.35 32.35 95.33437 32.115623Q94.80312 32.94375 93.89687 33.475Q92.99062 33.990623 91.9125 33.990623Q90.14687 33.990623 88.9125 32.709373Q87.67812 31.412498 87.67812 29.303123Q87.67812 27.131248 88.95937 25.803123Q90.25625 24.474998 92.17812 24.474998Q93.58437 24.474998 94.74062 25.224998Q95.89687 25.974998 96.49062 27.365623Q97.1 28.756248 97.1 31.396873Q97.1 34.146873 96.49062 35.771873Q95.89687 37.396873 94.725 38.25625Q93.55312 39.1 91.975 39.1Q90.2875 39.1 89.225 38.1625Q88.1625 37.225 87.94375 35.5375ZM95.14687 29.224998Q95.14687 27.709373 94.33437 26.818748Q93.5375 25.928123 92.39687 25.928123Q91.225 25.928123 90.35 26.896873Q89.49062 27.849998 89.49062 29.365623Q89.49062 30.740623 90.30312 31.599998Q91.13125 32.44375 92.35 32.44375Q93.56875 32.44375 94.35 31.599998Q95.14687 30.740623 95.14687 29.224998ZM98.67812 31.787498Q98.67812 29.256248 99.19375 27.709373Q99.725 26.146873 100.75625 25.318748Q101.7875 24.474998 103.35 24.474998Q104.50625 24.474998 105.36562 24.943748Q106.24062 25.396873 106.80312 26.271873Q107.36562 27.146873 107.69375 28.412498Q108.02187 29.662498 108.02187 31.787498Q108.02187 34.303123 107.49062 35.85Q106.975 37.396873 105.94375 38.25625Q104.92812 39.1 103.35 39.1Q101.27187 39.1 100.1 37.615623Q98.67812 35.81875 98.67812 31.787498ZM100.49062 31.787498Q100.49062 35.31875 101.30312 36.490623Q102.13125 37.646873 103.35 37.646873Q104.55312 37.646873 105.38125 36.475Q106.20937 35.303123 106.20937 31.787498Q106.20937 28.256248 105.38125 27.099998Q104.55312 25.928123 103.33437 25.928123Q102.11562 25.928123 101.39687 26.959373Q100.49062 28.256248 100.49062 31.787498ZM119.05312 38.85L115.1 28.474998L116.95937 28.474998L119.19375 34.69375Q119.55312 35.69375 119.85 36.771873Q120.08437 35.959373 120.50625 34.803123L122.80312 28.474998L124.61562 28.474998L120.69375 38.85L119.05312 38.85ZM125.45937 35.75625L127.20937 35.475Q127.35 36.521873 128.02188 37.084373Q128.69376 37.63125 129.89688 37.63125Q131.1 37.63125 131.67813 37.146873Q132.27188 36.646873 132.27188 35.990623Q132.27188 35.396873 131.75626 35.053123Q131.39688 34.81875 129.95938 34.459373Q128.02188 33.959373 127.27187 33.615623Q126.5375 33.25625 126.14687 32.63125Q125.75625 31.990623 125.75625 31.224998Q125.75625 30.537498 126.06875 29.943748Q126.39687 29.349998 126.94375 28.959373Q127.35 28.662498 128.05313 28.459373Q128.77188 28.240623 129.58438 28.240623Q130.80313 28.240623 131.725 28.599998Q132.64688 28.943748 133.08438 29.553123Q133.52188 30.146873 133.69376 31.146873L131.975 31.381248Q131.85 30.584373 131.2875 30.146873Q130.725 29.693748 129.70938 29.693748Q128.49063 29.693748 127.975 30.099998Q127.45937 30.490623 127.45937 31.021873Q127.45937 31.365623 127.67812 31.646873Q127.88125 31.928123 128.35 32.115623Q128.61563 32.209373 129.89688 32.553123Q131.77188 33.053123 132.50626 33.38125Q133.24063 33.69375 133.6625 34.303123Q134.08438 34.896873 134.08438 35.803123Q134.08438 36.678123 133.56876 37.459373Q133.05313 38.240623 132.08438 38.6625Q131.11563 39.084373 129.89688 39.084373Q127.88125 39.084373 126.81875 38.240623Q125.75625 37.396873 125.45937 35.75625ZM146.0375 38.85L146.0375 26.224998L141.31876 26.224998L141.31876 24.537498L152.6625 24.537498L152.6625 26.224998L147.92813 26.224998L147.92813 38.85L146.0375 38.85ZM154.17813 26.553123L154.17813 24.537498L155.94376 24.537498L155.94376 26.553123L154.17813 26.553123ZM154.17813 38.85L154.17813 28.474998L155.94376 28.474998L155.94376 38.85L154.17813 38.85ZM162.00626 37.271873L162.25626 38.834373Q161.52188 38.990623 160.92813 38.990623Q159.975 38.990623 159.44376 38.69375Q158.92813 38.38125 158.70938 37.896873Q158.49063 37.396873 158.49063 35.81875L158.49063 29.849998L157.20938 29.849998L157.20938 28.474998L158.49063 28.474998L158.49063 25.912498L160.24063 24.849998L160.24063 28.474998L162.00626 28.474998L162.00626 29.849998L160.24063 29.849998L160.24063 35.9125Q160.24063 36.6625 160.33438 36.88125Q160.42813 37.084373 160.63126 37.225Q160.85 37.35 161.24063 37.35Q161.52188 37.35 162.00626 37.271873ZM170.94376 37.56875Q169.95938 38.396873 169.05313 38.740623Q168.14688 39.084373 167.11563 39.084373Q165.4125 39.084373 164.49063 38.25625Q163.56876 37.4125 163.56876 36.115623Q163.56876 35.35 163.9125 34.725Q164.27188 34.1 164.83438 33.725Q165.39688 33.334373 166.1 33.13125Q166.61563 33.00625 167.6625 32.865623Q169.7875 32.615623 170.7875 32.271873Q170.80313 31.912498 170.80313 31.803123Q170.80313 30.740623 170.30313 30.287498Q169.63126 29.693748 168.30313 29.693748Q167.05313 29.693748 166.45938 30.131248Q165.88126 30.568748 165.6 31.678123L163.88126 31.443748Q164.11563 30.334373 164.64688 29.662498Q165.17813 28.974998 166.19376 28.615623Q167.20938 28.240623 168.55313 28.240623Q169.88126 28.240623 170.70938 28.553123Q171.5375 28.865623 171.92813 29.349998Q172.31876 29.818748 172.475 30.537498Q172.56876 30.990623 172.56876 32.1625L172.56876 34.50625Q172.56876 36.959373 172.67813 37.615623Q172.7875 38.25625 173.13126 38.85L171.2875 38.85Q171.02188 38.303123 170.94376 37.56875ZM170.7875 33.646873Q169.83438 34.0375 167.9125 34.303123Q166.83438 34.459373 166.38126 34.6625Q165.94376 34.85 165.69376 35.225Q165.44376 35.6 165.44376 36.06875Q165.44376 36.771873 165.975 37.240623Q166.50626 37.709373 167.5375 37.709373Q168.55313 37.709373 169.33438 37.271873Q170.13126 36.81875 170.50626 36.053123Q170.7875 35.44375 170.7875 34.2875L170.7875 33.646873ZM175.1625 38.85L175.1625 28.474998L176.75626 28.474998L176.75626 29.959373Q177.89688 28.240623 180.05313 28.240623Q180.99063 28.240623 181.77188 28.584373Q182.56876 28.912498 182.95938 29.459373Q183.35 30.006248 183.50626 30.756248Q183.6 31.256248 183.6 32.475L183.6 38.85L181.83438 38.85L181.83438 32.5375Q181.83438 31.459373 181.63126 30.928123Q181.42813 30.396873 180.89688 30.084373Q180.38126 29.771873 179.67813 29.771873Q178.55313 29.771873 177.74063 30.490623Q176.92813 31.193748 176.92813 33.178123L176.92813 38.85L175.1625 38.85ZM192.42813 38.85L192.42813 24.537498L198.77188 24.537498Q200.67813 24.537498 201.67813 24.928123Q202.67813 25.303123 203.27188 26.287498Q203.86563 27.256248 203.86563 28.443748Q203.86563 29.959373 202.88126 31.006248Q201.89688 32.053123 199.83438 32.334373Q200.58438 32.69375 200.975 33.053123Q201.80313 33.803123 202.55313 34.959373L205.0375 38.85L202.6625 38.85L200.75626 35.865623Q199.92813 34.584373 199.39688 33.896873Q198.86563 33.209373 198.42813 32.94375Q198.00626 32.6625 197.56876 32.553123Q197.24063 32.490623 196.52188 32.490623L194.31876 32.490623L194.31876 38.85L192.42813 38.85ZM194.31876 30.849998L198.39688 30.849998Q199.69376 30.849998 200.4125 30.584373Q201.14688 30.318748 201.52188 29.724998Q201.9125 29.131248 201.9125 28.443748Q201.9125 27.428123 201.17813 26.771873Q200.44376 26.115623 198.85 26.115623L194.31876 26.115623L194.31876 30.849998ZM210.0375 38.85L210.0375 26.224998L205.31876 26.224998L205.31876 24.537498L216.6625 24.537498L216.6625 26.224998L211.92813 26.224998L211.92813 38.85L210.0375 38.85ZM216.94376 38.85L222.475 31.381248L217.6 24.537498L219.85 24.537498L222.44376 28.209373Q223.25626 29.349998 223.6 29.959373Q224.08438 29.178123 224.725 28.334373L227.61563 24.537498L229.67813 24.537498L224.64688 31.287498L230.06876 38.85L227.725 38.85L224.11563 33.740623Q223.81876 33.303123 223.49063 32.7875Q223.00626 33.56875 222.80313 33.865623L219.20938 38.85L216.94376 38.85ZM237.33438 38.85L237.33438 24.537498L240.19376 24.537498L243.56876 34.6625Q244.0375 36.084373 244.25626 36.7875Q244.50626 36.00625 245.02188 34.490623L248.44376 24.537498L250.99063 24.537498L250.99063 38.85L249.17813 38.85L249.17813 26.865623L245.00626 38.85L243.30313 38.85L239.1625 26.662498L239.1625 38.85L237.33438 38.85ZM254.38126 38.85L254.38126 24.537498L256.31876 24.537498L263.83438 35.771873L263.83438 24.537498L265.64688 24.537498L265.64688 38.85L263.70938 38.85L256.19376 27.599998L256.19376 38.85L254.38126 38.85ZM268.31876 38.85L268.31876 24.537498L270.20938 24.537498L270.20938 37.1625L277.25626 37.1625L277.25626 38.85L268.31876 38.85ZM279.70938 38.85L279.70938 24.537498L281.61563 24.537498L281.61563 38.85L279.70938 38.85ZM295.0375 38.85L295.0375 26.224998L290.31876 26.224998L290.31876 24.537498L301.6625 24.537498L301.6625 26.224998L296.92813 26.224998L296.92813 38.85L295.0375 38.85ZM303.14688 38.85L303.14688 28.474998L304.725 28.474998L304.725 30.053123Q305.33438 28.943748 305.85 28.599998Q306.36563 28.240623 306.975 28.240623Q307.86563 28.240623 308.7875 28.803123L308.17813 30.443748Q307.5375 30.053123 306.89688 30.053123Q306.31876 30.053123 305.85 30.412498Q305.39688 30.756248 305.19376 31.365623Q304.9125 32.303123 304.9125 33.4125L304.9125 38.85L303.14688 38.85ZM316.94376 37.56875Q315.95938 38.396873 315.05313 38.740623Q314.14688 39.084373 313.11563 39.084373Q311.4125 39.084373 310.49063 38.25625Q309.56876 37.4125 309.56876 36.115623Q309.56876 35.35 309.9125 34.725Q310.27188 34.1 310.83438 33.725Q311.39688 33.334373 312.1 33.13125Q312.61563 33.00625 313.6625 32.865623Q315.7875 32.615623 316.7875 32.271873Q316.80313 31.912498 316.80313 31.803123Q316.80313 30.740623 316.30313 30.287498Q315.63126 29.693748 314.30313 29.693748Q313.05313 29.693748 312.45938 30.131248Q311.88126 30.568748 311.6 31.678123L309.88126 31.443748Q310.11563 30.334373 310.64688 29.662498Q311.17813 28.974998 312.19376 28.615623Q313.20938 28.240623 314.55313 28.240623Q315.88126 28.240623 316.70938 28.553123Q317.5375 28.865623 317.92813 29.349998Q318.31876 29.818748 318.475 30.537498Q318.56876 30.990623 318.56876 32.1625L318.56876 34.50625Q318.56876 36.959373 318.67813 37.615623Q318.7875 38.25625 319.13126 38.85L317.2875 38.85Q317.02188 38.303123 316.94376 37.56875ZM316.7875 33.646873Q315.83438 34.0375 313.9125 34.303123Q312.83438 34.459373 312.38126 34.6625Q311.94376 34.85 311.69376 35.225Q311.44376 35.6 311.44376 36.06875Q311.44376 36.771873 311.975 37.240623Q312.50626 37.709373 313.5375 37.709373Q314.55313 37.709373 315.33438 37.271873Q316.13126 36.81875 316.50626 36.053123Q316.7875 35.44375 316.7875 34.2875L316.7875 33.646873ZM321.1625 38.85L321.1625 28.474998L322.75626 28.474998L322.75626 29.959373Q323.89688 28.240623 326.05313 28.240623Q326.99063 28.240623 327.77188 28.584373Q328.56876 28.912498 328.95938 29.459373Q329.35 30.006248 329.50626 30.756248Q329.6 31.256248 329.6 32.475L329.6 38.85L327.83438 38.85L327.83438 32.5375Q327.83438 31.459373 327.63126 30.928123Q327.42813 30.396873 326.89688 30.084373Q326.38126 29.771873 325.67813 29.771873Q324.55313 29.771873 323.74063 30.490623Q322.92813 31.193748 322.92813 33.178123L322.92813 38.85L321.1625 38.85ZM331.45938 35.75625L333.20938 35.475Q333.35 36.521873 334.02188 37.084373Q334.69376 37.63125 335.89688 37.63125Q337.1 37.63125 337.67813 37.146873Q338.27188 36.646873 338.27188 35.990623Q338.27188 35.396873 337.75626 35.053123Q337.39688 34.81875 335.95938 34.459373Q334.02188 33.959373 333.27188 33.615623Q332.5375 33.25625 332.14688 32.63125Q331.75626 31.990623 331.75626 31.224998Q331.75626 30.537498 332.06876 29.943748Q332.39688 29.349998 332.94376 28.959373Q333.35 28.662498 334.05313 28.459373Q334.77188 28.240623 335.58438 28.240623Q336.80313 28.240623 337.725 28.599998Q338.64688 28.943748 339.08438 29.553123Q339.52188 30.146873 339.69376 31.146873L337.975 31.381248Q337.85 30.584373 337.2875 30.146873Q336.725 29.693748 335.70938 29.693748Q334.49063 29.693748 333.975 30.099998Q333.45938 30.490623 333.45938 31.021873Q333.45938 31.365623 333.67813 31.646873Q333.88126 31.928123 334.35 32.115623Q334.61563 32.209373 335.89688 32.553123Q337.77188 33.053123 338.50626 33.38125Q339.24063 33.69375 339.6625 34.303123Q340.08438 34.896873 340.08438 35.803123Q340.08438 36.678123 339.56876 37.459373Q339.05313 38.240623 338.08438 38.6625Q337.11563 39.084373 335.89688 39.084373Q333.88126 39.084373 332.81876 38.240623Q331.75626 37.396873 331.45938 35.75625ZM342.58438 38.85L342.58438 29.849998L341.0375 29.849998L341.0375 28.474998L342.58438 28.474998L342.58438 27.381248Q342.58438 26.334373 342.77188 25.818748Q343.02188 25.131248 343.6625 24.709373Q344.30313 24.287498 345.45938 24.287498Q346.20938 24.287498 347.1 24.459373L346.83438 25.990623Q346.2875 25.896873 345.80313 25.896873Q345.00626 25.896873 344.6625 26.240623Q344.33438 26.584373 344.33438 27.521873L344.33438 28.474998L346.36563 28.474998L346.36563 29.849998L344.33438 29.849998L344.33438 38.85L342.58438 38.85ZM347.52188 33.6625Q347.52188 30.787498 349.11563 29.396873Q350.45938 28.240623 352.38126 28.240623Q354.52188 28.240623 355.86563 29.646873Q357.225 31.053123 357.225 33.521873Q357.225 35.521873 356.63126 36.678123Q356.0375 37.81875 354.88126 38.459373Q353.74063 39.084373 352.38126 39.084373Q350.19376 39.084373 348.85 37.69375Q347.52188 36.2875 347.52188 33.6625ZM349.31876 33.6625Q349.31876 35.6625 350.17813 36.646873Q351.05313 37.63125 352.38126 37.63125Q353.69376 37.63125 354.55313 36.646873Q355.42813 35.646873 355.42813 33.6Q355.42813 31.678123 354.55313 30.693748Q353.67813 29.693748 352.38126 29.693748Q351.05313 29.693748 350.17813 30.693748Q349.31876 31.678123 349.31876 33.6625ZM359.14688 38.85L359.14688 28.474998L360.725 28.474998L360.725 30.053123Q361.33438 28.943748 361.85 28.599998Q362.36563 28.240623 362.975 28.240623Q363.86563 28.240623 364.7875 28.803123L364.17813 30.443748Q363.5375 30.053123 362.89688 30.053123Q362.31876 30.053123 361.85 30.412498Q361.39688 30.756248 361.19376 31.365623Q360.9125 32.303123 360.9125 33.4125L360.9125 38.85L359.14688 38.85ZM366.1625 38.85L366.1625 28.474998L367.74063 28.474998L367.74063 29.928123Q368.225 29.178123 369.0375 28.709373Q369.85 28.240623 370.88126 28.240623Q372.0375 28.240623 372.77188 28.724998Q373.50626 29.193748 373.81876 30.053123Q375.05313 28.240623 377.02188 28.240623Q378.56876 28.240623 379.39688 29.099998Q380.225 29.959373 380.225 31.724998L380.225 38.85L378.475 38.85L378.475 32.31875Q378.475 31.256248 378.30313 30.803123Q378.13126 30.334373 377.67813 30.053123Q377.24063 29.771873 376.63126 29.771873Q375.5375 29.771873 374.80313 30.506248Q374.08438 31.224998 374.08438 32.81875L374.08438 38.85L372.33438 38.85L372.33438 32.115623Q372.33438 30.943748 371.89688 30.365623Q371.475 29.771873 370.49063 29.771873Q369.75626 29.771873 369.11563 30.162498Q368.49063 30.553123 368.20938 31.303123Q367.92813 32.053123 367.92813 33.475L367.92813 38.85L366.1625 38.85ZM390.27188 35.50625L392.08438 35.740623Q391.6625 37.31875 390.49063 38.209373Q389.33438 39.084373 387.52188 39.084373Q385.25626 39.084373 383.9125 37.69375Q382.58438 36.2875 382.58438 33.75625Q382.58438 31.131248 383.92813 29.693748Q385.27188 28.240623 387.42813 28.240623Q389.50626 28.240623 390.81876 29.662498Q392.14688 31.068748 392.14688 33.646873Q392.14688 33.803123 392.13126 34.115623L384.39688 34.115623Q384.49063 35.81875 385.36563 36.725Q386.24063 37.63125 387.5375 37.63125Q388.50626 37.63125 389.17813 37.13125Q389.86563 36.615623 390.27188 35.50625ZM384.49063 32.6625L390.2875 32.6625Q390.17813 31.365623 389.63126 30.709373Q388.7875 29.693748 387.44376 29.693748Q386.24063 29.693748 385.4125 30.506248Q384.58438 31.303123 384.49063 32.6625ZM394.14688 38.85L394.14688 28.474998L395.725 28.474998L395.725 30.053123Q396.33438 28.943748 396.85 28.599998Q397.36563 28.240623 397.975 28.240623Q398.86563 28.240623 399.7875 28.803123L399.17813 30.443748Q398.5375 30.053123 397.89688 30.053123Q397.31876 30.053123 396.85 30.412498Q396.39688 30.756248 396.19376 31.365623Q395.9125 32.303123 395.9125 33.4125L395.9125 38.85L394.14688 38.85ZM407.49063 38.85L407.49063 24.537498L417.14688 24.537498L417.14688 26.224998L409.38126 26.224998L409.38126 30.662498L416.1 30.662498L416.1 32.35L409.38126 32.35L409.38126 38.85L407.49063 38.85ZM419.17813 26.553123L419.17813 24.537498L420.94376 24.537498L420.94376 26.553123L419.17813 26.553123ZM419.17813 38.85L419.17813 28.474998L420.94376 28.474998L420.94376 38.85L419.17813 38.85ZM423.1625 38.85L423.1625 28.474998L424.75626 28.474998L424.75626 29.959373Q425.89688 28.240623 428.05313 28.240623Q428.99063 28.240623 429.77188 28.584373Q430.56876 28.912498 430.95938 29.459373Q431.35 30.006248 431.50626 30.756248Q431.6 31.256248 431.6 32.475L431.6 38.85L429.83438 38.85L429.83438 32.5375Q429.83438 31.459373 429.63126 30.928123Q429.42813 30.396873 428.89688 30.084373Q428.38126 29.771873 427.67813 29.771873Q426.55313 29.771873 425.74063 30.490623Q424.92813 31.193748 424.92813 33.178123L424.92813 38.85L423.1625 38.85ZM441.27188 35.50625L443.08438 35.740623Q442.6625 37.31875 441.49063 38.209373Q440.33438 39.084373 438.52188 39.084373Q436.25626 39.084373 434.9125 37.69375Q433.58438 36.2875 433.58438 33.75625Q433.58438 31.131248 434.92813 29.693748Q436.27188 28.240623 438.42813 28.240623Q440.50626 28.240623 441.81876 29.662498Q443.14688 31.068748 443.14688 33.646873Q443.14688 33.803123 443.13126 34.115623L435.39688 34.115623Q435.49063 35.81875 436.36563 36.725Q437.24063 37.63125 438.5375 37.63125Q439.50626 37.63125 440.17813 37.13125Q440.86563 36.615623 441.27188 35.50625ZM435.49063 32.6625L441.2875 32.6625Q441.17813 31.365623 440.63126 30.709373Q439.7875 29.693748 438.44376 29.693748Q437.24063 29.693748 436.4125 30.506248Q435.58438 31.303123 435.49063 32.6625ZM455.0375 38.85L455.0375 26.224998L450.31876 26.224998L450.31876 24.537498L461.6625 24.537498L461.6625 26.224998L456.92813 26.224998L456.92813 38.85L455.0375 38.85ZM469.95938 38.85L469.95938 37.31875Q468.75626 39.084373 466.67813 39.084373Q465.75626 39.084373 464.95938 38.740623Q464.1625 38.38125 463.77188 37.85Q463.39688 37.31875 463.24063 36.5375Q463.13126 36.021873 463.13126 34.896873L463.13126 28.474998L464.88126 28.474998L464.88126 34.225Q464.88126 35.6 464.99063 36.084373Q465.1625 36.771873 465.69376 37.178123Q466.24063 37.56875 467.02188 37.56875Q467.81876 37.56875 468.50626 37.1625Q469.20938 36.75625 469.49063 36.06875Q469.7875 35.365623 469.7875 34.0375L469.7875 28.474998L471.5375 28.474998L471.5375 38.85L469.95938 38.85ZM474.1625 38.85L474.1625 28.474998L475.75626 28.474998L475.75626 29.959373Q476.89688 28.240623 479.05313 28.240623Q479.99063 28.240623 480.77188 28.584373Q481.56876 28.912498 481.95938 29.459373Q482.35 30.006248 482.50626 30.756248Q482.6 31.256248 482.6 32.475L482.6 38.85L480.83438 38.85L480.83438 32.5375Q480.83438 31.459373 480.63126 30.928123Q480.42813 30.396873 479.89688 30.084373Q479.38126 29.771873 478.67813 29.771873Q477.55313 29.771873 476.74063 30.490623Q475.92813 31.193748 475.92813 33.178123L475.92813 38.85L474.1625 38.85ZM485.17813 26.553123L485.17813 24.537498L486.94376 24.537498L486.94376 26.553123L485.17813 26.553123ZM485.17813 38.85L485.17813 28.474998L486.94376 28.474998L486.94376 38.85L485.17813 38.85ZM489.1625 38.85L489.1625 28.474998L490.75626 28.474998L490.75626 29.959373Q491.89688 28.240623 494.05313 28.240623Q494.99063 28.240623 495.77188 28.584373Q496.56876 28.912498 496.95938 29.459373Q497.35 30.006248 497.50626 30.756248Q497.6 31.256248 497.6 32.475L497.6 38.85L495.83438 38.85L495.83438 32.5375Q495.83438 31.459373 495.63126 30.928123Q495.42813 30.396873 494.89688 30.084373Q494.38126 29.771873 493.67813 29.771873Q492.55313 29.771873 491.74063 30.490623Q490.92813 31.193748 490.92813 33.178123L490.92813 38.85L489.1625 38.85ZM499.85 39.709373L501.55313 39.959373Q501.6625 40.75625 502.14688 41.115623Q502.80313 41.6 503.94376 41.6Q505.1625 41.6 505.81876 41.115623Q506.49063 40.63125 506.725 39.75625Q506.86563 39.209373 506.85 37.490623Q505.69376 38.85 503.975 38.85Q501.83438 38.85 500.6625 37.303123Q499.49063 35.75625 499.49063 33.6Q499.49063 32.115623 500.02188 30.865623Q500.56876 29.615623 501.58438 28.928123Q502.61563 28.240623 503.99063 28.240623Q505.81876 28.240623 507.02188 29.724998L507.02188 28.474998L508.63126 28.474998L508.63126 37.44375Q508.63126 39.865623 508.13126 40.865623Q507.64688 41.88125 506.56876 42.459373Q505.50626 43.053123 503.94376 43.053123Q502.1 43.053123 500.94376 42.225Q499.80313 41.396873 499.85 39.709373ZM501.30313 33.475Q501.30313 35.521873 502.11563 36.459373Q502.92813 37.396873 504.14688 37.396873Q505.35 37.396873 506.1625 36.459373Q506.99063 35.521873 506.99063 33.5375Q506.99063 31.631248 506.14688 30.662498Q505.30313 29.693748 504.11563 29.693748Q502.94376 29.693748 502.11563 30.646873Q501.30313 31.599998 501.30313 33.475ZM520.52185 43.053123Q519.0687 41.225 518.0687 38.771873Q517.0687 36.303123 517.0687 33.6625Q517.0687 31.334373 517.8187 29.209373Q518.6937 26.740623 520.52185 24.287498L521.7875 24.287498Q520.6 26.318748 520.225 27.193748Q519.6312 28.537498 519.2875 30.006248Q518.8656 31.834373 518.8656 33.678123Q518.8656 38.365623 521.7875 43.053123L520.52185 43.053123ZM525.7875 38.85L524.1625 38.85L524.1625 24.537498L525.9125 24.537498L525.9125 29.646873Q527.0375 28.240623 528.7562 28.240623Q529.70935 28.240623 530.5687 28.631248Q531.4281 29.021873 531.975 29.724998Q532.52185 30.412498 532.83435 31.396873Q533.14685 32.38125 533.14685 33.50625Q533.14685 36.178123 531.83435 37.63125Q530.52185 39.084373 528.6781 39.084373Q526.83435 39.084373 525.7875 37.553123L525.7875 38.85ZM525.77185 33.584373Q525.77185 35.44375 526.27185 36.2875Q527.1156 37.63125 528.52185 37.63125Q529.6781 37.63125 530.5062 36.63125Q531.35 35.63125 531.35 33.646873Q531.35 31.615623 530.5375 30.662498Q529.7406 29.693748 528.6 29.693748Q527.4437 29.693748 526.6 30.693748Q525.77185 31.693748 525.77185 33.584373ZM534.45935 35.75625L536.20935 35.475Q536.35 36.521873 537.02185 37.084373Q537.6937 37.63125 538.89685 37.63125Q540.1 37.63125 540.6781 37.146873Q541.27185 36.646873 541.27185 35.990623Q541.27185 35.396873 540.7562 35.053123Q540.39685 34.81875 538.95935 34.459373Q537.02185 33.959373 536.27185 33.615623Q535.5375 33.25625 535.14685 32.63125Q534.7562 31.990623 534.7562 31.224998Q534.7562 30.537498 535.0687 29.943748Q535.39685 29.349998 535.9437 28.959373Q536.35 28.662498 537.0531 28.459373Q537.77185 28.240623 538.58435 28.240623Q539.8031 28.240623 540.725 28.599998Q541.64685 28.943748 542.08435 29.553123Q542.52185 30.146873 542.6937 31.146873L540.975 31.381248Q540.85 30.584373 540.2875 30.146873Q539.725 29.693748 538.70935 29.693748Q537.4906 29.693748 536.975 30.099998Q536.45935 30.490623 536.45935 31.021873Q536.45935 31.365623 536.6781 31.646873Q536.8812 31.928123 537.35 32.115623Q537.6156 32.209373 538.89685 32.553123Q540.77185 33.053123 541.5062 33.38125Q542.2406 33.69375 542.6625 34.303123Q543.08435 34.896873 543.08435 35.803123Q543.08435 36.678123 542.5687 37.459373Q542.0531 38.240623 541.08435 38.6625Q540.1156 39.084373 538.89685 39.084373Q536.8812 39.084373 535.8187 38.240623Q534.7562 37.396873 534.45935 35.75625ZM554.4125 30.428123L544.95935 30.428123L544.95935 28.787498L554.4125 28.787498L554.4125 30.428123ZM554.4125 34.771873L544.95935 34.771873L544.95935 33.13125L554.4125 33.13125L554.4125 34.771873ZM556.6937 35.06875L558.4437 34.834373Q558.7562 36.334373 559.475 36.990623Q560.20935 37.646873 561.2562 37.646873Q562.4906 37.646873 563.33435 36.7875Q564.1937 35.928123 564.1937 34.6625Q564.1937 33.44375 563.39685 32.6625Q562.6156 31.881248 561.39685 31.881248Q560.89685 31.881248 560.1625 32.06875L560.35 30.521873Q560.52185 30.553123 560.6312 30.553123Q561.7562 30.553123 562.64685 29.974998Q563.5531 29.381248 563.5531 28.162498Q563.5531 27.193748 562.89685 26.553123Q562.2406 25.912498 561.20935 25.912498Q560.1937 25.912498 559.5062 26.568748Q558.8187 27.209373 558.6312 28.490623L556.8656 28.178123Q557.1937 26.412498 558.33435 25.443748Q559.475 24.474998 561.1781 24.474998Q562.35 24.474998 563.33435 24.974998Q564.3187 25.474998 564.83435 26.349998Q565.3656 27.224998 565.3656 28.193748Q565.3656 29.115623 564.8656 29.881248Q564.3656 30.646873 563.39685 31.099998Q564.6625 31.381248 565.3656 32.31875Q566.0687 33.240623 566.0687 34.615623Q566.0687 36.490623 564.6937 37.803123Q563.33435 39.1 561.2406 39.1Q559.35 39.1 558.1 37.975Q556.8656 36.85 556.6937 35.06875ZM576.9125 37.1625L576.9125 38.85L567.45935 38.85Q567.4437 38.209373 567.6625 37.63125Q568.02185 36.6625 568.8187 35.725Q569.6156 34.7875 571.1156 33.553123Q573.45935 31.646873 574.27185 30.537498Q575.1 29.412498 575.1 28.412498Q575.1 27.365623 574.35 26.646873Q573.6 25.928123 572.39685 25.928123Q571.1312 25.928123 570.3656 26.693748Q569.6 27.459373 569.6 28.803123L567.7875 28.615623Q567.975 26.599998 569.1781 25.537498Q570.39685 24.474998 572.4437 24.474998Q574.4906 24.474998 575.6937 25.615623Q576.89685 26.756248 576.89685 28.443748Q576.89685 29.303123 576.5375 30.146873Q576.1937 30.974998 575.3812 31.896873Q574.5687 32.803123 572.6781 34.4125Q571.08435 35.740623 570.6312 36.209373Q570.1937 36.678123 569.89685 37.1625L576.9125 37.1625ZM580.3187 43.053123L579.0687 43.053123Q581.975 38.365623 581.975 33.678123Q581.975 31.834373 581.5687 30.037498Q581.225 28.568748 580.6312 27.224998Q580.2562 26.334373 579.0687 24.287498L580.3187 24.287498Q582.1625 26.740623 583.0375 29.209373Q583.7875 31.334373 583.7875 33.6625Q583.7875 36.303123 582.77185 38.771873Q581.77185 41.225 580.3187 43.053123Z" fill-rule="nonzero"/></svg>