<svg version="1.1" viewBox="0.0 0.0 706.0 436.0" fill="none" stroke="none" stroke-linecap="square" stroke-miterlimit="10" width="706" height="436" xmlns:xlink="http://www.w3.org/1999/xlink" xmlns="http://www.w3.org/2000/svg"><path fill="#ffffff" d="M0 0L706.0 0L706.0 436.0L0 436.0L0 0Z" fill-rule="nonzero"/><path stroke="#333333" stroke-width="1.0" stroke-linecap="butt" d="M48.5 394.5L684.5 394.5" fill-rule="nonzero"/><path stroke="#cccccc" stroke-width="1.0" stroke-linecap="butt" d="M48.5 319.5L684.5 319.5" fill-rule="nonzero"/><path stroke="#cccccc" stroke-width="1.0" stroke-linecap="butt" d="M48.5 245.5L684.5 245.5" fill-rule="nonzero"/><path stroke="#cccccc" stroke-width="1.0" stroke-linecap="butt" d="M48.5 170.5L684.5 170.5" fill-rule="nonzero"/><path stroke="#cccccc" stroke-width="1.0" stroke-linecap="butt" d="M48.5 95.5L684.5 95.5" fill-rule="nonzero"/><clipPath id="id_0"><path d="M48.8 95.86667L684.2 95.86667L684.2 394.2L48.8 394.2L48.8 95.86667Z" clip-rule="nonzero"/></clipPath><path stroke="#000000" stroke-width="2.0" stroke-linecap="butt" stroke-opacity="0.0" clip-path="url(#id_0)" d="M201.0 394.0L144.0 394.0L144.0 252.0C144.0 250.89543 144.89543 250.0 146.0 250.0L199.0 250.0C200.10457 250.0 201.0 250.89543 201.0 252.0Z" fill-rule="nonzero"/><path fill="#4285f4" clip-path="url(#id_0)" d="M201.0 394.0L144.0 394.0L144.0 252.0C144.0 250.89543 144.89543 250.0 146.0 250.0L199.0 250.0C200.10457 250.0 201.0 250.89543 201.0 252.0Z" fill-rule="nonzero"/><path stroke="#000000" stroke-width="2.0" stroke-linecap="butt" stroke-opacity="0.0" clip-path="url(#id_0)" d="M472.0 394.0L415.0 394.0L415.0 219.0C415.0 217.89543 415.89542 217.0 417.0 217.0L470.0 217.0C471.10458 217.0 472.0 217.89543 472.0 219.0Z" fill-rule="nonzero"/><path fill="#4285f4" clip-path="url(#id_0)" d="M472.0 394.0L415.0 394.0L415.0 219.0C415.0 217.89543 415.89542 217.0 417.0 217.0L470.0 217.0C471.10458 217.0 472.0 217.89543 472.0 219.0Z" fill-rule="nonzero"/><path stroke="#000000" stroke-width="2.0" stroke-linecap="butt" stroke-opacity="0.0" clip-path="url(#id_0)" d="M260.0 394.0L203.0 394.0L203.0 244.0C203.0 242.89543 203.89543 242.0 205.0 242.0L258.0 242.0C259.10458 242.0 260.0 242.89543 260.0 244.0Z" fill-rule="nonzero"/><path fill="#ea4335" clip-path="url(#id_0)" d="M260.0 394.0L203.0 394.0L203.0 244.0C203.0 242.89543 203.89543 242.0 205.0 242.0L258.0 242.0C259.10458 242.0 260.0 242.89543 260.0 244.0Z" fill-rule="nonzero"/><path stroke="#000000" stroke-width="2.0" stroke-linecap="butt" stroke-opacity="0.0" clip-path="url(#id_0)" d="M531.0 394.0L474.0 394.0L474.0 105.0C474.0 103.89543 474.89542 103.0 476.0 103.0L529.0 103.0C530.10455 103.0 531.0 103.89543 531.0 105.0Z" fill-rule="nonzero"/><path fill="#ea4335" clip-path="url(#id_0)" d="M531.0 394.0L474.0 394.0L474.0 105.0C474.0 103.89543 474.89542 103.0 476.0 103.0L529.0 103.0C530.10455 103.0 531.0 103.89543 531.0 105.0Z" fill-rule="nonzero"/><path stroke="#000000" stroke-width="2.0" stroke-linecap="butt" stroke-opacity="0.0" clip-path="url(#id_0)" d="M319.0 394.0L262.0 394.0L262.0 249.0C262.0 247.89543 262.89542 247.0 264.0 247.0L317.0 247.0C318.10458 247.0 319.0 247.89543 319.0 249.0Z" fill-rule="nonzero"/><path fill="#fbbc04" clip-path="url(#id_0)" d="M319.0 394.0L262.0 394.0L262.0 249.0C262.0 247.89543 262.89542 247.0 264.0 247.0L317.0 247.0C318.10458 247.0 319.0 247.89543 319.0 249.0Z" fill-rule="nonzero"/><path stroke="#000000" stroke-width="2.0" stroke-linecap="butt" stroke-opacity="0.0" clip-path="url(#id_0)" d="M590.0 394.0L533.0 394.0L533.0 113.0C533.0 111.89543 533.89545 111.0 535.0 111.0L588.0 111.0C589.10455 111.0 590.0 111.89543 590.0 113.0Z" fill-rule="nonzero"/><path fill="#fbbc04" clip-path="url(#id_0)" d="M590.0 394.0L533.0 394.0L533.0 113.0C533.0 111.89543 533.89545 111.0 535.0 111.0L588.0 111.0C589.10455 111.0 590.0 111.89543 590.0 113.0Z" fill-rule="nonzero"/><path fill="#000000" d="M36.3 393.96564Q36.3 392.4344 36.6125 391.5125Q36.925 390.575 37.534374 390.075Q38.159374 389.575 39.096874 389.575Q39.784374 389.575 40.3 389.85626Q40.83125 390.1375 41.175 390.66876Q41.51875 391.1844 41.70625 391.9344Q41.89375 392.6844 41.89375 393.96564Q41.89375 395.48126 41.58125 396.40314Q41.284374 397.325 40.659374 397.84064Q40.05 398.34064 39.096874 398.34064Q37.8625 398.34064 37.14375 397.45Q36.3 396.3875 36.3 393.96564ZM37.378124 393.96564Q37.378124 396.075 37.878124 396.77814Q38.378124 397.48126 39.096874 397.48126Q39.83125 397.48126 40.315624 396.77814Q40.815624 396.075 40.815624 393.96564Q40.815624 391.84064 40.315624 391.15314Q39.83125 390.45 39.08125 390.45Q38.3625 390.45 37.925 391.0594Q37.378124 391.84064 37.378124 393.96564Z" fill-rule="nonzero"/><path fill="#000000" d="M26.26875 323.61667L25.221874 323.61667L25.221874 316.89792Q24.83125 317.2573 24.20625 317.6323Q23.596874 317.99167 23.1125 318.16354L23.1125 317.14792Q23.9875 316.72604 24.64375 316.14792Q25.315624 315.55417 25.596874 314.99167L26.26875 314.99167L26.26875 323.61667ZM29.3 319.3823Q29.3 317.85104 29.6125 316.92917Q29.925 315.99167 30.534374 315.49167Q31.159374 314.99167 32.096874 314.99167Q32.784374 314.99167 33.3 315.27292Q33.83125 315.55417 34.175 316.08542Q34.51875 316.60104 34.70625 317.35104Q34.89375 318.10104 34.89375 319.3823Q34.89375 320.89792 34.58125 321.8198Q34.284374 322.74167 33.659374 323.2573Q33.05 323.7573 32.096874 323.7573Q30.8625 323.7573 30.14375 322.86667Q29.3 321.80417 29.3 319.3823ZM30.378124 319.3823Q30.378124 321.49167 30.878124 322.1948Q31.378124 322.89792 32.096874 322.89792Q32.83125 322.89792 33.315624 322.1948Q33.815624 321.49167 33.815624 319.3823Q33.815624 317.2573 33.315624 316.5698Q32.83125 315.86667 32.08125 315.86667Q31.3625 315.86667 30.925 316.47604Q30.378124 317.2573 30.378124 319.3823ZM36.3 319.3823Q36.3 317.85104 36.6125 316.92917Q36.925 315.99167 37.534374 315.49167Q38.159374 314.99167 39.096874 314.99167Q39.784374 314.99167 40.3 315.27292Q40.83125 315.55417 41.175 316.08542Q41.51875 316.60104 41.70625 317.35104Q41.89375 318.10104 41.89375 319.3823Q41.89375 320.89792 41.58125 321.8198Q41.284374 322.74167 40.659374 323.2573Q40.05 323.7573 39.096874 323.7573Q37.8625 323.7573 37.14375 322.86667Q36.3 321.80417 36.3 319.3823ZM37.378124 319.3823Q37.378124 321.49167 37.878124 322.1948Q38.378124 322.89792 39.096874 322.89792Q39.83125 322.89792 40.315624 322.1948Q40.815624 321.49167 40.815624 319.3823Q40.815624 317.2573 40.315624 316.5698Q39.83125 315.86667 39.08125 315.86667Q38.3625 315.86667 37.925 316.47604Q37.378124 317.2573 37.378124 319.3823Z" fill-rule="nonzero"/><path fill="#000000" d="M27.846874 248.01772L27.846874 249.03334L22.159374 249.03334Q22.159374 248.65834 22.284374 248.29897Q22.503124 247.72084 22.971874 247.15834Q23.45625 246.59584 24.3625 245.86147Q25.76875 244.70522 26.253124 244.03334Q26.753124 243.36147 26.753124 242.76772Q26.753124 242.14272 26.3 241.72084Q25.846874 241.28334 25.128124 241.28334Q24.3625 241.28334 23.909374 241.73647Q23.45625 242.18959 23.440624 243.00209L22.3625 242.89272Q22.471874 241.67397 23.190624 241.04897Q23.925 240.40834 25.159374 240.40834Q26.39375 240.40834 27.1125 241.09584Q27.83125 241.78334 27.83125 242.79897Q27.83125 243.31459 27.6125 243.81459Q27.409374 244.29897 26.909374 244.86147Q26.425 245.40834 25.3 246.36147Q24.346874 247.15834 24.065624 247.45522Q23.8 247.73647 23.628124 248.01772L27.846874 248.01772ZM29.3 244.79897Q29.3 243.26772 29.6125 242.34584Q29.925 241.40834 30.534374 240.90834Q31.159374 240.40834 32.096874 240.40834Q32.784374 240.40834 33.3 240.68959Q33.83125 240.97084 34.175 241.50209Q34.51875 242.01772 34.70625 242.76772Q34.89375 243.51772 34.89375 244.79897Q34.89375 246.31459 34.58125 247.23647Q34.284374 248.15834 33.659374 248.67397Q33.05 249.17397 32.096874 249.17397Q30.8625 249.17397 30.14375 248.28334Q29.3 247.22084 29.3 244.79897ZM30.378124 244.79897Q30.378124 246.90834 30.878124 247.61147Q31.378124 248.31459 32.096874 248.31459Q32.83125 248.31459 33.315624 247.61147Q33.815624 246.90834 33.815624 244.79897Q33.815624 242.67397 33.315624 241.98647Q32.83125 241.28334 32.08125 241.28334Q31.3625 241.28334 30.925 241.89272Q30.378124 242.67397 30.378124 244.79897ZM36.3 244.79897Q36.3 243.26772 36.6125 242.34584Q36.925 241.40834 37.534374 240.90834Q38.159374 240.40834 39.096874 240.40834Q39.784374 240.40834 40.3 240.68959Q40.83125 240.97084 41.175 241.50209Q41.51875 242.01772 41.70625 242.76772Q41.89375 243.51772 41.89375 244.79897Q41.89375 246.31459 41.58125 247.23647Q41.284374 248.15834 40.659374 248.67397Q40.05 249.17397 39.096874 249.17397Q37.8625 249.17397 37.14375 248.28334Q36.3 247.22084 36.3 244.79897ZM37.378124 244.79897Q37.378124 246.90834 37.878124 247.61147Q38.378124 248.31459 39.096874 248.31459Q39.83125 248.31459 40.315624 247.61147Q40.815624 246.90834 40.815624 244.79897Q40.815624 242.67397 40.315624 241.98647Q39.83125 241.28334 39.08125 241.28334Q38.3625 241.28334 37.925 241.89272Q37.378124 242.67397 37.378124 244.79897Z" fill-rule="nonzero"/><path fill="#000000" d="M22.3 172.18437L23.3625 172.04375Q23.534374 172.93437 23.971874 173.34062Q24.409374 173.73125 25.034374 173.73125Q25.784374 173.73125 26.3 173.21562Q26.815624 172.7 26.815624 171.93437Q26.815624 171.21562 26.33125 170.74687Q25.8625 170.2625 25.128124 170.2625Q24.83125 170.2625 24.378124 170.3875L24.503124 169.45Q24.6125 169.46562 24.675 169.46562Q25.346874 169.46562 25.878124 169.12187Q26.425 168.7625 26.425 168.02812Q26.425 167.45 26.034374 167.075Q25.64375 166.68437 25.01875 166.68437Q24.409374 166.68437 23.9875 167.075Q23.58125 167.46562 23.471874 168.23125L22.409374 168.04375Q22.596874 166.99687 23.284374 166.41875Q23.971874 165.825 24.9875 165.825Q25.690624 165.825 26.284374 166.1375Q26.878124 166.43437 27.190624 166.95Q27.503124 167.46562 27.503124 168.05937Q27.503124 168.60625 27.20625 169.075Q26.909374 169.52812 26.33125 169.79375Q27.08125 169.96562 27.503124 170.52812Q27.925 171.075 27.925 171.91875Q27.925 173.04375 27.096874 173.825Q26.284374 174.60625 25.034374 174.60625Q23.909374 174.60625 23.159374 173.93437Q22.409374 173.24687 22.3 172.18437ZM29.3 170.21562Q29.3 168.68437 29.6125 167.7625Q29.925 166.825 30.534374 166.325Q31.159374 165.825 32.096874 165.825Q32.784374 165.825 33.3 166.10625Q33.83125 166.3875 34.175 166.91875Q34.51875 167.43437 34.70625 168.18437Q34.89375 168.93437 34.89375 170.21562Q34.89375 171.73125 34.58125 172.65312Q34.284374 173.575 33.659374 174.09062Q33.05 174.59062 32.096874 174.59062Q30.8625 174.59062 30.14375 173.7Q29.3 172.6375 29.3 170.21562ZM30.378124 170.21562Q30.378124 172.325 30.878124 173.02812Q31.378124 173.73125 32.096874 173.73125Q32.83125 173.73125 33.315624 173.02812Q33.815624 172.325 33.815624 170.21562Q33.815624 168.09062 33.315624 167.40312Q32.83125 166.7 32.08125 166.7Q31.3625 166.7 30.925 167.30937Q30.378124 168.09062 30.378124 170.21562ZM36.3 170.21562Q36.3 168.68437 36.6125 167.7625Q36.925 166.825 37.534374 166.325Q38.159374 165.825 39.096874 165.825Q39.784374 165.825 40.3 166.10625Q40.83125 166.3875 41.175 166.91875Q41.51875 167.43437 41.70625 168.18437Q41.89375 168.93437 41.89375 170.21562Q41.89375 171.73125 41.58125 172.65312Q41.284374 173.575 40.659374 174.09062Q40.05 174.59062 39.096874 174.59062Q37.8625 174.59062 37.14375 173.7Q36.3 172.6375 36.3 170.21562ZM37.378124 170.21562Q37.378124 172.325 37.878124 173.02812Q38.378124 173.73125 39.096874 173.73125Q39.83125 173.73125 40.315624 173.02812Q40.815624 172.325 40.815624 170.21562Q40.815624 168.09062 40.315624 167.40312Q39.83125 166.7 39.08125 166.7Q38.3625 166.7 37.925 167.30937Q37.378124 168.09062 37.378124 170.21562Z" fill-rule="nonzero"/><path fill="#000000" d="M25.675 99.86667L25.675 97.80417L21.95625 97.80417L21.95625 96.83542L25.878124 91.27292L26.7375 91.27292L26.7375 96.83542L27.89375 96.83542L27.89375 97.80417L26.7375 97.80417L26.7375 99.86667L25.675 99.86667ZM25.675 96.83542L25.675 92.97604L22.9875 96.83542L25.675 96.83542ZM29.3 95.63229Q29.3 94.10104 29.6125 93.17917Q29.925 92.24167 30.534374 91.74167Q31.159374 91.24167 32.096874 91.24167Q32.784374 91.24167 33.3 91.52292Q33.83125 91.80417 34.175 92.33542Q34.51875 92.85104 34.70625 93.60104Q34.89375 94.35104 34.89375 95.63229Q34.89375 97.14792 34.58125 98.06979Q34.284374 98.99167 33.659374 99.50729Q33.05 100.00729 32.096874 100.00729Q30.8625 100.00729 30.14375 99.11667Q29.3 98.05417 29.3 95.63229ZM30.378124 95.63229Q30.378124 97.74167 30.878124 98.44479Q31.378124 99.14792 32.096874 99.14792Q32.83125 99.14792 33.315624 98.44479Q33.815624 97.74167 33.815624 95.63229Q33.815624 93.50729 33.315624 92.81979Q32.83125 92.11667 32.08125 92.11667Q31.3625 92.11667 30.925 92.72604Q30.378124 93.50729 30.378124 95.63229ZM36.3 95.63229Q36.3 94.10104 36.6125 93.17917Q36.925 92.24167 37.534374 91.74167Q38.159374 91.24167 39.096874 91.24167Q39.784374 91.24167 40.3 91.52292Q40.83125 91.80417 41.175 92.33542Q41.51875 92.85104 41.70625 93.60104Q41.89375 94.35104 41.89375 95.63229Q41.89375 97.14792 41.58125 98.06979Q41.284374 98.99167 40.659374 99.50729Q40.05 100.00729 39.096874 100.00729Q37.8625 100.00729 37.14375 99.11667Q36.3 98.05417 36.3 95.63229ZM37.378124 95.63229Q37.378124 97.74167 37.878124 98.44479Q38.378124 99.14792 39.096874 99.14792Q39.83125 99.14792 40.315624 98.44479Q40.815624 97.74167 40.815624 95.63229Q40.815624 93.50729 40.315624 92.81979Q39.83125 92.11667 39.08125 92.11667Q38.3625 92.11667 37.925 92.72604Q37.378124 93.50729 37.378124 95.63229Z" fill-rule="nonzero"/><path fill="#000000" d="M220.3554 411.2L220.3554 405.79376L219.4179 405.79376L219.4179 404.98126L220.3554 404.98126L220.3554 404.3094Q220.3554 403.6844 220.46477 403.3875Q220.62102 402.96564 220.99602 402.71564Q221.38664 402.46564 222.07414 402.46564Q222.52727 402.46564 223.05852 402.575L222.90227 403.48126Q222.57414 403.4344 222.27727 403.4344Q221.7929 403.4344 221.58977 403.6375Q221.40227 403.84064 221.40227 404.40314L221.40227 404.98126L222.62102 404.98126L222.62102 405.79376L221.40227 405.79376L221.40227 411.2L220.3554 411.2ZM223.1054 413.59064L223.1054 404.98126L224.05852 404.98126L224.05852 405.77814Q224.40227 405.3094 224.82414 405.075Q225.26164 404.84064 225.87102 404.84064Q226.6679 404.84064 227.27727 405.2469Q227.88664 405.65314 228.18352 406.40314Q228.49602 407.15314 228.49602 408.04376Q228.49602 408.9969 228.15227 409.7625Q227.82414 410.52814 227.1679 410.9344Q226.51164 411.34064 225.7929 411.34064Q225.26164 411.34064 224.83977 411.1219Q224.4179 410.8875 224.15227 410.5594L224.15227 413.59064L223.1054 413.59064ZM224.05852 408.1219Q224.05852 409.325 224.5429 409.90314Q225.02727 410.46564 225.71477 410.46564Q226.4179 410.46564 226.9179 409.8719Q227.4179 409.27814 227.4179 408.02814Q227.4179 406.84064 226.93352 406.2625Q226.44914 405.66876 225.76164 405.66876Q225.08977 405.66876 224.57414 406.29376Q224.05852 406.91876 224.05852 408.1219ZM233.77727 411.2L232.7304 411.2L232.7304 404.48126Q232.33977 404.84064 231.71477 405.21564Q231.1054 405.575 230.62102 405.7469L230.62102 404.73126Q231.49602 404.3094 232.15227 403.73126Q232.82414 403.1375 233.1054 402.575L233.77727 402.575L233.77727 411.2ZM242.27727 404.71564L241.2304 404.79376Q241.08977 404.16876 240.83977 403.8875Q240.40227 403.4344 239.77727 403.4344Q239.27727 403.4344 238.88664 403.71564Q238.40227 404.09064 238.1054 404.79376Q237.82414 405.48126 237.80852 406.7625Q238.18352 406.1844 238.7304 405.90314Q239.2929 405.6219 239.90227 405.6219Q240.94914 405.6219 241.68352 406.40314Q242.43352 407.1844 242.43352 408.40314Q242.43352 409.21564 242.07414 409.91876Q241.7304 410.60626 241.12102 410.98126Q240.51164 411.34064 239.74602 411.34064Q238.4179 411.34064 237.58977 410.3719Q236.76164 409.40314 236.76164 407.1844Q236.76164 404.6844 237.68352 403.5594Q238.4804 402.575 239.83977 402.575Q240.8554 402.575 241.49602 403.15314Q242.15227 403.71564 242.27727 404.71564ZM237.9804 408.41876Q237.9804 408.96564 238.19914 409.46564Q238.43352 409.95 238.83977 410.21564Q239.26164 410.48126 239.7304 410.48126Q240.38664 410.48126 240.87102 409.95Q241.3554 409.40314 241.3554 408.48126Q241.3554 407.59064 240.87102 407.075Q240.40227 406.5594 239.68352 406.5594Q238.96477 406.5594 238.46477 407.075Q237.9804 407.59064 237.9804 408.41876Z" fill-rule="nonzero"/><path fill="#000000" d="M490.73837 411.2L490.73837 405.79376L489.80087 405.79376L489.80087 404.98126L490.73837 404.98126L490.73837 404.3094Q490.73837 403.6844 490.84775 403.3875Q491.004 402.96564 491.379 402.71564Q491.76962 402.46564 492.45712 402.46564Q492.91025 402.46564 493.4415 402.575L493.28525 403.48126Q492.95712 403.4344 492.66025 403.4344Q492.17587 403.4344 491.97275 403.6375Q491.78525 403.84064 491.78525 404.40314L491.78525 404.98126L493.004 404.98126L493.004 405.79376L491.78525 405.79376L491.78525 411.2L490.73837 411.2ZM493.48837 413.59064L493.48837 404.98126L494.4415 404.98126L494.4415 405.77814Q494.78525 405.3094 495.20712 405.075Q495.64462 404.84064 496.254 404.84064Q497.05087 404.84064 497.66025 405.2469Q498.26962 405.65314 498.5665 406.40314Q498.879 407.15314 498.879 408.04376Q498.879 408.9969 498.53525 409.7625Q498.20712 410.52814 497.55087 410.9344Q496.89462 411.34064 496.17587 411.34064Q495.64462 411.34064 495.22275 411.1219Q494.80087 410.8875 494.53525 410.5594L494.53525 413.59064L493.48837 413.59064ZM494.4415 408.1219Q494.4415 409.325 494.92587 409.90314Q495.41025 410.46564 496.09775 410.46564Q496.80087 410.46564 497.30087 409.8719Q497.80087 409.27814 497.80087 408.02814Q497.80087 406.84064 497.3165 406.2625Q496.83212 405.66876 496.14462 405.66876Q495.47275 405.66876 494.95712 406.29376Q494.4415 406.91876 494.4415 408.1219ZM500.1915 408.9344L501.254 408.79376Q501.42587 409.6844 501.86337 410.09064Q502.30087 410.48126 502.92587 410.48126Q503.67587 410.48126 504.1915 409.96564Q504.70712 409.45 504.70712 408.6844Q504.70712 407.96564 504.22275 407.4969Q503.754 407.0125 503.01962 407.0125Q502.72275 407.0125 502.26962 407.1375L502.39462 406.2Q502.504 406.21564 502.5665 406.21564Q503.23837 406.21564 503.76962 405.8719Q504.3165 405.5125 504.3165 404.77814Q504.3165 404.2 503.92587 403.825Q503.53525 403.4344 502.91025 403.4344Q502.30087 403.4344 501.879 403.825Q501.47275 404.21564 501.36337 404.98126L500.30087 404.79376Q500.48837 403.7469 501.17587 403.16876Q501.86337 402.575 502.879 402.575Q503.58212 402.575 504.17587 402.8875Q504.76962 403.1844 505.08212 403.7Q505.39462 404.21564 505.39462 404.8094Q505.39462 405.35626 505.09775 405.825Q504.80087 406.27814 504.22275 406.54376Q504.97275 406.71564 505.39462 407.27814Q505.8165 407.825 505.8165 408.66876Q505.8165 409.79376 504.98837 410.575Q504.17587 411.35626 502.92587 411.35626Q501.80087 411.35626 501.05087 410.6844Q500.30087 409.9969 500.1915 408.9344ZM512.7384 410.1844L512.7384 411.2L507.05087 411.2Q507.05087 410.825 507.17587 410.46564Q507.39462 409.8875 507.86337 409.325Q508.34775 408.7625 509.254 408.02814Q510.66025 406.8719 511.14462 406.2Q511.64462 405.52814 511.64462 404.9344Q511.64462 404.3094 511.1915 403.8875Q510.73837 403.45 510.01962 403.45Q509.254 403.45 508.80087 403.90314Q508.34775 404.35626 508.33212 405.16876L507.254 405.0594Q507.36337 403.84064 508.08212 403.21564Q508.8165 402.575 510.05087 402.575Q511.28525 402.575 512.004 403.2625Q512.7228 403.95 512.7228 404.96564Q512.7228 405.48126 512.504 405.98126Q512.3009 406.46564 511.80087 407.02814Q511.3165 407.575 510.1915 408.52814Q509.23837 409.325 508.95712 409.6219Q508.6915 409.90314 508.51962 410.1844L512.7384 410.1844Z" fill-rule="nonzero"/><path fill="#4285f4" d="M179.0 62.333332C179.0 61.781048 179.44771 61.333332 180.0 61.333332L190.0 61.333332C190.55229 61.333332 191.0 61.781048 191.0 62.333332L191.0 72.333336C191.0 72.88562 190.55229 73.333336 190.0 73.333336L180.0 73.333336C179.44771 73.333336 179.0 72.88562 179.0 72.333336Z" fill-rule="nonzero"/><path fill="#1a1a1a" d="M199.9375 71.333336L199.9375 62.739586L203.75 62.739586Q204.90625 62.739586 205.5 62.97396Q206.09375 63.208336 206.45312 63.802086Q206.8125 64.38021 206.8125 65.083336Q206.8125 66.00521 206.21875 66.63021Q205.625 67.25521 204.39062 67.427086Q204.84375 67.645836 205.07812 67.84896Q205.57812 68.302086 206.01562 68.989586L207.51562 71.333336L206.07812 71.333336L204.95312 69.552086Q204.45312 68.770836 204.125 68.364586Q203.8125 67.958336 203.54688 67.802086Q203.29688 67.63021 203.03125 67.552086Q202.84375 67.520836 202.40625 67.520836L201.07812 67.520836L201.07812 71.333336L199.9375 71.333336ZM201.07812 66.53646L203.53125 66.53646Q204.29688 66.53646 204.73438 66.38021Q205.1875 66.208336 205.40625 65.864586Q205.64062 65.50521 205.64062 65.083336Q205.64062 64.47396 205.1875 64.083336Q204.75 63.69271 203.79688 63.69271L201.07812 63.69271L201.07812 66.53646ZM211.10938 71.333336L211.10938 63.75521L208.28125 63.75521L208.28125 62.739586L215.09375 62.739586L215.09375 63.75521L212.25 63.75521L212.25 71.333336L211.10938 71.333336ZM215.04688 71.333336L218.375 66.84896L215.45312 62.739586L216.79688 62.739586L218.35938 64.94271Q218.84375 65.63021 219.04688 66.00521Q219.34375 65.53646 219.73438 65.020836L221.45312 62.739586L222.6875 62.739586L219.67188 66.78646L222.92188 71.333336L221.51562 71.333336L219.35938 68.270836Q219.17188 68.00521 218.98438 67.69271Q218.70312 68.16146 218.57812 68.333336L216.42188 71.333336L215.04688 71.333336ZM226.5 69.06771L227.5625 68.927086Q227.73438 69.81771 228.17188 70.22396Q228.60938 70.614586 229.23438 70.614586Q229.98438 70.614586 230.5 70.09896Q231.01562 69.583336 231.01562 68.81771Q231.01562 68.09896 230.53125 67.63021Q230.0625 67.145836 229.32812 67.145836Q229.03125 67.145836 228.57812 67.270836L228.70312 66.333336Q228.8125 66.34896 228.875 66.34896Q229.54688 66.34896 230.07812 66.00521Q230.625 65.645836 230.625 64.91146Q230.625 64.333336 230.23438 63.958336Q229.84375 63.56771 229.21875 63.56771Q228.60938 63.56771 228.1875 63.958336Q227.78125 64.34896 227.67188 65.114586L226.60938 64.927086Q226.79688 63.88021 227.48438 63.302086Q228.17188 62.708336 229.1875 62.708336Q229.89062 62.708336 230.48438 63.020836Q231.07812 63.31771 231.39062 63.833336Q231.70312 64.34896 231.70312 64.94271Q231.70312 65.489586 231.40625 65.958336Q231.10938 66.41146 230.53125 66.677086Q231.28125 66.84896 231.70312 67.41146Q232.125 67.958336 232.125 68.802086Q232.125 69.927086 231.29688 70.708336Q230.48438 71.489586 229.23438 71.489586Q228.10938 71.489586 227.35938 70.81771Q226.60938 70.13021 226.5 69.06771ZM233.5 67.09896Q233.5 65.56771 233.8125 64.645836Q234.125 63.708336 234.73438 63.208336Q235.35938 62.708336 236.29688 62.708336Q236.98438 62.708336 237.5 62.989586Q238.03125 63.270836 238.375 63.802086Q238.71875 64.31771 238.90625 65.06771Q239.09375 65.81771 239.09375 67.09896Q239.09375 68.614586 238.78125 69.53646Q238.48438 70.458336 237.85938 70.97396Q237.25 71.47396 236.29688 71.47396Q235.0625 71.47396 234.34375 70.583336Q233.5 69.520836 233.5 67.09896ZM234.57812 67.09896Q234.57812 69.208336 235.07812 69.91146Q235.57812 70.614586 236.29688 70.614586Q237.03125 70.614586 237.51562 69.91146Q238.01562 69.208336 238.01562 67.09896Q238.01562 64.97396 237.51562 64.28646Q237.03125 63.583336 236.28125 63.583336Q235.5625 63.583336 235.125 64.19271Q234.57812 64.97396 234.57812 67.09896ZM240.65625 69.34896L241.67188 69.25521Q241.79688 69.97396 242.15625 70.302086Q242.53125 70.614586 243.09375 70.614586Q243.57812 70.614586 243.9375 70.395836Q244.3125 70.16146 244.54688 69.802086Q244.78125 69.427086 244.9375 68.802086Q245.09375 68.16146 245.09375 67.50521Q245.09375 67.427086 245.09375 67.28646Q244.78125 67.78646 244.23438 68.114586Q243.6875 68.427086 243.04688 68.427086Q241.96875 68.427086 241.23438 67.66146Q240.5 66.88021 240.5 65.614586Q240.5 64.302086 241.26562 63.50521Q242.04688 62.708336 243.20312 62.708336Q244.03125 62.708336 244.71875 63.16146Q245.42188 63.614586 245.78125 64.458336Q246.14062 65.28646 246.14062 66.864586Q246.14062 68.50521 245.78125 69.489586Q245.4375 70.458336 244.71875 70.97396Q244.01562 71.47396 243.07812 71.47396Q242.0625 71.47396 241.42188 70.927086Q240.78125 70.364586 240.65625 69.34896ZM244.96875 65.552086Q244.96875 64.645836 244.48438 64.114586Q244.01562 63.583336 243.32812 63.583336Q242.625 63.583336 242.09375 64.16146Q241.57812 64.72396 241.57812 65.645836Q241.57812 66.458336 242.07812 66.97396Q242.57812 67.489586 243.29688 67.489586Q244.03125 67.489586 244.5 66.97396Q244.96875 66.458336 244.96875 65.552086ZM247.5 67.09896Q247.5 65.56771 247.8125 64.645836Q248.125 63.708336 248.73438 63.208336Q249.35938 62.708336 250.29688 62.708336Q250.98438 62.708336 251.5 62.989586Q252.03125 63.270836 252.375 63.802086Q252.71875 64.31771 252.90625 65.06771Q253.09375 65.81771 253.09375 67.09896Q253.09375 68.614586 252.78125 69.53646Q252.48438 70.458336 251.85938 70.97396Q251.25 71.47396 250.29688 71.47396Q249.0625 71.47396 248.34375 70.583336Q247.5 69.520836 247.5 67.09896ZM248.57812 67.09896Q248.57812 69.208336 249.07812 69.91146Q249.57812 70.614586 250.29688 70.614586Q251.03125 70.614586 251.51562 69.91146Q252.01562 69.208336 252.01562 67.09896Q252.01562 64.97396 251.51562 64.28646Q251.03125 63.583336 250.28125 63.583336Q249.5625 63.583336 249.125 64.19271Q248.57812 64.97396 248.57812 67.09896Z" fill-rule="nonzero"/><path fill="#ea4335" d="M270.0 62.333332C270.0 61.781048 270.44772 61.333332 271.0 61.333332L281.0 61.333332C281.55228 61.333332 282.0 61.781048 282.0 62.333332L282.0 72.333336C282.0 72.88562 281.55228 73.333336 281.0 73.333336L271.0 73.333336C270.44772 73.333336 270.0 72.88562 270.0 72.333336Z" fill-rule="nonzero"/><path fill="#1a1a1a" d="M293.10938 71.333336L293.10938 63.75521L290.28125 63.75521L290.28125 62.739586L297.09375 62.739586L297.09375 63.75521L294.25 63.75521L294.25 71.333336L293.10938 71.333336ZM297.79688 63.958336L297.79688 62.739586L298.85938 62.739586L298.85938 63.958336L297.79688 63.958336ZM297.79688 71.333336L297.79688 65.114586L298.85938 65.114586L298.85938 71.333336L297.79688 71.333336ZM303.09375 70.395836L303.25 71.31771Q302.79688 71.41146 302.45312 71.41146Q301.875 71.41146 301.5625 71.239586Q301.25 71.052086 301.10938 70.75521Q300.98438 70.458336 300.98438 69.50521L300.98438 65.927086L300.21875 65.927086L300.21875 65.114586L300.98438 65.114586L300.98438 63.56771L302.03125 62.94271L302.03125 65.114586L303.09375 65.114586L303.09375 65.927086L302.03125 65.927086L302.03125 69.56771Q302.03125 70.020836 302.07812 70.145836Q302.14062 70.270836 302.26562 70.34896Q302.39062 70.427086 302.625 70.427086Q302.8125 70.427086 303.09375 70.395836ZM307.85938 70.56771Q307.26562 71.06771 306.71875 71.270836Q306.1875 71.47396 305.5625 71.47396Q304.53125 71.47396 303.98438 70.97396Q303.4375 70.47396 303.4375 69.69271Q303.4375 69.239586 303.64062 68.864586Q303.84375 68.47396 304.1875 68.25521Q304.53125 68.020836 304.95312 67.91146Q305.25 67.81771 305.89062 67.739586Q307.15625 67.59896 307.76562 67.38021Q307.76562 67.16146 307.76562 67.114586Q307.76562 66.458336 307.46875 66.19271Q307.0625 65.84896 306.26562 65.84896Q305.53125 65.84896 305.17188 66.114586Q304.8125 66.364586 304.64062 67.020836L303.60938 66.88021Q303.75 66.22396 304.07812 65.81771Q304.40625 65.41146 305.01562 65.19271Q305.625 64.97396 306.42188 64.97396Q307.21875 64.97396 307.71875 65.16146Q308.21875 65.34896 308.45312 65.63021Q308.6875 65.91146 308.78125 66.34896Q308.82812 66.614586 308.82812 67.31771L308.82812 68.72396Q308.82812 70.19271 308.89062 70.583336Q308.96875 70.97396 309.17188 71.333336L308.0625 71.333336Q307.90625 71.00521 307.85938 70.56771ZM307.76562 68.208336Q307.1875 68.44271 306.04688 68.614586Q305.39062 68.708336 305.125 68.833336Q304.85938 68.94271 304.70312 69.16146Q304.5625 69.38021 304.5625 69.66146Q304.5625 70.083336 304.875 70.364586Q305.20312 70.645836 305.8125 70.645836Q306.42188 70.645836 306.89062 70.38021Q307.375 70.114586 307.59375 69.645836Q307.76562 69.28646 307.76562 68.59896L307.76562 68.208336ZM310.79688 71.333336L310.79688 65.114586L311.73438 65.114586L311.73438 65.989586Q312.42188 64.97396 313.71875 64.97396Q314.28125 64.97396 314.75 65.177086Q315.23438 65.38021 315.46875 65.708336Q315.70312 66.03646 315.79688 66.47396Q315.84375 66.770836 315.84375 67.50521L315.84375 71.333336L314.79688 71.333336L314.79688 67.552086Q314.79688 66.895836 314.67188 66.583336Q314.54688 66.270836 314.23438 66.083336Q313.92188 65.88021 313.5 65.88021Q312.82812 65.88021 312.32812 66.31771Q311.84375 66.739586 311.84375 67.927086L311.84375 71.333336L310.79688 71.333336ZM320.9375 71.333336L320.9375 62.739586L324.75 62.739586Q325.90625 62.739586 326.5 62.97396Q327.09375 63.208336 327.45312 63.802086Q327.8125 64.38021 327.8125 65.083336Q327.8125 66.00521 327.21875 66.63021Q326.625 67.25521 325.39062 67.427086Q325.84375 67.645836 326.07812 67.84896Q326.57812 68.302086 327.01562 68.989586L328.51562 71.333336L327.07812 71.333336L325.95312 69.552086Q325.45312 68.770836 325.125 68.364586Q324.8125 67.958336 324.54688 67.802086Q324.29688 67.63021 324.03125 67.552086Q323.84375 67.520836 323.40625 67.520836L322.07812 67.520836L322.07812 71.333336L320.9375 71.333336ZM322.07812 66.53646L324.53125 66.53646Q325.29688 66.53646 325.73438 66.38021Q326.1875 66.208336 326.40625 65.864586Q326.64062 65.50521 326.64062 65.083336Q326.64062 64.47396 326.1875 64.083336Q325.75 63.69271 324.79688 63.69271L322.07812 63.69271L322.07812 66.53646ZM332.10938 71.333336L332.10938 63.75521L329.28125 63.75521L329.28125 62.739586L336.09375 62.739586L336.09375 63.75521L333.25 63.75521L333.25 71.333336L332.10938 71.333336ZM336.04688 71.333336L339.375 66.84896L336.45312 62.739586L337.79688 62.739586L339.35938 64.94271Q339.84375 65.63021 340.04688 66.00521Q340.34375 65.53646 340.73438 65.020836L342.45312 62.739586L343.6875 62.739586L340.67188 66.78646L343.92188 71.333336L342.51562 71.333336L340.35938 68.270836Q340.17188 68.00521 339.98438 67.69271Q339.70312 68.16146 339.57812 68.333336L337.42188 71.333336L336.04688 71.333336ZM349.8125 73.864586Q348.9375 72.75521 348.32812 71.28646Q347.73438 69.802086 347.73438 68.22396Q347.73438 66.833336 348.17188 65.552086Q348.70312 64.06771 349.8125 62.59896L350.5625 62.59896Q349.85938 63.81771 349.625 64.333336Q349.26562 65.145836 349.0625 66.020836Q348.8125 67.114586 348.8125 68.22396Q348.8125 71.052086 350.5625 73.864586L349.8125 73.864586ZM351.92188 71.333336L351.92188 62.739586L354.89062 62.739586Q355.89062 62.739586 356.42188 62.864586Q357.15625 63.03646 357.67188 63.47396Q358.35938 64.052086 358.6875 64.958336Q359.03125 65.84896 359.03125 66.989586Q359.03125 67.97396 358.79688 68.72396Q358.57812 69.47396 358.21875 69.97396Q357.85938 70.47396 357.42188 70.75521Q357.0 71.03646 356.40625 71.19271Q355.8125 71.333336 355.03125 71.333336L351.92188 71.333336ZM353.0625 70.31771L354.89062 70.31771Q355.75 70.31771 356.23438 70.16146Q356.71875 70.00521 357.0 69.708336Q357.40625 69.31771 357.625 68.63021Q357.85938 67.94271 357.85938 66.97396Q357.85938 65.63021 357.40625 64.91146Q356.96875 64.177086 356.34375 63.927086Q355.875 63.75521 354.875 63.75521L353.0625 63.75521L353.0625 70.31771ZM365.04688 69.333336L366.14062 69.458336Q365.89062 70.41146 365.1875 70.94271Q364.48438 71.47396 363.40625 71.47396Q362.04688 71.47396 361.23438 70.63021Q360.4375 69.78646 360.4375 68.270836Q360.4375 66.708336 361.25 65.84896Q362.0625 64.97396 363.34375 64.97396Q364.59375 64.97396 365.375 65.81771Q366.17188 66.66146 366.17188 68.208336Q366.17188 68.302086 366.17188 68.489586L361.53125 68.489586Q361.59375 69.520836 362.10938 70.06771Q362.625 70.59896 363.40625 70.59896Q363.98438 70.59896 364.39062 70.302086Q364.8125 69.989586 365.04688 69.333336ZM361.59375 67.63021L365.0625 67.63021Q365.0 66.833336 364.67188 66.44271Q364.15625 65.833336 363.35938 65.833336Q362.625 65.833336 362.125 66.31771Q361.64062 66.802086 361.59375 67.63021ZM368.04688 71.333336L368.04688 65.927086L367.10938 65.927086L367.10938 65.114586L368.04688 65.114586L368.04688 64.44271Q368.04688 63.81771 368.15625 63.520836Q368.3125 63.09896 368.6875 62.84896Q369.07812 62.59896 369.76562 62.59896Q370.21875 62.59896 370.75 62.708336L370.59375 63.614586Q370.26562 63.56771 369.96875 63.56771Q369.48438 63.56771 369.28125 63.770836Q369.09375 63.97396 369.09375 64.53646L369.09375 65.114586L370.3125 65.114586L370.3125 65.927086L369.09375 65.927086L369.09375 71.333336L368.04688 71.333336ZM374.85938 70.56771Q374.26562 71.06771 373.71875 71.270836Q373.1875 71.47396 372.5625 71.47396Q371.53125 71.47396 370.98438 70.97396Q370.4375 70.47396 370.4375 69.69271Q370.4375 69.239586 370.64062 68.864586Q370.84375 68.47396 371.1875 68.25521Q371.53125 68.020836 371.95312 67.91146Q372.25 67.81771 372.89062 67.739586Q374.15625 67.59896 374.76562 67.38021Q374.76562 67.16146 374.76562 67.114586Q374.76562 66.458336 374.46875 66.19271Q374.0625 65.84896 373.26562 65.84896Q372.53125 65.84896 372.17188 66.114586Q371.8125 66.364586 371.64062 67.020836L370.60938 66.88021Q370.75 66.22396 371.07812 65.81771Q371.40625 65.41146 372.01562 65.19271Q372.625 64.97396 373.42188 64.97396Q374.21875 64.97396 374.71875 65.16146Q375.21875 65.34896 375.45312 65.63021Q375.6875 65.91146 375.78125 66.34896Q375.82812 66.614586 375.82812 67.31771L375.82812 68.72396Q375.82812 70.19271 375.89062 70.583336Q375.96875 70.97396 376.17188 71.333336L375.0625 71.333336Q374.90625 71.00521 374.85938 70.56771ZM374.76562 68.208336Q374.1875 68.44271 373.04688 68.614586Q372.39062 68.708336 372.125 68.833336Q371.85938 68.94271 371.70312 69.16146Q371.5625 69.38021 371.5625 69.66146Q371.5625 70.083336 371.875 70.364586Q372.20312 70.645836 372.8125 70.645836Q373.42188 70.645836 373.89062 70.38021Q374.375 70.114586 374.59375 69.645836Q374.76562 69.28646 374.76562 68.59896L374.76562 68.208336ZM381.875 71.333336L381.875 70.41146Q381.14062 71.47396 379.89062 71.47396Q379.34375 71.47396 378.85938 71.270836Q378.39062 71.052086 378.15625 70.739586Q377.92188 70.41146 377.82812 69.94271Q377.76562 69.645836 377.76562 68.958336L377.76562 65.114586L378.82812 65.114586L378.82812 68.56771Q378.82812 69.38021 378.89062 69.677086Q378.98438 70.083336 379.29688 70.333336Q379.625 70.56771 380.10938 70.56771Q380.57812 70.56771 380.98438 70.333336Q381.40625 70.083336 381.57812 69.66146Q381.76562 69.239586 381.76562 68.44271L381.76562 65.114586L382.8125 65.114586L382.8125 71.333336L381.875 71.333336ZM384.76562 71.333336L384.76562 62.739586L385.82812 62.739586L385.82812 71.333336L384.76562 71.333336ZM390.09375 70.395836L390.25 71.31771Q389.79688 71.41146 389.45312 71.41146Q388.875 71.41146 388.5625 71.239586Q388.25 71.052086 388.10938 70.75521Q387.98438 70.458336 387.98438 69.50521L387.98438 65.927086L387.21875 65.927086L387.21875 65.114586L387.98438 65.114586L387.98438 63.56771L389.03125 62.94271L389.03125 65.114586L390.09375 65.114586L390.09375 65.927086L389.03125 65.927086L389.03125 69.56771Q389.03125 70.020836 389.07812 70.145836Q389.14062 70.270836 389.26562 70.34896Q389.39062 70.427086 389.625 70.427086Q389.8125 70.427086 390.09375 70.395836ZM391.48438 73.864586L390.73438 73.864586Q392.48438 71.052086 392.48438 68.22396Q392.48438 67.13021 392.23438 66.03646Q392.03125 65.16146 391.67188 64.34896Q391.4375 63.833336 390.73438 62.59896L391.48438 62.59896Q392.57812 64.06771 393.10938 65.552086Q393.5625 66.833336 393.5625 68.22396Q393.5625 69.802086 392.95312 71.28646Q392.34375 72.75521 391.48438 73.864586Z" fill-rule="nonzero"/><path fill="#fbbc04" d="M410.0 62.333332C410.0 61.781048 410.44772 61.333332 411.0 61.333332L421.0 61.333332C421.55228 61.333332 422.0 61.781048 422.0 62.333332L422.0 72.333336C422.0 72.88562 421.55228 73.333336 421.0 73.333336L411.0 73.333336C410.44772 73.333336 410.0 72.88562 410.0 72.333336Z" fill-rule="nonzero"/><path fill="#1a1a1a" d="M433.10938 71.333336L433.10938 63.75521L430.28125 63.75521L430.28125 62.739586L437.09375 62.739586L437.09375 63.75521L434.25 63.75521L434.25 71.333336L433.10938 71.333336ZM437.79688 63.958336L437.79688 62.739586L438.85938 62.739586L438.85938 63.958336L437.79688 63.958336ZM437.79688 71.333336L437.79688 65.114586L438.85938 65.114586L438.85938 71.333336L437.79688 71.333336ZM443.09375 70.395836L443.25 71.31771Q442.79688 71.41146 442.45312 71.41146Q441.875 71.41146 441.5625 71.239586Q441.25 71.052086 441.10938 70.75521Q440.98438 70.458336 440.98438 69.50521L440.98438 65.927086L440.21875 65.927086L440.21875 65.114586L440.98438 65.114586L440.98438 63.56771L442.03125 62.94271L442.03125 65.114586L443.09375 65.114586L443.09375 65.927086L442.03125 65.927086L442.03125 69.56771Q442.03125 70.020836 442.07812 70.145836Q442.14062 70.270836 442.26562 70.34896Q442.39062 70.427086 442.625 70.427086Q442.8125 70.427086 443.09375 70.395836ZM447.85938 70.56771Q447.26562 71.06771 446.71875 71.270836Q446.1875 71.47396 445.5625 71.47396Q444.53125 71.47396 443.98438 70.97396Q443.4375 70.47396 443.4375 69.69271Q443.4375 69.239586 443.64062 68.864586Q443.84375 68.47396 444.1875 68.25521Q444.53125 68.020836 444.95312 67.91146Q445.25 67.81771 445.89062 67.739586Q447.15625 67.59896 447.76562 67.38021Q447.76562 67.16146 447.76562 67.114586Q447.76562 66.458336 447.46875 66.19271Q447.0625 65.84896 446.26562 65.84896Q445.53125 65.84896 445.17188 66.114586Q444.8125 66.364586 444.64062 67.020836L443.60938 66.88021Q443.75 66.22396 444.07812 65.81771Q444.40625 65.41146 445.01562 65.19271Q445.625 64.97396 446.42188 64.97396Q447.21875 64.97396 447.71875 65.16146Q448.21875 65.34896 448.45312 65.63021Q448.6875 65.91146 448.78125 66.34896Q448.82812 66.614586 448.82812 67.31771L448.82812 68.72396Q448.82812 70.19271 448.89062 70.583336Q448.96875 70.97396 449.17188 71.333336L448.0625 71.333336Q447.90625 71.00521 447.85938 70.56771ZM447.76562 68.208336Q447.1875 68.44271 446.04688 68.614586Q445.39062 68.708336 445.125 68.833336Q444.85938 68.94271 444.70312 69.16146Q444.5625 69.38021 444.5625 69.66146Q444.5625 70.083336 444.875 70.364586Q445.20312 70.645836 445.8125 70.645836Q446.42188 70.645836 446.89062 70.38021Q447.375 70.114586 447.59375 69.645836Q447.76562 69.28646 447.76562 68.59896L447.76562 68.208336ZM450.79688 71.333336L450.79688 65.114586L451.73438 65.114586L451.73438 65.989586Q452.42188 64.97396 453.71875 64.97396Q454.28125 64.97396 454.75 65.177086Q455.23438 65.38021 455.46875 65.708336Q455.70312 66.03646 455.79688 66.47396Q455.84375 66.770836 455.84375 67.50521L455.84375 71.333336L454.79688 71.333336L454.79688 67.552086Q454.79688 66.895836 454.67188 66.583336Q454.54688 66.270836 454.23438 66.083336Q453.92188 65.88021 453.5 65.88021Q452.82812 65.88021 452.32812 66.31771Q451.84375 66.739586 451.84375 67.927086L451.84375 71.333336L450.79688 71.333336ZM460.9375 71.333336L460.9375 62.739586L464.75 62.739586Q465.90625 62.739586 466.5 62.97396Q467.09375 63.208336 467.45312 63.802086Q467.8125 64.38021 467.8125 65.083336Q467.8125 66.00521 467.21875 66.63021Q466.625 67.25521 465.39062 67.427086Q465.84375 67.645836 466.07812 67.84896Q466.57812 68.302086 467.01562 68.989586L468.51562 71.333336L467.07812 71.333336L465.95312 69.552086Q465.45312 68.770836 465.125 68.364586Q464.8125 67.958336 464.54688 67.802086Q464.29688 67.63021 464.03125 67.552086Q463.84375 67.520836 463.40625 67.520836L462.07812 67.520836L462.07812 71.333336L460.9375 71.333336ZM462.07812 66.53646L464.53125 66.53646Q465.29688 66.53646 465.73438 66.38021Q466.1875 66.208336 466.40625 65.864586Q466.64062 65.50521 466.64062 65.083336Q466.64062 64.47396 466.1875 64.083336Q465.75 63.69271 464.79688 63.69271L462.07812 63.69271L462.07812 66.53646ZM472.10938 71.333336L472.10938 63.75521L469.28125 63.75521L469.28125 62.739586L476.09375 62.739586L476.09375 63.75521L473.25 63.75521L473.25 71.333336L472.10938 71.333336ZM476.04688 71.333336L479.375 66.84896L476.45312 62.739586L477.79688 62.739586L479.35938 64.94271Q479.84375 65.63021 480.04688 66.00521Q480.34375 65.53646 480.73438 65.020836L482.45312 62.739586L483.6875 62.739586L480.67188 66.78646L483.92188 71.333336L482.51562 71.333336L480.35938 68.270836Q480.17188 68.00521 479.98438 67.69271Q479.70312 68.16146 479.57812 68.333336L477.42188 71.333336L476.04688 71.333336ZM489.8125 73.864586Q488.9375 72.75521 488.32812 71.28646Q487.73438 69.802086 487.73438 68.22396Q487.73438 66.833336 488.17188 65.552086Q488.70312 64.06771 489.8125 62.59896L490.5625 62.59896Q489.85938 63.81771 489.625 64.333336Q489.26562 65.145836 489.0625 66.020836Q488.8125 67.114586 488.8125 68.22396Q488.8125 71.052086 490.5625 73.864586L489.8125 73.864586ZM491.5 69.06771L492.5625 68.927086Q492.73438 69.81771 493.17188 70.22396Q493.60938 70.614586 494.23438 70.614586Q494.98438 70.614586 495.5 70.09896Q496.01562 69.583336 496.01562 68.81771Q496.01562 68.09896 495.53125 67.63021Q495.0625 67.145836 494.32812 67.145836Q494.03125 67.145836 493.57812 67.270836L493.70312 66.333336Q493.8125 66.34896 493.875 66.34896Q494.54688 66.34896 495.07812 66.00521Q495.625 65.645836 495.625 64.91146Q495.625 64.333336 495.23438 63.958336Q494.84375 63.56771 494.21875 63.56771Q493.60938 63.56771 493.1875 63.958336Q492.78125 64.34896 492.67188 65.114586L491.60938 64.927086Q491.79688 63.88021 492.48438 63.302086Q493.17188 62.708336 494.1875 62.708336Q494.89062 62.708336 495.48438 63.020836Q496.07812 63.31771 496.39062 63.833336Q496.70312 64.34896 496.70312 64.94271Q496.70312 65.489586 496.40625 65.958336Q496.10938 66.41146 495.53125 66.677086Q496.28125 66.84896 496.70312 67.41146Q497.125 67.958336 497.125 68.802086Q497.125 69.927086 496.29688 70.708336Q495.48438 71.489586 494.23438 71.489586Q493.10938 71.489586 492.35938 70.81771Q491.60938 70.13021 491.5 69.06771ZM504.04688 70.31771L504.04688 71.333336L498.35938 71.333336Q498.35938 70.958336 498.48438 70.59896Q498.70312 70.020836 499.17188 69.458336Q499.65625 68.895836 500.5625 68.16146Q501.96875 67.00521 502.45312 66.333336Q502.95312 65.66146 502.95312 65.06771Q502.95312 64.44271 502.5 64.020836Q502.04688 63.583336 501.32812 63.583336Q500.5625 63.583336 500.10938 64.03646Q499.65625 64.489586 499.64062 65.302086L498.5625 65.19271Q498.67188 63.97396 499.39062 63.34896Q500.125 62.708336 501.35938 62.708336Q502.59375 62.708336 503.3125 63.395836Q504.03125 64.083336 504.03125 65.09896Q504.03125 65.614586 503.8125 66.114586Q503.60938 66.59896 503.10938 67.16146Q502.625 67.708336 501.5 68.66146Q500.54688 69.458336 500.26562 69.75521Q500.0 70.03646 499.82812 70.31771L504.04688 70.31771ZM505.5 67.09896Q505.5 65.56771 505.8125 64.645836Q506.125 63.708336 506.73438 63.208336Q507.35938 62.708336 508.29688 62.708336Q508.98438 62.708336 509.5 62.989586Q510.03125 63.270836 510.375 63.802086Q510.71875 64.31771 510.90625 65.06771Q511.09375 65.81771 511.09375 67.09896Q511.09375 68.614586 510.78125 69.53646Q510.48438 70.458336 509.85938 70.97396Q509.25 71.47396 508.29688 71.47396Q507.0625 71.47396 506.34375 70.583336Q505.5 69.520836 505.5 67.09896ZM506.57812 67.09896Q506.57812 69.208336 507.07812 69.91146Q507.57812 70.614586 508.29688 70.614586Q509.03125 70.614586 509.51562 69.91146Q510.01562 69.208336 510.01562 67.09896Q510.01562 64.97396 509.51562 64.28646Q509.03125 63.583336 508.28125 63.583336Q507.5625 63.583336 507.125 64.19271Q506.57812 64.97396 506.57812 67.09896ZM514.4219 71.333336L512.1406 62.739586L513.3125 62.739586L514.625 68.38021Q514.8281 69.25521 514.9844 70.13021Q515.3125 68.75521 515.375 68.53646L517.0 62.739586L518.375 62.739586L519.6094 67.083336Q520.0625 68.708336 520.28125 70.13021Q520.4375 69.31771 520.7031 68.25521L522.0469 62.739586L523.1875 62.739586L520.84375 71.333336L519.7344 71.333336L517.9375 64.78646Q517.7031 63.97396 517.65625 63.78646Q517.53125 64.364586 517.40625 64.78646L515.59375 71.333336L514.4219 71.333336ZM524.4844 73.864586L523.7344 73.864586Q525.4844 71.052086 525.4844 68.22396Q525.4844 67.13021 525.2344 66.03646Q525.03125 65.16146 524.6719 64.34896Q524.4375 63.833336 523.7344 62.59896L524.4844 62.59896Q525.5781 64.06771 526.1094 65.552086Q526.5625 66.833336 526.5625 68.22396Q526.5625 69.802086 525.9531 71.28646Q525.34375 72.75521 524.4844 73.864586Z" fill-rule="nonzero"/><path fill="#757575" d="M23.378124 40.8L23.378124 26.4875L29.721874 26.4875Q31.628124 26.4875 32.628124 26.878124Q33.628124 27.253124 34.221874 28.2375Q34.815624 29.20625 34.815624 30.39375Q34.815624 31.909374 33.83125 32.95625Q32.846874 34.003124 30.784374 34.284374Q31.534374 34.64375 31.925 35.003124Q32.753124 35.753124 33.503124 36.909374L35.9875 40.8L33.6125 40.8L31.70625 37.815624Q30.878124 36.534374 30.346874 35.846874Q29.815624 35.159374 29.378124 34.89375Q28.95625 34.6125 28.51875 34.503124Q28.190624 34.440624 27.471874 34.440624L25.26875 34.440624L25.26875 40.8L23.378124 40.8ZM25.26875 32.8L29.346874 32.8Q30.64375 32.8 31.3625 32.534374Q32.096874 32.26875 32.471874 31.675Q32.8625 31.08125 32.8625 30.39375Q32.8625 29.378124 32.128124 28.721874Q31.39375 28.065624 29.8 28.065624L25.26875 28.065624L25.26875 32.8ZM40.9875 40.8L40.9875 28.175L36.26875 28.175L36.26875 26.4875L47.6125 26.4875L47.6125 28.175L42.878124 28.175L42.878124 40.8L40.9875 40.8ZM47.89375 40.8L53.425 33.33125L48.55 26.4875L50.8 26.4875L53.39375 30.159374Q54.20625 31.3 54.55 31.909374Q55.034374 31.128124 55.675 30.284374L58.565624 26.4875L60.628124 26.4875L55.596874 33.2375L61.01875 40.8L58.675 40.8L55.065624 35.690624Q54.76875 35.253124 54.440624 34.7375Q53.95625 35.51875 53.753124 35.815624L50.159374 40.8L47.89375 40.8ZM67.64375 37.01875L69.39375 36.784374Q69.70625 38.284374 70.425 38.940624Q71.15938 39.596874 72.20625 39.596874Q73.44063 39.596874 74.28438 38.7375Q75.14375 37.878124 75.14375 36.6125Q75.14375 35.39375 74.34688 34.6125Q73.56563 33.83125 72.34688 33.83125Q71.84688 33.83125 71.1125 34.01875L71.3 32.471874Q71.47188 32.503124 71.58125 32.503124Q72.70625 32.503124 73.59688 31.925Q74.50313 31.33125 74.50313 30.1125Q74.50313 29.14375 73.84688 28.503124Q73.19063 27.8625 72.15938 27.8625Q71.14375 27.8625 70.45625 28.51875Q69.76875 29.159374 69.58125 30.440624L67.81563 30.128124Q68.14375 28.3625 69.28438 27.39375Q70.425 26.425 72.12813 26.425Q73.3 26.425 74.28438 26.925Q75.26875 27.425 75.78438 28.3Q76.31563 29.175 76.31563 30.14375Q76.31563 31.065624 75.81563 31.83125Q75.31563 32.596874 74.34688 33.05Q75.6125 33.33125 76.31563 34.26875Q77.01875 35.190624 77.01875 36.565624Q77.01875 38.440624 75.64375 39.753124Q74.28438 41.05 72.19063 41.05Q70.3 41.05 69.05 39.925Q67.81563 38.8 67.64375 37.01875ZM78.62813 33.7375Q78.62813 31.20625 79.14375 29.659374Q79.675 28.096874 80.70625 27.26875Q81.7375 26.425 83.3 26.425Q84.45625 26.425 85.31563 26.89375Q86.19063 27.346874 86.75313 28.221874Q87.31563 29.096874 87.64375 30.3625Q87.97188 31.6125 87.97188 33.7375Q87.97188 36.253124 87.44063 37.8Q86.925 39.346874 85.89375 40.20625Q84.87813 41.05 83.3 41.05Q81.22188 41.05 80.05 39.565624Q78.62813 37.76875 78.62813 33.7375ZM80.44063 33.7375Q80.44063 37.26875 81.25313 38.440624Q82.08125 39.596874 83.3 39.596874Q84.50313 39.596874 85.33125 38.425Q86.15938 37.253124 86.15938 33.7375Q86.15938 30.20625 85.33125 29.05Q84.50313 27.878124 83.28438 27.878124Q82.06563 27.878124 81.34688 28.909374Q80.44063 30.20625 80.44063 33.7375ZM89.89375 37.4875L91.58125 37.33125Q91.8 38.51875 92.39375 39.065624Q93.00313 39.596874 93.95625 39.596874Q94.76875 39.596874 95.37813 39.2375Q95.9875 38.8625 96.37813 38.2375Q96.76875 37.6125 97.03438 36.565624Q97.3 35.503124 97.3 34.409374Q97.3 34.3 97.28438 34.065624Q96.75313 34.89375 95.84688 35.425Q94.94063 35.940624 93.8625 35.940624Q92.09688 35.940624 90.8625 34.659374Q89.62813 33.3625 89.62813 31.253124Q89.62813 29.08125 90.90938 27.753124Q92.20625 26.425 94.12813 26.425Q95.53438 26.425 96.69063 27.175Q97.84688 27.925 98.44063 29.315624Q99.05 30.70625 99.05 33.346874Q99.05 36.096874 98.44063 37.721874Q97.84688 39.346874 96.675 40.20625Q95.50313 41.05 93.925 41.05Q92.2375 41.05 91.175 40.1125Q90.1125 39.175 89.89375 37.4875ZM97.09688 31.175Q97.09688 29.659374 96.28438 28.76875Q95.4875 27.878124 94.34688 27.878124Q93.175 27.878124 92.3 28.846874Q91.44063 29.8 91.44063 31.315624Q91.44063 32.690624 92.25313 33.55Q93.08125 34.39375 94.3 34.39375Q95.51875 34.39375 96.3 33.55Q97.09688 32.690624 97.09688 31.175ZM100.62813 33.7375Q100.62813 31.20625 101.14375 29.659374Q101.675 28.096874 102.70625 27.26875Q103.7375 26.425 105.3 26.425Q106.45625 26.425 107.31563 26.89375Q108.19063 27.346874 108.75313 28.221874Q109.31563 29.096874 109.64375 30.3625Q109.97188 31.6125 109.97188 33.7375Q109.97188 36.253124 109.44063 37.8Q108.925 39.346874 107.89375 40.20625Q106.87813 41.05 105.3 41.05Q103.22188 41.05 102.05 39.565624Q100.62813 37.76875 100.62813 33.7375ZM102.44063 33.7375Q102.44063 37.26875 103.25313 38.440624Q104.08125 39.596874 105.3 39.596874Q106.50313 39.596874 107.33125 38.425Q108.15938 37.253124 108.15938 33.7375Q108.15938 30.20625 107.33125 29.05Q106.50313 27.878124 105.28438 27.878124Q104.06563 27.878124 103.34688 28.909374Q102.44063 30.20625 102.44063 33.7375ZM121.00313 40.8L117.05 30.425L118.90938 30.425L121.14375 36.64375Q121.50313 37.64375 121.8 38.721874Q122.03438 37.909374 122.45625 36.753124L124.75313 30.425L126.56563 30.425L122.64375 40.8L121.00313 40.8ZM127.40938 37.70625L129.15938 37.425Q129.3 38.471874 129.97188 39.034374Q130.64375 39.58125 131.84688 39.58125Q133.05 39.58125 133.62813 39.096874Q134.22188 38.596874 134.22188 37.940624Q134.22188 37.346874 133.70625 37.003124Q133.34688 36.76875 131.90938 36.409374Q129.97188 35.909374 129.22188 35.565624Q128.4875 35.20625 128.09688 34.58125Q127.70625 33.940624 127.70625 33.175Q127.70625 32.4875 128.01875 31.89375Q128.34688 31.3 128.89375 30.909374Q129.3 30.6125 130.00313 30.409374Q130.72188 30.190624 131.53438 30.190624Q132.75313 30.190624 133.675 30.55Q134.59688 30.89375 135.03438 31.503124Q135.47188 32.096874 135.64375 33.096874L133.925 33.33125Q133.8 32.534374 133.2375 32.096874Q132.675 31.64375 131.65938 31.64375Q130.44063 31.64375 129.925 32.05Q129.40938 32.440624 129.40938 32.971874Q129.40938 33.315624 129.62813 33.596874Q129.83125 33.878124 130.3 34.065624Q130.56563 34.159374 131.84688 34.503124Q133.72188 35.003124 134.45625 35.33125Q135.19063 35.64375 135.6125 36.253124Q136.03438 36.846874 136.03438 37.753124Q136.03438 38.628124 135.51875 39.409374Q135.00313 40.190624 134.03438 40.6125Q133.06563 41.034374 131.84688 41.034374Q129.83125 41.034374 128.76875 40.190624Q127.70625 39.346874 127.40938 37.70625ZM147.9875 40.8L147.9875 28.175L143.26875 28.175L143.26875 26.4875L154.6125 26.4875L154.6125 28.175L149.87813 28.175L149.87813 40.8L147.9875 40.8ZM156.12813 28.503124L156.12813 26.4875L157.89375 26.4875L157.89375 28.503124L156.12813 28.503124ZM156.12813 40.8L156.12813 30.425L157.89375 30.425L157.89375 40.8L156.12813 40.8ZM163.95625 39.221874L164.20625 40.784374Q163.47188 40.940624 162.87813 40.940624Q161.925 40.940624 161.39375 40.64375Q160.87813 40.33125 160.65938 39.846874Q160.44063 39.346874 160.44063 37.76875L160.44063 31.8L159.15938 31.8L159.15938 30.425L160.44063 30.425L160.44063 27.8625L162.19063 26.8L162.19063 30.425L163.95625 30.425L163.95625 31.8L162.19063 31.8L162.19063 37.8625Q162.19063 38.6125 162.28438 38.83125Q162.37813 39.034374 162.58125 39.175Q162.8 39.3 163.19063 39.3Q163.47188 39.3 163.95625 39.221874ZM172.89375 39.51875Q171.90938 40.346874 171.00313 40.690624Q170.09688 41.034374 169.06563 41.034374Q167.3625 41.034374 166.44063 40.20625Q165.51875 39.3625 165.51875 38.065624Q165.51875 37.3 165.8625 36.675Q166.22188 36.05 166.78438 35.675Q167.34688 35.284374 168.05 35.08125Q168.56563 34.95625 169.6125 34.815624Q171.7375 34.565624 172.7375 34.221874Q172.75313 33.8625 172.75313 33.753124Q172.75313 32.690624 172.25313 32.2375Q171.58125 31.64375 170.25313 31.64375Q169.00313 31.64375 168.40938 32.08125Q167.83125 32.51875 167.55 33.628124L165.83125 33.39375Q166.06563 32.284374 166.59688 31.6125Q167.12813 30.925 168.14375 30.565624Q169.15938 30.190624 170.50313 30.190624Q171.83125 30.190624 172.65938 30.503124Q173.4875 30.815624 173.87813 31.3Q174.26875 31.76875 174.425 32.4875Q174.51875 32.940624 174.51875 34.1125L174.51875 36.45625Q174.51875 38.909374 174.62813 39.565624Q174.7375 40.20625 175.08125 40.8L173.2375 40.8Q172.97188 40.253124 172.89375 39.51875ZM172.7375 35.596874Q171.78438 35.9875 169.8625 36.253124Q168.78438 36.409374 168.33125 36.6125Q167.89375 36.8 167.64375 37.175Q167.39375 37.55 167.39375 38.01875Q167.39375 38.721874 167.925 39.190624Q168.45625 39.659374 169.4875 39.659374Q170.50313 39.659374 171.28438 39.221874Q172.08125 38.76875 172.45625 38.003124Q172.7375 37.39375 172.7375 36.2375L172.7375 35.596874ZM177.1125 40.8L177.1125 30.425L178.70625 30.425L178.70625 31.909374Q179.84688 30.190624 182.00313 30.190624Q182.94063 30.190624 183.72188 30.534374Q184.51875 30.8625 184.90938 31.409374Q185.3 31.95625 185.45625 32.70625Q185.55 33.20625 185.55 34.425L185.55 40.8L183.78438 40.8L183.78438 34.4875Q183.78438 33.409374 183.58125 32.878124Q183.37813 32.346874 182.84688 32.034374Q182.33125 31.721874 181.62813 31.721874Q180.50313 31.721874 179.69063 32.440624Q178.87813 33.14375 178.87813 35.128124L178.87813 40.8L177.1125 40.8ZM194.37813 40.8L194.37813 26.4875L200.72188 26.4875Q202.62813 26.4875 203.62813 26.878124Q204.62813 27.253124 205.22188 28.2375Q205.81563 29.20625 205.81563 30.39375Q205.81563 31.909374 204.83125 32.95625Q203.84688 34.003124 201.78438 34.284374Q202.53438 34.64375 202.925 35.003124Q203.75313 35.753124 204.50313 36.909374L206.9875 40.8L204.6125 40.8L202.70625 37.815624Q201.87813 36.534374 201.34688 35.846874Q200.81563 35.159374 200.37813 34.89375Q199.95625 34.6125 199.51875 34.503124Q199.19063 34.440624 198.47188 34.440624L196.26875 34.440624L196.26875 40.8L194.37813 40.8ZM196.26875 32.8L200.34688 32.8Q201.64375 32.8 202.3625 32.534374Q203.09688 32.26875 203.47188 31.675Q203.8625 31.08125 203.8625 30.39375Q203.8625 29.378124 203.12813 28.721874Q202.39375 28.065624 200.8 28.065624L196.26875 28.065624L196.26875 32.8ZM211.9875 40.8L211.9875 28.175L207.26875 28.175L207.26875 26.4875L218.6125 26.4875L218.6125 28.175L213.87813 28.175L213.87813 40.8L211.9875 40.8ZM218.89375 40.8L224.425 33.33125L219.55 26.4875L221.8 26.4875L224.39375 30.159374Q225.20625 31.3 225.55 31.909374Q226.03438 31.128124 226.675 30.284374L229.56563 26.4875L231.62813 26.4875L226.59688 33.2375L232.01875 40.8L229.675 40.8L226.06563 35.690624Q225.76875 35.253124 225.44063 34.7375Q224.95625 35.51875 224.75313 35.815624L221.15938 40.8L218.89375 40.8ZM239.28438 40.8L239.28438 26.4875L242.14375 26.4875L245.51875 36.6125Q245.9875 38.034374 246.20625 38.7375Q246.45625 37.95625 246.97188 36.440624L250.39375 26.4875L252.94063 26.4875L252.94063 40.8L251.12813 40.8L251.12813 28.815624L246.95625 40.8L245.25313 40.8L241.1125 28.6125L241.1125 40.8L239.28438 40.8ZM256.33124 40.8L256.33124 26.4875L258.26874 26.4875L265.78436 37.721874L265.78436 26.4875L267.59686 26.4875L267.59686 40.8L265.65936 40.8L258.14374 29.55L258.14374 40.8L256.33124 40.8ZM270.26874 40.8L270.26874 26.4875L272.15936 26.4875L272.15936 39.1125L279.20624 39.1125L279.20624 40.8L270.26874 40.8ZM281.65936 40.8L281.65936 26.4875L283.5656 26.4875L283.5656 40.8L281.65936 40.8ZM296.9875 40.8L296.9875 28.175L292.26874 28.175L292.26874 26.4875L303.6125 26.4875L303.6125 28.175L298.8781 28.175L298.8781 40.8L296.9875 40.8ZM305.09686 40.8L305.09686 30.425L306.675 30.425L306.675 32.003124Q307.28436 30.89375 307.8 30.55Q308.3156 30.190624 308.925 30.190624Q309.8156 30.190624 310.7375 30.753124L310.1281 32.39375Q309.4875 32.003124 308.84686 32.003124Q308.26874 32.003124 307.8 32.3625Q307.34686 32.70625 307.14374 33.315624Q306.8625 34.253124 306.8625 35.3625L306.8625 40.8L305.09686 40.8ZM318.89374 39.51875Q317.90936 40.346874 317.0031 40.690624Q316.09686 41.034374 315.0656 41.034374Q313.3625 41.034374 312.4406 40.20625Q311.51874 39.3625 311.51874 38.065624Q311.51874 37.3 311.8625 36.675Q312.22186 36.05 312.78436 35.675Q313.34686 35.284374 314.05 35.08125Q314.5656 34.95625 315.6125 34.815624Q317.7375 34.565624 318.7375 34.221874Q318.7531 33.8625 318.7531 33.753124Q318.7531 32.690624 318.2531 32.2375Q317.58124 31.64375 316.2531 31.64375Q315.0031 31.64375 314.40936 32.08125Q313.83124 32.51875 313.55 33.628124L311.83124 33.39375Q312.0656 32.284374 312.59686 31.6125Q313.1281 30.925 314.14374 30.565624Q315.15936 30.190624 316.5031 30.190624Q317.83124 30.190624 318.65936 30.503124Q319.4875 30.815624 319.8781 31.3Q320.26874 31.76875 320.425 32.4875Q320.51874 32.940624 320.51874 34.1125L320.51874 36.45625Q320.51874 38.909374 320.6281 39.565624Q320.7375 40.20625 321.08124 40.8L319.2375 40.8Q318.97186 40.253124 318.89374 39.51875ZM318.7375 35.596874Q317.78436 35.9875 315.8625 36.253124Q314.78436 36.409374 314.33124 36.6125Q313.89374 36.8 313.64374 37.175Q313.39374 37.55 313.39374 38.01875Q313.39374 38.721874 313.925 39.190624Q314.45624 39.659374 315.4875 39.659374Q316.5031 39.659374 317.28436 39.221874Q318.08124 38.76875 318.45624 38.003124Q318.7375 37.39375 318.7375 36.2375L318.7375 35.596874ZM323.1125 40.8L323.1125 30.425L324.70624 30.425L324.70624 31.909374Q325.84686 30.190624 328.0031 30.190624Q328.9406 30.190624 329.72186 30.534374Q330.51874 30.8625 330.90936 31.409374Q331.3 31.95625 331.45624 32.70625Q331.55 33.20625 331.55 34.425L331.55 40.8L329.78436 40.8L329.78436 34.4875Q329.78436 33.409374 329.58124 32.878124Q329.3781 32.346874 328.84686 32.034374Q328.33124 31.721874 327.6281 31.721874Q326.5031 31.721874 325.6906 32.440624Q324.8781 33.14375 324.8781 35.128124L324.8781 40.8L323.1125 40.8ZM333.40936 37.70625L335.15936 37.425Q335.3 38.471874 335.97186 39.034374Q336.64374 39.58125 337.84686 39.58125Q339.05 39.58125 339.6281 39.096874Q340.22186 38.596874 340.22186 37.940624Q340.22186 37.346874 339.70624 37.003124Q339.34686 36.76875 337.90936 36.409374Q335.97186 35.909374 335.22186 35.565624Q334.4875 35.20625 334.09686 34.58125Q333.70624 33.940624 333.70624 33.175Q333.70624 32.4875 334.01874 31.89375Q334.34686 31.3 334.89374 30.909374Q335.3 30.6125 336.0031 30.409374Q336.72186 30.190624 337.53436 30.190624Q338.7531 30.190624 339.675 30.55Q340.59686 30.89375 341.03436 31.503124Q341.47186 32.096874 341.64374 33.096874L339.925 33.33125Q339.8 32.534374 339.2375 32.096874Q338.675 31.64375 337.65936 31.64375Q336.4406 31.64375 335.925 32.05Q335.40936 32.440624 335.40936 32.971874Q335.40936 33.315624 335.6281 33.596874Q335.83124 33.878124 336.3 34.065624Q336.5656 34.159374 337.84686 34.503124Q339.72186 35.003124 340.45624 35.33125Q341.1906 35.64375 341.6125 36.253124Q342.03436 36.846874 342.03436 37.753124Q342.03436 38.628124 341.51874 39.409374Q341.0031 40.190624 340.03436 40.6125Q339.0656 41.034374 337.84686 41.034374Q335.83124 41.034374 334.76874 40.190624Q333.70624 39.346874 333.40936 37.70625ZM344.53436 40.8L344.53436 31.8L342.9875 31.8L342.9875 30.425L344.53436 30.425L344.53436 29.33125Q344.53436 28.284374 344.72186 27.76875Q344.97186 27.08125 345.6125 26.659374Q346.2531 26.2375 347.40936 26.2375Q348.15936 26.2375 349.05 26.409374L348.78436 27.940624Q348.2375 27.846874 347.7531 27.846874Q346.95624 27.846874 346.6125 28.190624Q346.28436 28.534374 346.28436 29.471874L346.28436 30.425L348.3156 30.425L348.3156 31.8L346.28436 31.8L346.28436 40.8L344.53436 40.8ZM349.47186 35.6125Q349.47186 32.7375 351.0656 31.346874Q352.40936 30.190624 354.33124 30.190624Q356.47186 30.190624 357.8156 31.596874Q359.175 33.003124 359.175 35.471874Q359.175 37.471874 358.58124 38.628124Q357.9875 39.76875 356.83124 40.409374Q355.6906 41.034374 354.33124 41.034374Q352.14374 41.034374 350.8 39.64375Q349.47186 38.2375 349.47186 35.6125ZM351.26874 35.6125Q351.26874 37.6125 352.1281 38.596874Q353.0031 39.58125 354.33124 39.58125Q355.64374 39.58125 356.5031 38.596874Q357.3781 37.596874 357.3781 35.55Q357.3781 33.628124 356.5031 32.64375Q355.6281 31.64375 354.33124 31.64375Q353.0031 31.64375 352.1281 32.64375Q351.26874 33.628124 351.26874 35.6125ZM361.09686 40.8L361.09686 30.425L362.675 30.425L362.675 32.003124Q363.28436 30.89375 363.8 30.55Q364.3156 30.190624 364.925 30.190624Q365.8156 30.190624 366.7375 30.753124L366.1281 32.39375Q365.4875 32.003124 364.84686 32.003124Q364.26874 32.003124 363.8 32.3625Q363.34686 32.70625 363.14374 33.315624Q362.8625 34.253124 362.8625 35.3625L362.8625 40.8L361.09686 40.8ZM368.1125 40.8L368.1125 30.425L369.6906 30.425L369.6906 31.878124Q370.175 31.128124 370.9875 30.659374Q371.8 30.190624 372.83124 30.190624Q373.9875 30.190624 374.72186 30.675Q375.45624 31.14375 375.76874 32.003124Q377.0031 30.190624 378.97186 30.190624Q380.51874 30.190624 381.34686 31.05Q382.175 31.909374 382.175 33.675L382.175 40.8L380.425 40.8L380.425 34.26875Q380.425 33.20625 380.2531 32.753124Q380.08124 32.284374 379.6281 32.003124Q379.1906 31.721874 378.58124 31.721874Q377.4875 31.721874 376.7531 32.45625Q376.03436 33.175 376.03436 34.76875L376.03436 40.8L374.28436 40.8L374.28436 34.065624Q374.28436 32.89375 373.84686 32.315624Q373.425 31.721874 372.4406 31.721874Q371.70624 31.721874 371.0656 32.1125Q370.4406 32.503124 370.15936 33.253124Q369.8781 34.003124 369.8781 35.425L369.8781 40.8L368.1125 40.8ZM392.22186 37.45625L394.03436 37.690624Q393.6125 39.26875 392.4406 40.159374Q391.28436 41.034374 389.47186 41.034374Q387.20624 41.034374 385.8625 39.64375Q384.53436 38.2375 384.53436 35.70625Q384.53436 33.08125 385.8781 31.64375Q387.22186 30.190624 389.3781 30.190624Q391.45624 30.190624 392.76874 31.6125Q394.09686 33.01875 394.09686 35.596874Q394.09686 35.753124 394.08124 36.065624L386.34686 36.065624Q386.4406 37.76875 387.3156 38.675Q388.1906 39.58125 389.4875 39.58125Q390.45624 39.58125 391.1281 39.08125Q391.8156 38.565624 392.22186 37.45625ZM386.4406 34.6125L392.2375 34.6125Q392.1281 33.315624 391.58124 32.659374Q390.7375 31.64375 389.39374 31.64375Q388.1906 31.64375 387.3625 32.45625Q386.53436 33.253124 386.4406 34.6125ZM396.09686 40.8L396.09686 30.425L397.675 30.425L397.675 32.003124Q398.28436 30.89375 398.8 30.55Q399.3156 30.190624 399.925 30.190624Q400.8156 30.190624 401.7375 30.753124L401.1281 32.39375Q400.4875 32.003124 399.84686 32.003124Q399.26874 32.003124 398.8 32.3625Q398.34686 32.70625 398.14374 33.315624Q397.8625 34.253124 397.8625 35.3625L397.8625 40.8L396.09686 40.8ZM409.4406 40.8L409.4406 26.4875L419.09686 26.4875L419.09686 28.175L411.33124 28.175L411.33124 32.6125L418.05 32.6125L418.05 34.3L411.33124 34.3L411.33124 40.8L409.4406 40.8ZM421.1281 28.503124L421.1281 26.4875L422.89374 26.4875L422.89374 28.503124L421.1281 28.503124ZM421.1281 40.8L421.1281 30.425L422.89374 30.425L422.89374 40.8L421.1281 40.8ZM425.1125 40.8L425.1125 30.425L426.70624 30.425L426.70624 31.909374Q427.84686 30.190624 430.0031 30.190624Q430.9406 30.190624 431.72186 30.534374Q432.51874 30.8625 432.90936 31.409374Q433.3 31.95625 433.45624 32.70625Q433.55 33.20625 433.55 34.425L433.55 40.8L431.78436 40.8L431.78436 34.4875Q431.78436 33.409374 431.58124 32.878124Q431.3781 32.346874 430.84686 32.034374Q430.33124 31.721874 429.6281 31.721874Q428.5031 31.721874 427.6906 32.440624Q426.8781 33.14375 426.8781 35.128124L426.8781 40.8L425.1125 40.8ZM443.22186 37.45625L445.03436 37.690624Q444.6125 39.26875 443.4406 40.159374Q442.28436 41.034374 440.47186 41.034374Q438.20624 41.034374 436.8625 39.64375Q435.53436 38.2375 435.53436 35.70625Q435.53436 33.08125 436.8781 31.64375Q438.22186 30.190624 440.3781 30.190624Q442.45624 30.190624 443.76874 31.6125Q445.09686 33.01875 445.09686 35.596874Q445.09686 35.753124 445.08124 36.065624L437.34686 36.065624Q437.4406 37.76875 438.3156 38.675Q439.1906 39.58125 440.4875 39.58125Q441.45624 39.58125 442.1281 39.08125Q442.8156 38.565624 443.22186 37.45625ZM437.4406 34.6125L443.2375 34.6125Q443.1281 33.315624 442.58124 32.659374Q441.7375 31.64375 440.39374 31.64375Q439.1906 31.64375 438.3625 32.45625Q437.53436 33.253124 437.4406 34.6125ZM456.9875 40.8L456.9875 28.175L452.26874 28.175L452.26874 26.4875L463.6125 26.4875L463.6125 28.175L458.8781 28.175L458.8781 40.8L456.9875 40.8ZM471.90936 40.8L471.90936 39.26875Q470.70624 41.034374 468.6281 41.034374Q467.70624 41.034374 466.90936 40.690624Q466.1125 40.33125 465.72186 39.8Q465.34686 39.26875 465.1906 38.4875Q465.08124 37.971874 465.08124 36.846874L465.08124 30.425L466.83124 30.425L466.83124 36.175Q466.83124 37.55 466.9406 38.034374Q467.1125 38.721874 467.64374 39.128124Q468.1906 39.51875 468.97186 39.51875Q469.76874 39.51875 470.45624 39.1125Q471.15936 38.70625 471.4406 38.01875Q471.7375 37.315624 471.7375 35.9875L471.7375 30.425L473.4875 30.425L473.4875 40.8L471.90936 40.8ZM476.1125 40.8L476.1125 30.425L477.70624 30.425L477.70624 31.909374Q478.84686 30.190624 481.0031 30.190624Q481.9406 30.190624 482.72186 30.534374Q483.51874 30.8625 483.90936 31.409374Q484.3 31.95625 484.45624 32.70625Q484.55 33.20625 484.55 34.425L484.55 40.8L482.78436 40.8L482.78436 34.4875Q482.78436 33.409374 482.58124 32.878124Q482.3781 32.346874 481.84686 32.034374Q481.33124 31.721874 480.6281 31.721874Q479.5031 31.721874 478.6906 32.440624Q477.8781 33.14375 477.8781 35.128124L477.8781 40.8L476.1125 40.8ZM487.1281 28.503124L487.1281 26.4875L488.89374 26.4875L488.89374 28.503124L487.1281 28.503124ZM487.1281 40.8L487.1281 30.425L488.89374 30.425L488.89374 40.8L487.1281 40.8ZM491.1125 40.8L491.1125 30.425L492.70624 30.425L492.70624 31.909374Q493.84686 30.190624 496.0031 30.190624Q496.9406 30.190624 497.72186 30.534374Q498.51874 30.8625 498.90936 31.409374Q499.3 31.95625 499.45624 32.70625Q499.55 33.20625 499.55 34.425L499.55 40.8L497.78436 40.8L497.78436 34.4875Q497.78436 33.409374 497.58124 32.878124Q497.3781 32.346874 496.84686 32.034374Q496.33124 31.721874 495.6281 31.721874Q494.5031 31.721874 493.6906 32.440624Q492.8781 33.14375 492.8781 35.128124L492.8781 40.8L491.1125 40.8ZM501.8 41.659374L503.5031 41.909374Q503.6125 42.70625 504.09686 43.065624Q504.7531 43.55 505.89374 43.55Q507.1125 43.55 507.76874 43.065624Q508.4406 42.58125 508.675 41.70625Q508.8156 41.159374 508.8 39.440624Q507.64374 40.8 505.925 40.8Q503.78436 40.8 502.6125 39.253124Q501.4406 37.70625 501.4406 35.55Q501.4406 34.065624 501.97186 32.815624Q502.51874 31.565624 503.53436 30.878124Q504.5656 30.190624 505.9406 30.190624Q507.76874 30.190624 508.97186 31.675L508.97186 30.425L510.58124 30.425L510.58124 39.39375Q510.58124 41.815624 510.08124 42.815624Q509.59686 43.83125 508.51874 44.409374Q507.45624 45.003124 505.89374 45.003124Q504.05 45.003124 502.89374 44.175Q501.7531 43.346874 501.8 41.659374ZM503.2531 35.425Q503.2531 37.471874 504.0656 38.409374Q504.8781 39.346874 506.09686 39.346874Q507.3 39.346874 508.1125 38.409374Q508.9406 37.471874 508.9406 35.4875Q508.9406 33.58125 508.09686 32.6125Q507.2531 31.64375 506.0656 31.64375Q504.89374 31.64375 504.0656 32.596874Q503.2531 33.55 503.2531 35.425ZM522.47186 45.003124Q521.01874 43.175 520.01874 40.721874Q519.01874 38.253124 519.01874 35.6125Q519.01874 33.284374 519.76874 31.159374Q520.64374 28.690624 522.47186 26.2375L523.7375 26.2375Q522.55 28.26875 522.175 29.14375Q521.58124 30.4875 521.2375 31.95625Q520.8156 33.784374 520.8156 35.628124Q520.8156 40.315624 523.7375 45.003124L522.47186 45.003124ZM527.7375 40.8L526.1125 40.8L526.1125 26.4875L527.8625 26.4875L527.8625 31.596874Q528.9875 30.190624 530.70624 30.190624Q531.65936 30.190624 532.51874 30.58125Q533.3781 30.971874 533.925 31.675Q534.47186 32.3625 534.78436 33.346874Q535.09686 34.33125 535.09686 35.45625Q535.09686 38.128124 533.78436 39.58125Q532.47186 41.034374 530.6281 41.034374Q528.78436 41.034374 527.7375 39.503124L527.7375 40.8ZM527.72186 35.534374Q527.72186 37.39375 528.22186 38.2375Q529.0656 39.58125 530.47186 39.58125Q531.6281 39.58125 532.45624 38.58125Q533.3 37.58125 533.3 35.596874Q533.3 33.565624 532.4875 32.6125Q531.6906 31.64375 530.55 31.64375Q529.39374 31.64375 528.55 32.64375Q527.72186 33.64375 527.72186 35.534374ZM536.40936 37.70625L538.15936 37.425Q538.3 38.471874 538.97186 39.034374Q539.64374 39.58125 540.84686 39.58125Q542.05 39.58125 542.6281 39.096874Q543.22186 38.596874 543.22186 37.940624Q543.22186 37.346874 542.70624 37.003124Q542.34686 36.76875 540.90936 36.409374Q538.97186 35.909374 538.22186 35.565624Q537.4875 35.20625 537.09686 34.58125Q536.70624 33.940624 536.70624 33.175Q536.70624 32.4875 537.01874 31.89375Q537.34686 31.3 537.89374 30.909374Q538.3 30.6125 539.0031 30.409374Q539.72186 30.190624 540.53436 30.190624Q541.7531 30.190624 542.675 30.55Q543.59686 30.89375 544.03436 31.503124Q544.47186 32.096874 544.64374 33.096874L542.925 33.33125Q542.8 32.534374 542.2375 32.096874Q541.675 31.64375 540.65936 31.64375Q539.4406 31.64375 538.925 32.05Q538.40936 32.440624 538.40936 32.971874Q538.40936 33.315624 538.6281 33.596874Q538.83124 33.878124 539.3 34.065624Q539.5656 34.159374 540.84686 34.503124Q542.72186 35.003124 543.45624 35.33125Q544.1906 35.64375 544.6125 36.253124Q545.03436 36.846874 545.03436 37.753124Q545.03436 38.628124 544.51874 39.409374Q544.0031 40.190624 543.03436 40.6125Q542.0656 41.034374 540.84686 41.034374Q538.83124 41.034374 537.76874 40.190624Q536.70624 39.346874 536.40936 37.70625ZM556.3625 32.378124L546.90936 32.378124L546.90936 30.7375L556.3625 30.7375L556.3625 32.378124ZM556.3625 36.721874L546.90936 36.721874L546.90936 35.08125L556.3625 35.08125L556.3625 36.721874ZM558.64374 37.01875L560.39374 36.784374Q560.70624 38.284374 561.425 38.940624Q562.15936 39.596874 563.20624 39.596874Q564.4406 39.596874 565.28436 38.7375Q566.14374 37.878124 566.14374 36.6125Q566.14374 35.39375 565.34686 34.6125Q564.5656 33.83125 563.34686 33.83125Q562.84686 33.83125 562.1125 34.01875L562.3 32.471874Q562.47186 32.503124 562.58124 32.503124Q563.70624 32.503124 564.59686 31.925Q565.5031 31.33125 565.5031 30.1125Q565.5031 29.14375 564.84686 28.503124Q564.1906 27.8625 563.15936 27.8625Q562.14374 27.8625 561.45624 28.51875Q560.76874 29.159374 560.58124 30.440624L558.8156 30.128124Q559.14374 28.3625 560.28436 27.39375Q561.425 26.425 563.1281 26.425Q564.3 26.425 565.28436 26.925Q566.26874 27.425 566.78436 28.3Q567.3156 29.175 567.3156 30.14375Q567.3156 31.065624 566.8156 31.83125Q566.3156 32.596874 565.34686 33.05Q566.6125 33.33125 567.3156 34.26875Q568.01874 35.190624 568.01874 36.565624Q568.01874 38.440624 566.64374 39.753124Q565.28436 41.05 563.1906 41.05Q561.3 41.05 560.05 39.925Q558.8156 38.8 558.64374 37.01875ZM578.8625 39.1125L578.8625 40.8L569.40936 40.8Q569.39374 40.159374 569.6125 39.58125Q569.97186 38.6125 570.76874 37.675Q571.5656 36.7375 573.0656 35.503124Q575.40936 33.596874 576.22186 32.4875Q577.05 31.3625 577.05 30.3625Q577.05 29.315624 576.3 28.596874Q575.55 27.878124 574.34686 27.878124Q573.08124 27.878124 572.3156 28.64375Q571.55 29.409374 571.55 30.753124L569.7375 30.565624Q569.925 28.55 571.1281 27.4875Q572.34686 26.425 574.39374 26.425Q576.4406 26.425 577.64374 27.565624Q578.84686 28.70625 578.84686 30.39375Q578.84686 31.253124 578.4875 32.096874Q578.14374 32.925 577.33124 33.846874Q576.51874 34.753124 574.6281 36.3625Q573.03436 37.690624 572.58124 38.159374Q572.14374 38.628124 571.84686 39.1125L578.8625 39.1125ZM582.26874 45.003124L581.01874 45.003124Q583.925 40.315624 583.925 35.628124Q583.925 33.784374 583.51874 31.9875Q583.175 30.51875 582.58124 29.175Q582.20624 28.284374 581.01874 26.2375L582.26874 26.2375Q584.1125 28.690624 584.9875 31.159374Q585.7375 33.284374 585.7375 35.6125Q585.7375 38.253124 584.72186 40.721874Q583.72186 43.175 582.26874 45.003124Z" fill-rule="nonzero"/></svg>